<svg width="24" height="24" viewBox="0 0 24 24" fill="none" xmlns="http://www.w3.org/2000/svg">
<path d="M13.2023 15.6817C13.0183 15.6989 12.8335 15.6573 12.6746 15.563C12.6172 15.5042 12.5738 15.4332 12.5476 15.3553C12.5214 15.2774 12.5131 15.1946 12.5232 15.113C12.5275 14.9755 12.5439 14.8386 12.5723 14.704C12.5997 14.5495 12.6352 14.3966 12.6786 14.2458L13.1614 12.5849C13.2112 12.4209 13.2441 12.2523 13.2596 12.0817C13.2596 11.8976 13.2841 11.7707 13.2841 11.6971C13.2892 11.5352 13.2576 11.3741 13.1917 11.2261C13.1258 11.078 13.0274 10.9468 12.9036 10.8421C12.5954 10.6055 12.2114 10.4891 11.8236 10.5149C11.5457 10.519 11.27 10.5645 11.0054 10.6499C10.7164 10.7399 10.4123 10.8476 10.0932 10.973L9.9541 11.513C10.0482 11.4803 10.1628 11.4435 10.2936 11.4026C10.4185 11.3656 10.548 11.3463 10.6782 11.3453C10.8609 11.3255 11.0447 11.3704 11.1977 11.4721C11.2491 11.5335 11.2876 11.6046 11.3108 11.6813C11.334 11.7579 11.3415 11.8385 11.3327 11.918C11.3323 12.0556 11.3172 12.1927 11.2877 12.3271C11.2591 12.4703 11.2223 12.6217 11.1773 12.7812L10.6904 14.4503C10.6512 14.6054 10.6198 14.7624 10.5964 14.9207C10.5773 15.0563 10.5677 15.193 10.5677 15.3298C10.5667 15.4928 10.6031 15.6539 10.674 15.8007C10.7449 15.9475 10.8485 16.0761 10.9768 16.1766C11.2898 16.417 11.6792 16.5361 12.0731 16.5121C12.3505 16.5178 12.627 16.4777 12.8913 16.3934C13.1232 16.3143 13.4327 16.2012 13.82 16.0539L13.9509 15.5384C13.846 15.582 13.738 15.6175 13.6277 15.6448C13.4883 15.6766 13.3451 15.689 13.2023 15.6817ZM13.7136 7.8067C13.491 7.60222 13.1976 7.49222 12.8954 7.49989C12.5934 7.49308 12.3004 7.60296 12.0773 7.8067C11.6683 8.15931 11.6227 8.77669 11.9753 9.18566C12.0067 9.22212 12.0408 9.25619 12.0773 9.28762C12.5431 9.70432 13.2478 9.70432 13.7136 9.28762C14.1225 8.93152 14.1654 8.31136 13.8093 7.90243C13.7797 7.86834 13.7477 7.83635 13.7136 7.8067Z" fill="#373844"/>
<path d="M12 21C16.9706 21 21 16.9706 21 12C21 7.02944 16.9706 3 12 3C7.02944 3 3 7.02944 3 12C3 16.9706 7.02944 21 12 21Z" stroke="#373844" stroke-width="1.35" stroke-linecap="round" stroke-linejoin="round"/>
</svg>
