<svg width="48" height="48" viewBox="0 0 48 48" fill="none" xmlns="http://www.w3.org/2000/svg">
<path d="M37.0547 22.4473C39.3334 24.9725 41.0325 27.1635 42.1514 29.1279C46.2486 36.3224 40.4196 43.6294 32.6133 43.498C24.8067 43.6296 18.9777 36.3226 23.0752 29.1279C24.1941 27.1635 25.8931 24.9726 28.1719 22.4473C28.4503 22.5354 28.7411 22.5803 29.0332 22.5801H36.1934C36.4932 22.58 36.7828 22.5334 37.0547 22.4473ZM28.3359 30.3545H30.3828C30.9036 30.3545 31.3229 30.4404 31.6406 30.6123C31.9583 30.7842 32.1901 31.0238 32.3359 31.3311C32.3785 31.4207 32.4142 31.5146 32.4443 31.6123H28.7109L28.3281 32.9951H32.4766C32.4383 33.1365 32.3871 33.2723 32.3203 33.4014C32.1641 33.6982 31.927 33.9353 31.6094 34.1123C31.2969 34.2841 30.8984 34.3701 30.4141 34.3701H28.5469L28.5547 35.5342L32.4844 40.167H34.6875V40.0654L31.0938 35.8076C31.9218 35.7347 32.586 35.5472 33.0859 35.2451C33.5859 34.9379 33.9479 34.5367 34.1719 34.042C34.3144 33.7237 34.4111 33.3746 34.4629 32.9951H35.6406L36.0234 31.6123H34.4561C34.3881 31.1623 34.2525 30.7612 34.0469 30.4092C34.0002 30.3279 33.9486 30.2501 33.8945 30.1748H35.6406L36.0312 28.792H28.7578L28.3359 30.3545ZM28.5391 4.5C30.5052 4.50009 32.1143 6.10905 32.1143 8.0752V9.88379C31.1381 10.0546 30.3109 10.7175 29.9297 11.6299C29.3659 11.3986 28.7489 11.3543 28.1689 11.4873V10.4531C28.1689 10.0006 27.8001 9.63209 27.3477 9.63184H9.2666C8.81395 9.63184 8.44437 10.0005 8.44434 10.4531V13.6787C8.44434 14.1314 8.81393 14.501 9.2666 14.501H25.9229C25.9655 15.1836 26.2468 15.8542 26.7666 16.374L27.6211 17.2275C27.1352 17.5048 26.7403 17.9176 26.4844 18.415H23.5205C23.0679 18.415 22.6984 18.7838 22.6982 19.2363V20.3047C22.6982 20.7574 23.0678 21.127 23.5205 21.127H26.543C26.6831 21.3732 26.8589 21.598 27.0645 21.793C26.3708 22.5624 25.6769 23.3589 25.0107 24.1777H23.5205C23.0678 24.1777 22.6982 24.5473 22.6982 25V26.0684C22.6983 26.3572 22.8488 26.6122 23.0752 26.7588C22.6836 27.3344 22.3163 27.917 21.9814 28.5049C20.3421 31.3833 19.9528 34.7098 21.2393 37.7842H8.0752C6.10902 37.7842 4.50017 36.1761 4.5 34.21V8.0752C4.5 6.10899 6.10891 4.5 8.0752 4.5H28.5391ZM10.0215 29.9414C9.569 29.9415 9.20036 30.3102 9.2002 30.7627V31.8311C9.2002 32.2837 9.5689 32.6532 10.0215 32.6533H13.0938C13.5462 32.6531 13.915 32.2836 13.915 31.8311V30.7627C13.9149 30.3103 13.5461 29.9416 13.0938 29.9414H10.0215ZM16.7715 29.9414C16.3189 29.9414 15.9494 30.3102 15.9492 30.7627V31.8311C15.9492 32.2837 16.3188 32.6533 16.7715 32.6533H19.8428C20.2954 32.6533 20.6641 32.2837 20.6641 31.8311V30.7627C20.6639 30.3102 20.2953 29.9414 19.8428 29.9414H16.7715ZM10.0215 24.1777C9.5689 24.1778 9.2002 24.5475 9.2002 25V26.0684C9.20028 26.5209 9.56895 26.8895 10.0215 26.8896H13.0938C13.5462 26.8894 13.915 26.5208 13.915 26.0684V25C13.915 24.5475 13.5462 24.178 13.0938 24.1777H10.0215ZM16.7715 24.1777C16.3188 24.1777 15.9492 24.5473 15.9492 25V26.0684C15.9493 26.521 16.3189 26.8896 16.7715 26.8896H19.8428C20.2954 26.8896 20.664 26.5209 20.6641 26.0684V25C20.6641 24.5473 20.2954 24.1778 19.8428 24.1777H16.7715ZM36.1934 18.1113C37.076 18.1114 37.7979 18.8341 37.7979 19.7168C37.7978 20.5993 37.076 21.3212 36.1934 21.3213H29.0332C28.1504 21.3213 27.4278 20.5995 27.4277 19.7168C27.4277 18.8341 28.1504 18.1113 29.0332 18.1113H36.1934ZM10.0215 18.415C9.569 18.4151 9.20037 18.7839 9.2002 19.2363V20.3047C9.2002 20.7573 9.5689 21.1269 10.0215 21.127H13.0938C13.5462 21.1267 13.915 20.7572 13.915 20.3047V19.2363C13.9149 18.7839 13.5461 18.4153 13.0938 18.415H10.0215ZM16.7715 18.415C16.3189 18.415 15.9494 18.7838 15.9492 19.2363V20.3047C15.9492 20.7574 16.3188 21.127 16.7715 21.127H19.8428C20.2954 21.1269 20.6641 20.7573 20.6641 20.3047V19.2363C20.6639 18.7838 20.2953 18.4151 19.8428 18.415H16.7715ZM32.6133 11.0986C33.386 11.0988 34.0599 11.6431 34.2246 12.3975C34.2857 12.6774 34.4641 12.8904 34.7285 13C34.9933 13.1097 35.2707 13.0854 35.5117 12.9307C36.1494 12.5215 37.0128 12.5951 37.5693 13.1514C38.2108 13.7928 38.2108 14.843 37.5693 15.4844L36.2002 16.8535H29.0264L27.6562 15.4844C27.0148 14.8429 27.0148 13.7927 27.6562 13.1514C28.2018 12.6058 29.0657 12.514 29.7148 12.9307C29.9559 13.0852 30.2326 13.1094 30.4971 13C30.7617 12.8904 30.9399 12.6775 31.001 12.3975C31.1626 11.6571 31.8261 11.0988 32.6133 11.0986Z" fill="#1A1A1A"/>
</svg>
