<svg width="24" height="24" viewBox="0 0 24 24" fill="none" xmlns="http://www.w3.org/2000/svg">
<path d="M12 2C14.6522 2 17.1957 3.05357 19.0711 4.92893C20.9464 6.8043 22 9.34784 22 12C22 14.6522 20.9464 17.1957 19.0711 19.0711C17.1957 20.9464 14.6522 22 12 22C9.34784 22 6.8043 20.9464 4.92893 19.0711C3.05357 17.1957 2 14.6522 2 12C2 9.34784 3.05357 6.8043 4.92893 4.92893C6.8043 3.05357 9.34784 2 12 2ZM13.3275 7.39C13.3275 7.05848 13.1958 6.74054 12.9614 6.50612C12.727 6.2717 12.409 6.14 12.0775 6.14C11.746 6.14 11.428 6.2717 11.1936 6.50612C10.9592 6.74054 10.8275 7.05848 10.8275 7.39V10.8275H7.39C7.05848 10.8275 6.74054 10.9592 6.50612 11.1936C6.2717 11.428 6.14 11.746 6.14 12.0775C6.14 12.409 6.2717 12.727 6.50612 12.9614C6.74054 13.1958 7.05848 13.3275 7.39 13.3275H10.8275V16.765C10.8275 17.0965 10.9592 17.4145 11.1936 17.6489C11.428 17.8833 11.746 18.015 12.0775 18.015C12.409 18.015 12.727 17.8833 12.9614 17.6489C13.1958 17.4145 13.3275 17.0965 13.3275 16.765V13.3275H16.765C17.0965 13.3275 17.4145 13.1958 17.6489 12.9614C17.8833 12.727 18.015 12.409 18.015 12.0775C18.015 11.746 17.8833 11.428 17.6489 11.1936C17.4145 10.9592 17.0965 10.8275 16.765 10.8275H13.3275V7.39Z" fill="#1A1A1A"/>
</svg>
