<svg width="48" height="48" viewBox="0 0 48 48" fill="none" xmlns="http://www.w3.org/2000/svg">
<path d="M27.2727 38.4286C27.2738 39.8753 27.6211 41.3008 28.2857 42.5859C28.3378 42.6777 28.3651 42.7816 28.3648 42.8872C28.3646 42.9928 28.3368 43.0966 28.2843 43.1882C28.2317 43.2798 28.1562 43.3562 28.0651 43.4097C27.9741 43.4632 27.8707 43.4921 27.765 43.4935H13.0909C8.45143 43.4935 6 41.0623 6 36.4431C6 31.2769 8.9174 25.2597 17.1429 25.2597H25.2468C26.8536 25.1653 28.4609 25.4372 29.9472 26.0549C31.4336 26.6726 32.7601 27.62 33.8268 28.8255C33.8852 28.9044 33.9236 28.9964 33.9388 29.0935C33.9539 29.1906 33.9452 29.2899 33.9136 29.3829C33.8819 29.4759 33.8281 29.5599 33.7569 29.6276C33.6857 29.6953 33.5991 29.7447 33.5046 29.7716C31.6862 30.3739 30.1046 31.5353 28.9855 33.09C27.8663 34.6446 27.2669 36.513 27.2727 38.4286ZM21.213 21.2078C22.8158 21.2078 24.3826 20.7325 25.7153 19.842C27.048 18.9516 28.0867 17.6859 28.7001 16.2051C29.3134 14.7243 29.4739 13.0949 29.1612 11.5229C28.8485 9.95091 28.0767 8.50693 26.9434 7.37358C25.81 6.24023 24.366 5.46841 22.794 5.15572C21.222 4.84303 19.5926 5.00351 18.1118 5.61688C16.631 6.23024 15.3654 7.26894 14.4749 8.60162C13.5844 9.93429 13.1091 11.5011 13.1091 13.1039C13.1091 15.2532 13.9629 17.3144 15.4827 18.8342C17.0025 20.354 19.0638 21.2078 21.213 21.2078ZM41.4545 36.9091H38.9221V34.3766C38.9221 33.9736 38.762 33.5871 38.477 33.3022C38.1921 33.0172 37.8056 32.8571 37.4026 32.8571C36.9996 32.8571 36.6131 33.0172 36.3282 33.3022C36.0432 33.5871 35.8831 33.9736 35.8831 34.3766V36.9091H33.3506C32.9477 36.9091 32.5612 37.0692 32.2762 37.3541C31.9913 37.6391 31.8312 38.0256 31.8312 38.4286C31.8312 38.8316 31.9913 39.218 32.2762 39.503C32.5612 39.788 32.9477 39.9481 33.3506 39.9481H35.8831V42.4805C35.8831 42.8835 36.0432 43.27 36.3282 43.555C36.6131 43.8399 36.9996 44 37.4026 44C37.8056 44 38.1921 43.8399 38.477 43.555C38.762 43.27 38.9221 42.8835 38.9221 42.4805V39.9481H41.4545C41.8575 39.9481 42.244 39.788 42.529 39.503C42.8139 39.218 42.974 38.8316 42.974 38.4286C42.974 38.0256 42.8139 37.6391 42.529 37.3541C42.244 37.0692 41.8575 36.9091 41.4545 36.9091Z" fill="#1A1A1A"/>
</svg>
