<svg width="48" height="48" viewBox="0 0 48 48" fill="none" xmlns="http://www.w3.org/2000/svg">
<path fill-rule="evenodd" clip-rule="evenodd" d="M23.2646 14.9733C23.2645 15.0873 23.2869 15.2002 23.3305 15.3056C23.3742 15.4109 23.4381 15.5067 23.5187 15.5873C23.5993 15.6679 23.6951 15.7319 23.8004 15.7755C23.9058 15.8191 24.0187 15.8415 24.1327 15.8415H27.9765V19.6853C27.9786 19.9142 28.071 20.1329 28.2336 20.294C28.3962 20.455 28.6158 20.5454 28.8446 20.5454C29.0735 20.5454 29.2931 20.455 29.4556 20.294C29.6182 20.1329 29.7106 19.9142 29.7128 19.6853V15.8415H33.5567C33.7869 15.8415 34.0078 15.75 34.1706 15.5872C34.3334 15.4244 34.4249 15.2035 34.4249 14.9733C34.4249 14.743 34.3334 14.5222 34.1706 14.3594C34.0078 14.1965 33.7869 14.1051 33.5567 14.1051H29.7128V10.2614C29.7139 10.1467 29.6922 10.0329 29.6491 9.92666C29.6059 9.82038 29.5421 9.72371 29.4614 9.64222C29.3807 9.56073 29.2846 9.49605 29.1788 9.45191C29.0729 9.40776 28.9593 9.38503 28.8446 9.38503C28.7299 9.38503 28.6164 9.40776 28.5105 9.45191C28.4046 9.49605 28.3086 9.56073 28.2278 9.64222C28.1471 9.72371 28.0833 9.82038 28.0402 9.92666C27.997 10.0329 27.9754 10.1467 27.9765 10.2614V14.1051H24.1327C23.9025 14.1051 23.6817 14.1966 23.5189 14.3594C23.3561 14.5222 23.2646 14.743 23.2646 14.9733ZM28.8448 5.94872C30.6297 5.94878 32.3745 6.47812 33.8586 7.4698C35.3426 8.46148 36.4993 9.87095 37.1823 11.52C37.8653 13.169 38.0439 14.9836 37.6957 16.7342C37.3474 18.4848 36.4879 20.0928 35.2257 21.3548C33.9636 22.6169 32.3556 23.4764 30.605 23.8246C28.8544 24.1728 27.0398 23.994 25.3908 23.3109C23.7418 22.6279 22.3324 21.4712 21.3408 19.9871C20.3491 18.503 19.8199 16.7582 19.8199 14.9733C19.8225 12.5805 20.7742 10.2866 22.4662 8.59471C24.1581 6.90284 26.4521 5.95125 28.8448 5.94872ZM18.0835 14.9924L18.0856 15.1343C18.1721 21.0031 22.9746 25.7342 28.8448 25.7342C31.3282 25.7307 33.7342 24.87 35.6563 23.2975C37.5784 21.725 38.8986 19.5371 39.3939 17.1036L39.4499 16.8256C39.5474 16.2542 39.6003 15.6762 39.608 15.0967L41.9299 15.3106C42.3341 15.3459 42.7102 15.532 42.9836 15.8318C43.2569 16.1316 43.4075 16.5233 43.4053 16.9291V25.6045C43.4034 27.0985 42.8091 28.5308 41.7527 29.5872C40.6962 30.6436 39.264 31.2379 37.7699 31.2398H17.9564C17.3931 31.2432 16.8539 31.4693 16.4567 31.8689C16.0595 32.2685 15.8366 32.809 15.8366 33.3724C15.8366 33.9358 16.0595 34.4763 16.4567 34.8758C16.8539 35.2754 17.3931 35.5016 17.9564 35.505H38.9196C39.0004 35.505 39.0808 35.5042 39.1614 35.5042C40.0927 35.5033 40.9985 35.8084 41.7394 36.3727C42.4803 36.937 43.0152 37.7291 43.2619 38.6271C43.5085 39.5251 43.4532 40.4794 43.1044 41.3429C42.7557 42.2064 42.1328 42.9314 41.3317 43.4063C40.5305 43.8811 39.5956 44.0796 38.6706 43.9711C37.7457 43.8625 36.882 43.453 36.2126 42.8056C35.5431 42.1582 35.105 41.3087 34.9656 40.3879C34.8262 39.4671 34.9933 38.526 35.4411 37.7094L35.6989 37.2414H23.0022L23.2601 37.7094C23.6272 38.3781 23.8072 39.1335 23.7813 39.8959C23.7554 40.6583 23.5244 41.3996 23.1127 42.0418C22.701 42.6841 22.1239 43.2035 21.4419 43.5454C20.76 43.8873 19.9985 44.0391 19.2376 43.9847C18.4766 43.9304 17.7444 43.6719 17.118 43.2366C16.4916 42.8013 15.994 42.2051 15.6778 41.5109C15.3616 40.8167 15.2383 40.0501 15.3209 39.2917C15.4036 38.5334 15.6892 37.8113 16.1475 37.2015L16.3636 36.9148L16.0515 36.7372C15.4779 36.413 14.9967 35.9477 14.6535 35.3853C14.3103 34.8229 14.1166 34.1821 14.0907 33.5237C14.0648 32.8654 14.2076 32.2114 14.5056 31.6237C14.8036 31.0361 15.2468 30.5344 15.7932 30.1663L16.1171 29.9469L15.8343 29.6766C15.2822 29.1517 14.8426 28.52 14.5423 27.8199C14.242 27.1198 14.0872 26.366 14.0874 25.6042V8.5554L4.70624 6.72088C4.59384 6.69956 4.48676 6.65622 4.39116 6.59337C4.29557 6.53051 4.21334 6.44938 4.1492 6.35464C4.08507 6.2599 4.0403 6.15341 4.01747 6.0413C3.99463 5.9292 3.99418 5.81368 4.01615 5.7014C4.03811 5.58912 4.08205 5.48229 4.14545 5.38705C4.20885 5.29181 4.29044 5.21004 4.38555 5.14645C4.48066 5.08286 4.5874 5.03869 4.69963 5.01649C4.81186 4.9943 4.92738 4.99451 5.03953 5.01711L14.5113 6.86956C14.8808 6.94252 15.2135 7.1413 15.4529 7.43207C15.6923 7.72283 15.8235 8.08758 15.8242 8.46421V12.898L18.2395 13.122C18.1342 13.7399 18.082 14.3657 18.0835 14.9924Z" fill="#1A1A1A"/>
</svg>
