<svg width="25" height="24" viewBox="0 0 25 24" fill="none" xmlns="http://www.w3.org/2000/svg">
<path d="M18.373 10.0156C19.2141 10.0158 19.8984 10.6999 19.8984 11.541V13.3721H16.8467C15.3214 13.3724 15.3213 14.9797 15.3213 15.5078C15.3213 16.0362 15.3217 17.6433 16.8467 17.6436H19.8984V19.4746C19.8982 20.3156 19.214 20.9998 18.373 21H5.25195C4.41095 20.9999 3.72675 20.3156 3.72656 19.4746V11.541C3.72656 10.6999 4.41083 10.0158 5.25195 10.0156H18.373ZM9.80469 13.5342C9.1799 13.5342 8.5805 13.7819 8.13867 14.2236C7.80917 14.5531 7.58505 14.9736 7.49414 15.4307C7.4033 15.8876 7.44964 16.3616 7.62793 16.792C7.80627 17.2224 8.10873 17.5898 8.49609 17.8486C8.88353 18.1075 9.33874 18.2461 9.80469 18.2461C10.2706 18.2461 10.7259 18.1075 11.1133 17.8486C11.5006 17.5898 11.8031 17.2224 11.9814 16.792C12.1597 16.3616 12.2061 15.8876 12.1152 15.4307C12.0243 14.9736 11.8002 14.5531 11.4707 14.2236C11.0289 13.7819 10.4295 13.5342 9.80469 13.5342ZM9.80469 14.7109C9.88307 14.7109 9.95822 14.7425 10.0137 14.7979C10.0691 14.8533 10.1005 14.9285 10.1006 15.0068L10.0986 15.5967L10.6875 15.5947C10.7263 15.5946 10.7649 15.6015 10.8008 15.6162C10.8367 15.631 10.87 15.6532 10.8975 15.6807C10.9248 15.708 10.9462 15.7406 10.9609 15.7764C10.9757 15.8122 10.9835 15.8509 10.9834 15.8896C10.9832 15.9284 10.975 15.9672 10.96 16.0029C10.945 16.0386 10.923 16.0714 10.8955 16.0986C10.8684 16.126 10.8363 16.1482 10.8008 16.1631C10.765 16.1781 10.7263 16.1854 10.6875 16.1855L10.0986 16.1836L10.1006 16.7734C10.1004 16.812 10.0921 16.8501 10.0771 16.8857C10.0621 16.9215 10.0402 16.9542 10.0127 16.9814C9.98557 17.0088 9.95349 17.0309 9.91797 17.0459C9.88223 17.0609 9.84345 17.0682 9.80469 17.0684C9.76588 17.0685 9.7273 17.0616 9.69141 17.0469C9.65555 17.0321 9.62315 17.0098 9.5957 16.9824C9.5683 16.955 9.54605 16.9225 9.53125 16.8867C9.5165 16.8509 9.50869 16.8122 9.50879 16.7734L9.51074 16.1836L8.92188 16.1855C8.84345 16.1855 8.76835 16.1541 8.71289 16.0986C8.6575 16.0432 8.62598 15.968 8.62598 15.8896C8.62607 15.8113 8.65751 15.736 8.71289 15.6807C8.76832 15.6254 8.84356 15.5947 8.92188 15.5947L9.51074 15.5967L9.50879 15.0068C9.50883 14.9285 9.54029 14.8533 9.5957 14.7979C9.65115 14.7424 9.7263 14.7109 9.80469 14.7109ZM20.5088 13.9824C21.0133 13.9827 21.4248 14.3929 21.4248 14.8975V16.1182C21.4246 16.6225 21.0131 17.0329 20.5088 17.0332H16.8477C16.2982 17.0332 15.9327 16.7736 15.9326 15.5078C15.9326 14.2418 16.2981 13.9824 16.8477 13.9824H20.5088ZM17.7627 14.2871C17.0897 14.2872 16.542 14.8348 16.542 15.5078C16.5421 16.1807 17.0898 16.7284 17.7627 16.7285C18.4355 16.7283 18.9833 16.1807 18.9834 15.5078C18.9834 14.8349 18.4356 14.2874 17.7627 14.2871ZM17.7627 14.8975C18.0995 14.8977 18.373 15.1709 18.373 15.5078C18.3729 15.8446 18.0994 16.1179 17.7627 16.1182C17.4258 16.118 17.1525 15.8447 17.1523 15.5078C17.1523 15.1709 17.4258 14.8976 17.7627 14.8975ZM11.6836 4.74902C11.9545 4.51157 12.3099 4.4565 12.6338 4.60352C12.8012 4.68059 12.943 4.80579 13.041 4.96191C13.1389 5.11808 13.189 5.30009 13.1855 5.48438V6.7832L7.92676 9.40527H6.36914L11.6836 4.74902ZM15.0332 6.65918C15.1949 6.6621 15.3535 6.7078 15.4922 6.79102C15.7674 6.95461 15.9316 7.24066 15.9316 7.55566V9.40527H9.29395L14.5703 6.77441C14.7119 6.69626 14.8715 6.65629 15.0332 6.65918ZM19.8936 3C19.9643 3.00009 20.0344 3.01707 20.0977 3.04883C20.1609 3.08069 20.2166 3.12678 20.2588 3.18359L21.6621 5.07129C21.692 5.10126 21.7124 5.14013 21.7207 5.18164C21.7289 5.22316 21.7251 5.26654 21.709 5.30566C21.6928 5.34477 21.665 5.37876 21.6299 5.40234C21.5947 5.42586 21.5521 5.43841 21.5098 5.43848H20.8145C20.8144 6.09534 20.6517 6.74212 20.3418 7.32129C20.0319 7.90042 19.5835 8.3943 19.0371 8.75879L18.9834 8.79492L17.7627 7.87988L17.9531 7.76465C18.3434 7.53049 18.6515 7.18114 18.835 6.76465C19.0184 6.34803 19.0684 5.88451 18.9775 5.43848H18.2891C18.2456 5.43856 18.2022 5.4254 18.166 5.40137C18.1299 5.37726 18.1016 5.34279 18.085 5.30273C18.0683 5.26246 18.0637 5.21755 18.0723 5.1748C18.0809 5.13226 18.1021 5.09314 18.1328 5.0625L19.5283 3.18359C19.5705 3.1269 19.6254 3.08066 19.6885 3.04883C19.7518 3.01701 19.8227 3.00003 19.8936 3Z" fill="#373844"/>
</svg>
