<svg width="20" height="18" viewBox="0 0 20 18" fill="none" xmlns="http://www.w3.org/2000/svg">
<path d="M0.723633 18V16.9412H9.69586V5.23059C9.19763 5.13953 8.75782 4.91294 8.37641 4.55082C7.995 4.18871 7.75223 3.73059 7.64808 3.17647H4.01274L7.05697 10.8127C7.01615 11.5186 6.68928 12.1193 6.07636 12.6148C5.46343 13.1104 4.73474 13.3581 3.8903 13.3581C3.04586 13.3581 2.31717 13.1104 1.70424 12.6148C1.09132 12.1193 0.764448 11.5186 0.723633 10.8127L3.76891 3.17647H1.77919V2.11765H7.64808C7.76419 1.52753 8.05763 1.02706 8.52841 0.616235C8.99919 0.205412 9.56426 0 10.2236 0C10.883 0 11.4481 0.205412 11.9189 0.616235C12.3896 1.02706 12.6831 1.52753 12.7992 2.11765H18.6681V3.17647H16.6794L19.7236 10.8127C19.6828 11.5186 19.3559 12.1193 18.743 12.6148C18.1301 13.1104 17.4014 13.3581 16.557 13.3581C15.7125 13.3581 14.9838 13.1104 14.3709 12.6148C13.758 12.1193 13.4311 11.5186 13.3903 10.8127L16.4345 3.17647H12.8002C12.6954 3.73059 12.4523 4.18871 12.0709 4.55082C11.6894 4.91294 11.2496 5.13988 10.7514 5.23165V16.9412H19.7236V18H0.723633ZM14.4353 10.7111H18.6786L16.557 5.39153L14.4353 10.7111ZM1.76863 10.7111H6.01197L3.8903 5.39153L1.76863 10.7111ZM10.2236 4.23529C10.6578 4.23529 11.0304 4.07965 11.3415 3.76835C11.6518 3.45635 11.807 3.08259 11.807 2.64706C11.807 2.21153 11.6518 1.83776 11.3415 1.52576C11.0304 1.21447 10.6578 1.05882 10.2236 1.05882C9.78945 1.05882 9.41684 1.21447 9.1058 1.52576C8.79476 1.83706 8.6396 2.21082 8.6403 2.64706C8.641 3.08329 8.79617 3.45706 9.1058 3.76835C9.41684 4.07965 9.78945 4.23529 10.2236 4.23529Z" fill="#373844"/>
</svg>
