<svg width="24" height="24" viewBox="0 0 24 24" fill="none" xmlns="http://www.w3.org/2000/svg">
<path d="M4.6 6.6H6.4V17.4H4.6V6.6ZM7.3 6.6H8.2V17.4H7.3V6.6ZM9.1 6.6H11.8V17.4H9.1V6.6ZM12.7 6.6H13.6V17.4H12.7V6.6ZM15.4 6.6H17.2V17.4H15.4V6.6ZM18.1 6.6H19V17.4H18.1V6.6ZM2.8 4.8V8.4H1V4.8C1 4.32261 1.18964 3.86477 1.52721 3.52721C1.86477 3.18964 2.32261 3 2.8 3H6.4V4.8H2.8ZM20.8 3C21.2774 3 21.7352 3.18964 22.0728 3.52721C22.4104 3.86477 22.6 4.32261 22.6 4.8V8.4H20.8V4.8H17.2V3H20.8ZM2.8 15.6V19.2H6.4V21H2.8C2.32261 21 1.86477 20.8104 1.52721 20.4728C1.18964 20.1352 1 19.6774 1 19.2V15.6H2.8ZM20.8 19.2V15.6H22.6V19.2C22.6 19.6774 22.4104 20.1352 22.0728 20.4728C21.7352 20.8104 21.2774 21 20.8 21H17.2V19.2H20.8Z" fill="#373844"/>
</svg>
