<svg width="48" height="48" viewBox="0 0 48 48" fill="none" xmlns="http://www.w3.org/2000/svg">
<path d="M16.0443 16.5842H16.1145C16.7973 16.5842 17.2572 16.4981 17.4943 16.326C17.7314 16.1539 17.85 15.9035 17.85 15.5748C17.8565 15.4054 17.822 15.2369 17.7493 15.0837C17.6767 14.9305 17.568 14.7971 17.4327 14.695C17.154 14.4797 16.6912 14.3721 16.0443 14.3721C15.9538 14.3721 15.867 14.408 15.803 14.4719C15.7389 14.5358 15.7028 14.6225 15.7026 14.7129V16.2425C15.7026 16.3331 15.7386 16.42 15.8027 16.4841C15.8668 16.5482 15.9537 16.5842 16.0443 16.5842Z" fill="#1A1A1A"/>
<path d="M38.4961 4.95528C38.1786 5.25637 37.7816 5.63233 37.0234 5.63233C36.2653 5.63233 35.869 5.25637 35.5508 4.95528C35.2762 4.69086 35.0711 4.49976 34.6343 4.49976C34.1975 4.49976 33.997 4.69086 33.7162 4.95528C33.3972 5.25637 33.0017 5.63233 32.2427 5.63233C31.4838 5.63233 31.0891 5.25637 30.7701 4.95528C30.4947 4.69086 30.2935 4.49976 29.8575 4.49976C29.4214 4.49976 29.2202 4.69086 28.9417 4.95528C28.6235 5.25637 28.228 5.63233 27.4691 5.63233C26.7101 5.63233 26.3147 5.25637 25.9941 4.95528C25.718 4.69086 25.5167 4.49976 25.0807 4.49976C24.6447 4.49976 24.4434 4.69086 24.165 4.95528C23.8467 5.25637 23.4505 5.63233 22.6931 5.63233C21.9357 5.63233 21.5387 5.25637 21.2204 4.95528C20.942 4.69086 20.7407 4.49976 20.3047 4.49976C19.8687 4.49976 19.6674 4.69086 19.3882 4.95528C19.0707 5.25637 18.6745 5.63233 17.9163 5.63233C17.1581 5.63233 16.7619 5.25637 16.4436 4.95528C16.166 4.69086 15.9632 4.49976 15.5271 4.49976C15.0911 4.49976 14.8906 4.69086 14.6122 4.95528C14.2939 5.25637 13.8977 5.63233 13.1395 5.63233C12.3813 5.63233 11.9851 5.25637 11.6676 4.95528C11.3884 4.69086 11.1871 4.49976 10.7511 4.49976C10.3151 4.49976 10.1139 4.69086 9.83539 4.95528C9.62167 5.15808 9.36738 5.39521 9 5.52781V41.8895C9.00008 42.1298 9.05391 42.3671 9.15756 42.5838C9.26121 42.8006 9.41205 42.9915 9.59902 43.1424C9.78599 43.2933 10.0044 43.4005 10.2381 43.4561C10.4719 43.5117 10.7151 43.5142 10.95 43.4636L37.5063 37.7282C37.8659 37.6503 38.188 37.4517 38.419 37.1653C38.6501 36.8789 38.7761 36.5221 38.7761 36.1541V4.70802C38.6781 4.78495 38.5846 4.86751 38.4961 4.95528ZM29.682 10.3795C29.682 10.1519 29.7724 9.93368 29.9333 9.77277C30.0942 9.61186 30.3124 9.52146 30.54 9.52146C30.7469 9.52146 30.9453 9.60364 31.0915 9.74992C31.2378 9.8962 31.32 10.0946 31.32 10.3015V16.0735C31.32 16.2076 31.3732 16.3362 31.468 16.431C31.5628 16.5257 31.6914 16.579 31.8254 16.579H32.9362C33.143 16.579 33.3414 16.6612 33.4877 16.8075C33.634 16.9537 33.7162 17.1521 33.7162 17.359C33.7162 17.5659 33.634 17.7643 33.4877 17.9106C33.3414 18.0568 33.143 18.139 32.9362 18.139H30.1851C30.051 18.139 29.9225 18.0858 29.8277 17.991C29.7329 17.8962 29.6796 17.7676 29.6796 17.6336L29.682 10.3795ZM24.3951 10.3413C24.3951 10.1234 24.4816 9.9145 24.6356 9.76047C24.7897 9.60644 24.9986 9.5199 25.2164 9.5199C25.4342 9.5199 25.6432 9.60644 25.7972 9.76047C25.9512 9.9145 26.0378 10.1234 26.0378 10.3413V16.0993C26.038 16.2279 26.0892 16.3512 26.1801 16.4421C26.271 16.5331 26.3943 16.5842 26.5229 16.5845H27.6485C27.8554 16.5845 28.0538 16.6666 28.2 16.8129C28.3463 16.9592 28.4285 17.1576 28.4285 17.3645C28.4285 17.5713 28.3463 17.7697 28.2 17.916C28.0538 18.0623 27.8554 18.1445 27.6485 18.1445H24.8779C24.8141 18.1446 24.751 18.1321 24.6921 18.1078C24.6332 18.0834 24.5797 18.0477 24.5346 18.0026C24.4895 17.9575 24.4538 17.904 24.4294 17.8451C24.4051 17.7862 24.3926 17.7231 24.3927 17.6593L24.3951 10.3413ZM20.9154 10.335C20.922 10.1231 21.0108 9.92205 21.163 9.77446C21.3152 9.62688 21.5189 9.54435 21.7309 9.54435C21.943 9.54435 22.1467 9.62688 22.2989 9.77446C22.4511 9.92205 22.5399 10.1231 22.5464 10.335V17.3356C22.5399 17.5475 22.4511 17.7486 22.2989 17.8962C22.1467 18.0437 21.943 18.1263 21.7309 18.1263C21.5189 18.1263 21.3152 18.0437 21.163 17.8962C21.0108 17.7486 20.922 17.5475 20.9154 17.3356V10.335ZM14.0599 10.2048C14.0599 10.0231 14.1321 9.84892 14.2605 9.72049C14.3889 9.59206 14.5631 9.5199 14.7448 9.5199H15.4171C16.2044 9.5199 16.7801 9.5719 17.1441 9.6759C17.6264 9.79162 18.0589 10.059 18.3781 10.4388C18.6825 10.8083 18.8448 11.2744 18.8359 11.7531C18.8402 12.064 18.7687 12.3713 18.6277 12.6485C18.4611 12.9473 18.2294 13.2048 17.9498 13.402C18.474 13.6485 18.8575 13.9566 19.1004 14.3263C19.349 14.7176 19.4756 15.1741 19.4638 15.6375C19.4683 16.1064 19.3378 16.5668 19.0879 16.9635C18.8537 17.3456 18.5169 17.6542 18.116 17.8543C17.7208 18.0524 17.1748 18.1512 16.478 18.1507H14.7448C14.5631 18.1507 14.3889 18.0786 14.2605 17.9501C14.1321 17.8217 14.0599 17.6475 14.0599 17.4659V10.2048ZM34.6912 35.5442H13.0849C12.9608 35.5442 12.8418 35.4949 12.754 35.4071C12.6662 35.3193 12.6169 35.2003 12.6169 35.0762C12.6169 34.952 12.6662 34.833 12.754 34.7452C12.8418 34.6575 12.9608 34.6082 13.0849 34.6082H34.6912C34.8153 34.6082 34.9344 34.6575 35.0221 34.7452C35.1099 34.833 35.1592 34.952 35.1592 35.0762C35.1592 35.2003 35.1099 35.3193 35.0221 35.4071C34.9344 35.4949 34.8153 35.5442 34.6912 35.5442ZM34.6912 31.6441H13.0849C12.9608 31.6441 12.8418 31.5948 12.754 31.507C12.6662 31.4193 12.6169 31.3002 12.6169 31.1761C12.6169 31.052 12.6662 30.9329 12.754 30.8452C12.8418 30.7574 12.9608 30.7081 13.0849 30.7081H34.6912C34.8153 30.7081 34.9344 30.7574 35.0221 30.8452C35.1099 30.9329 35.1592 31.052 35.1592 31.1761C35.1592 31.3002 35.1099 31.4193 35.0221 31.507C34.9344 31.5948 34.8153 31.6441 34.6912 31.6441ZM34.6912 27.7441H13.0849C12.9608 27.7441 12.8418 27.6948 12.754 27.607C12.6662 27.5192 12.6169 27.4002 12.6169 27.2761C12.6169 27.1519 12.6662 27.0329 12.754 26.9451C12.8418 26.8574 12.9608 26.8081 13.0849 26.8081H34.6912C34.8153 26.8081 34.9344 26.8574 35.0221 26.9451C35.1099 27.0329 35.1592 27.1519 35.1592 27.2761C35.1592 27.4002 35.1099 27.5192 35.0221 27.607C34.9344 27.6948 34.8153 27.7441 34.6912 27.7441ZM34.6912 23.844H13.0849C12.9608 23.844 12.8418 23.7947 12.754 23.7069C12.6662 23.6192 12.6169 23.5001 12.6169 23.376C12.6169 23.2519 12.6662 23.1328 12.754 23.0451C12.8418 22.9573 12.9608 22.908 13.0849 22.908H34.6912C34.8153 22.908 34.9344 22.9573 35.0221 23.0451C35.1099 23.1328 35.1592 23.2519 35.1592 23.376C35.1592 23.5001 35.1099 23.6192 35.0221 23.7069C34.9344 23.7947 34.8153 23.844 34.6912 23.844Z" fill="#1A1A1A"/>
<path d="M16.0443 12.9054H16.0622C16.4626 12.9054 16.7601 12.8214 16.9546 12.6535C17.0517 12.5684 17.1284 12.4625 17.1789 12.3436C17.2294 12.2248 17.2524 12.0961 17.2463 11.9671C17.2515 11.846 17.2293 11.7253 17.1813 11.614C17.1334 11.5027 17.0609 11.4037 16.9694 11.3243C16.7843 11.1683 16.5034 11.0903 16.127 11.0903H16.0443C15.9537 11.0903 15.8668 11.1263 15.8027 11.1904C15.7386 11.2545 15.7026 11.3414 15.7026 11.432V12.5685C15.7039 12.6582 15.7404 12.7439 15.8043 12.807C15.8683 12.8701 15.9545 12.9054 16.0443 12.9054Z" fill="#1A1A1A"/>
</svg>
