<svg width="24" height="24" viewBox="0 0 24 24" fill="none" xmlns="http://www.w3.org/2000/svg">
<path d="M17.7857 3H6.21429C5.3618 3 4.54424 3.33865 3.94144 3.94144C3.33865 4.54424 3 5.3618 3 6.21429V17.7857C3 18.6382 3.33865 19.4558 3.94144 20.0586C4.54424 20.6614 5.3618 21 6.21429 21H17.7857C18.6382 21 19.4558 20.6614 20.0586 20.0586C20.6614 19.4558 21 18.6382 21 17.7857V6.21429C21 5.3618 20.6614 4.54424 20.0586 3.94144C19.4558 3.33865 18.6382 3 17.7857 3ZM7.89664 12.558C7.91538 12.446 7.96865 12.3426 8.049 12.2623L11.3841 8.92714L13.5538 11.0968L10.2186 14.4319C10.1384 14.5123 10.035 14.5655 9.92293 14.5843L8.24379 14.8678C8.15771 14.8823 8.06939 14.8761 7.98622 14.8495C7.90306 14.823 7.82745 14.7769 7.76572 14.7152C7.70398 14.6535 7.65792 14.5779 7.63138 14.4947C7.60484 14.4115 7.59858 14.3232 7.61314 14.2371L7.89664 12.558ZM13.4741 17.5633H7.73529C7.58184 17.5633 7.43468 17.5023 7.32617 17.3938C7.21767 17.2853 7.15671 17.1382 7.15671 16.9847C7.15671 16.8313 7.21767 16.6841 7.32617 16.5756C7.43468 16.4671 7.58184 16.4061 7.73529 16.4061H13.4741C13.6275 16.4061 13.7747 16.4671 13.8832 16.5756C13.9917 16.6841 14.0526 16.8313 14.0526 16.9847C14.0526 17.1382 13.9917 17.2853 13.8832 17.3938C13.7747 17.5023 13.6275 17.5633 13.4741 17.5633ZM14.3728 10.2784L12.2031 8.10943L12.8479 7.46464C13.1356 7.17693 13.5259 7.0153 13.9327 7.0153C14.1342 7.0153 14.3337 7.05498 14.5199 7.13208C14.706 7.20918 14.8751 7.32218 15.0176 7.46464C15.16 7.6071 15.273 7.77623 15.3501 7.96236C15.4272 8.1485 15.4669 8.34799 15.4669 8.54946C15.4669 8.75093 15.4272 8.95043 15.3501 9.13657C15.273 9.3227 15.16 9.49182 15.0176 9.63429L14.3728 10.2784ZM16.3946 17.5633H15.7916C15.6381 17.5633 15.491 17.5023 15.3825 17.3938C15.274 17.2853 15.213 17.1382 15.213 16.9847C15.213 16.8313 15.274 16.6841 15.3825 16.5756C15.491 16.4671 15.6381 16.4061 15.7916 16.4061H16.3946C16.548 16.4061 16.6952 16.4671 16.8037 16.5756C16.9122 16.6841 16.9731 16.8313 16.9731 16.9847C16.9731 17.1382 16.9122 17.2853 16.8037 17.3938C16.6952 17.5023 16.548 17.5633 16.3946 17.5633Z" fill="#1A1A1A"/>
</svg>
