<svg width="24" height="24" viewBox="0 0 24 24" fill="none" xmlns="http://www.w3.org/2000/svg">
<path d="M20.2819 11.639C20.2847 13.3544 19.7744 15.0315 18.8168 16.4549C18.027 17.6329 16.9591 18.5982 15.7075 19.2654C14.456 19.9325 13.0593 20.281 11.641 20.2799C10.2227 20.281 8.82596 19.9325 7.57437 19.2654C6.32279 18.5982 5.25489 17.6329 4.46512 16.4549C3.7131 15.3338 3.23417 14.0522 3.06673 12.7128C2.89929 11.3733 3.048 10.0133 3.50093 8.74163C3.95387 7.47 4.69842 6.32217 5.67492 5.39016C6.65142 4.45814 7.83269 3.76788 9.12405 3.37468C10.4154 2.98149 11.7809 2.89632 13.1111 3.12598C14.4413 3.35565 15.6992 3.89377 16.784 4.69721C17.8687 5.50065 18.7501 6.54706 19.3576 7.75254C19.965 8.95803 20.2816 10.2891 20.2819 11.639Z" stroke="#373844" stroke-width="1.5"/>
<path d="M12.841 8.75846C12.841 9.42093 12.3033 9.95859 11.6409 9.95859V11.3988C12.3411 11.3988 13.0127 11.1206 13.5078 10.6254C14.003 10.1303 14.2812 9.45871 14.2812 8.75846H12.841ZM11.6409 9.95859C10.9784 9.95859 10.4407 9.42093 10.4407 8.75846H9.00058C9.00058 9.45871 9.27875 10.1303 9.7739 10.6254C10.2691 11.1206 10.9406 11.3988 11.6409 11.3988V9.95859ZM10.4407 8.75846C10.4407 8.09598 10.9784 7.55832 11.6409 7.55832V6.11816C10.9406 6.11816 10.2691 6.39634 9.7739 6.89149C9.27875 7.38664 9.00058 8.05821 9.00058 8.75846H10.4407ZM11.6409 7.55832C12.3033 7.55832 12.841 8.09598 12.841 8.75846H14.2812C14.2812 8.05821 14.003 7.38664 13.5078 6.89149C13.0127 6.39634 12.3411 6.11816 11.6409 6.11816V7.55832ZM5.0795 17.2612L4.38919 17.0557L4.27686 17.4321L4.5332 17.7297L5.0795 17.2612ZM18.2022 17.2612L18.7495 17.7307L19.0049 17.433L18.8926 17.0557L18.2022 17.2612ZM8.76055 15.2392H14.5212V13.799H8.76055V15.2392ZM8.76055 13.799C7.77838 13.7988 6.82237 14.1156 6.03475 14.7024C5.24713 15.2891 4.66999 16.1145 4.38919 17.0557L5.76982 17.4666C5.96208 16.8228 6.357 16.2583 6.89584 15.857C7.43469 15.4557 8.08868 15.239 8.76055 15.2392V13.799ZM11.6409 19.5597C10.4978 19.561 9.36802 19.3143 8.32955 18.8365C7.29107 18.3588 6.3686 17.6615 5.62581 16.7926L4.5332 17.7297C5.41118 18.756 6.50127 19.5807 7.72833 20.1451C8.95539 20.7095 10.2902 21.0011 11.6409 20.9998V19.5597ZM14.5212 15.2392C15.9325 15.2392 17.1279 16.1782 17.5119 17.4666L18.8926 17.0557C18.6118 16.1145 18.0346 15.2891 17.247 14.7024C16.4594 14.1156 15.5034 13.7988 14.5212 13.799V15.2392ZM17.6559 16.7926C16.9131 17.6615 15.9907 18.3588 14.9522 18.8365C13.9137 19.3143 12.784 19.561 11.6409 19.5597V20.9998C12.9915 21.0011 14.3264 20.7095 15.5534 20.1451C16.7805 19.5807 17.8715 18.757 18.7495 17.7307L17.6559 16.7926Z" fill="#373844"/>
</svg>
