<svg width="48" height="48" viewBox="0 0 48 48" fill="none" xmlns="http://www.w3.org/2000/svg">
<path d="M7.92773 22.8574H19.4297C21.3198 22.8574 22.8574 21.3198 22.8574 19.4297V7.92773C22.8574 6.03761 21.3198 4.5 19.4297 4.5H7.92773C6.03761 4.5 4.5 6.03761 4.5 7.92773V19.4297C4.5 21.3198 6.03761 22.8574 7.92773 22.8574ZM10.2891 12.5742H12.5742V10.2891C12.5742 9.65752 13.0853 9.14648 13.7168 9.14648C14.3483 9.14648 14.8594 9.65752 14.8594 10.2891V12.5742H17.1445C17.7761 12.5742 18.2871 13.0853 18.2871 13.7168C18.2871 14.3483 17.7761 14.8594 17.1445 14.8594H14.8594V17.1445C14.8594 17.7761 14.3483 18.2871 13.7168 18.2871C13.0853 18.2871 12.5742 17.7761 12.5742 17.1445V14.8594H10.2891C9.65752 14.8594 9.14648 14.3483 9.14648 13.7168C9.14648 13.0853 9.65752 12.5742 10.2891 12.5742ZM40.0723 4.5H28.5703C26.6802 4.5 25.1426 6.03761 25.1426 7.92773V19.4297C25.1426 21.3198 26.6802 22.8574 28.5703 22.8574H40.0723C41.9624 22.8574 43.5 21.3198 43.5 19.4297V7.92773C43.5 6.03761 41.9624 4.5 40.0723 4.5ZM37.7871 14.8594H30.8555C30.2239 14.8594 29.7129 14.3483 29.7129 13.7168C29.7129 13.0853 30.2239 12.5742 30.8555 12.5742H37.7871C38.4187 12.5742 38.9297 13.0853 38.9297 13.7168C38.9297 14.3483 38.4187 14.8594 37.7871 14.8594ZM40.0723 25.1426H28.5703C26.6802 25.1426 25.1426 26.6802 25.1426 28.5703V40.0723C25.1426 41.9624 26.6802 43.5 28.5703 43.5H40.0723C41.9624 43.5 43.5 41.9624 43.5 40.0723V28.5703C43.5 26.6802 41.9624 25.1426 40.0723 25.1426ZM37.7871 37.7109H30.8555C30.2239 37.7109 29.7129 37.1999 29.7129 36.5684C29.7129 35.9368 30.2239 35.4258 30.8555 35.4258H37.7871C38.4187 35.4258 38.9297 35.9368 38.9297 36.5684C38.9297 37.1999 38.4187 37.7109 37.7871 37.7109ZM37.7871 33.1406H30.8555C30.2239 33.1406 29.7129 32.6296 29.7129 31.998C29.7129 31.3665 30.2239 30.8555 30.8555 30.8555H37.7871C38.4187 30.8555 38.9297 31.3665 38.9297 31.998C38.9297 32.6296 38.4187 33.1406 37.7871 33.1406ZM22.8574 40.0723V28.5703C22.8574 26.6802 21.3198 25.1426 19.4297 25.1426H7.92773C6.03761 25.1426 4.5 26.6802 4.5 28.5703V40.0723C4.5 41.9624 6.03761 43.5 7.92773 43.5H19.4297C21.3198 43.5 22.8574 41.9624 22.8574 40.0723ZM16.9482 35.8989C17.3945 36.3452 17.3945 37.0683 16.9482 37.5146C16.5019 37.9609 15.7788 37.9609 15.3325 37.5146L13.7168 35.8989L12.1011 37.5146C11.6548 37.9609 10.9317 37.9609 10.4854 37.5146C10.0391 37.0683 10.0391 36.3452 10.4854 35.8989L12.1011 34.2832L10.4854 32.6675C10.0391 32.2212 10.0391 31.4981 10.4854 31.0518C10.9317 30.6055 11.6548 30.6055 12.1011 31.0518L13.7168 32.6675L15.3325 31.0518C15.7788 30.6055 16.5019 30.6055 16.9482 31.0518C17.3945 31.4981 17.3945 32.2212 16.9482 32.6675L15.3325 34.2832L16.9482 35.8989Z" fill="#1A1A1A"/>
</svg>
