<svg width="24" height="24" viewBox="0 0 24 24" fill="none" xmlns="http://www.w3.org/2000/svg">
<path d="M19.0083 21C17.0407 21 15.0968 20.5712 13.1764 19.7137C11.256 18.8561 9.5088 17.64 7.93472 16.0653C6.36065 14.4906 5.14483 12.7434 4.28728 10.8236C3.42972 8.90387 3.00063 6.95989 3 4.99167C3 4.70833 3.09444 4.47222 3.28333 4.28333C3.47222 4.09444 3.70833 4 3.99167 4H7.81667C8.03704 4 8.2338 4.07493 8.40694 4.22478C8.58009 4.37463 8.68241 4.55156 8.71389 4.75556L9.32778 8.06111C9.35926 8.31296 9.35139 8.52546 9.30417 8.69861C9.25694 8.87176 9.17037 9.0213 9.04444 9.14722L6.75417 11.4611C7.06898 12.0435 7.44267 12.6061 7.87522 13.1488C8.30778 13.6916 8.78409 14.2151 9.30417 14.7194C9.79213 15.2074 10.3037 15.6601 10.8389 16.0776C11.3741 16.495 11.9407 16.8766 12.5389 17.2222L14.7583 15.0028C14.9 14.8611 15.0851 14.755 15.3137 14.6845C15.5422 14.614 15.7664 14.5941 15.9861 14.625L19.2444 15.2861C19.4648 15.3491 19.6458 15.4634 19.7875 15.6289C19.9292 15.7945 20 15.9793 20 16.1833V20.0083C20 20.2917 19.9056 20.5278 19.7167 20.7167C19.5278 20.9056 19.2917 21 19.0083 21ZM5.85694 9.66667L7.41528 8.10833L7.01389 5.88889H4.9125C4.9912 6.53426 5.10139 7.17176 5.24306 7.80139C5.38472 8.43102 5.58935 9.05278 5.85694 9.66667ZM14.3097 18.1194C14.9236 18.387 15.5495 18.5995 16.1873 18.7569C16.8251 18.9144 17.4664 19.0167 18.1111 19.0639V16.9861L15.8917 16.5375L14.3097 18.1194Z" fill="#1A1A1A"/>
</svg>
