<svg width="25" height="24" viewBox="0 0 25 24" fill="none" xmlns="http://www.w3.org/2000/svg">
<path d="M17.7266 12.5C17.7266 14.2 16.4266 15.5 14.7266 15.5C13.0266 15.5 11.7266 14.2 11.7266 12.5C11.7266 10.8 13.0266 9.5 14.7266 9.5C16.4266 9.5 17.7266 10.8 17.7266 12.5ZM22.7266 7.5V18.5C22.7266 19.6 21.8266 20.5 20.7266 20.5H4.72656C3.62656 20.5 2.72656 19.6 2.72656 18.5V7.5C2.72656 6.4 3.62656 5.5 4.72656 5.5V4.5H8.72656V5.5H10.7266L11.7266 3.5H17.7266L18.7266 5.5H20.7266C21.8266 5.5 22.7266 6.4 22.7266 7.5ZM8.22656 9.5C8.22656 8.7 7.52656 8 6.72656 8C5.92656 8 5.22656 8.7 5.22656 9.5C5.22656 10.3 5.92656 11 6.72656 11C7.52656 11 8.22656 10.3 8.22656 9.5ZM19.7266 12.5C19.7266 9.7 17.5266 7.5 14.7266 7.5C11.9266 7.5 9.72656 9.7 9.72656 12.5C9.72656 15.3 11.9266 17.5 14.7266 17.5C17.5266 17.5 19.7266 15.3 19.7266 12.5Z" fill="#373844"/>
</svg>
