<svg width="48" height="48" viewBox="0 0 48 48" fill="none" xmlns="http://www.w3.org/2000/svg">
<path d="M9 29.8274C9.41421 29.8274 9.75 29.4916 9.75 29.0774C9.75 28.6632 9.41421 28.3274 9 28.3274C8.58579 28.3274 8.25 28.6632 8.25 29.0774C8.25 29.4916 8.58579 29.8274 9 29.8274Z" fill="#1A1A1A"/>
<path d="M24 20.8274C19.451 20.8274 15.75 24.5284 15.75 29.0774C15.75 33.6264 19.451 37.3274 24 37.3274C28.549 37.3274 32.25 33.6264 32.25 29.0774C32.25 24.5284 28.549 20.8274 24 20.8274ZM24.037 28.3276C25.6742 28.3475 27 29.6855 27 31.3274C27 32.6732 26.1092 33.8149 24.8863 34.1938C24.8063 34.2186 24.75 34.2904 24.75 34.3742V35.0517C24.75 35.4512 24.4486 35.7999 24.05 35.8258C23.9475 35.8326 23.8447 35.8183 23.748 35.7838C23.6513 35.7493 23.5626 35.6953 23.4876 35.6251C23.4126 35.555 23.3529 35.4701 23.312 35.3759C23.2711 35.2817 23.25 35.1801 23.25 35.0774V34.3772C23.25 34.2947 23.1978 34.2197 23.1189 34.1954C21.9104 33.8234 21.025 32.7069 21.0005 31.3837C20.9928 30.9665 21.2997 30.5961 21.7166 30.5781C21.8178 30.5736 21.9189 30.5897 22.0137 30.6253C22.1085 30.6609 22.1951 30.7154 22.2683 30.7854C22.3415 30.8554 22.3998 30.9396 22.4396 31.0327C22.4794 31.1259 22.4999 31.2261 22.4999 31.3274C22.4999 32.1783 23.212 32.8659 24.0716 32.8257C24.8347 32.79 25.4626 32.1621 25.4982 31.3991C25.5384 30.5396 24.8508 29.8274 23.9999 29.8274C22.3457 29.8274 20.9999 28.4816 20.9999 26.8274C20.9999 25.4816 21.8907 24.3399 23.1136 23.961C23.1937 23.9361 23.2499 23.8644 23.2499 23.7806V23.1031C23.2499 22.7036 23.5513 22.3549 23.9499 22.329C24.0524 22.3222 24.1552 22.3364 24.2519 22.371C24.3487 22.4055 24.4373 22.4595 24.5123 22.5297C24.5873 22.5998 24.6471 22.6846 24.6879 22.7789C24.7288 22.8731 24.7499 22.9747 24.7499 23.0774V23.7776C24.7499 23.8601 24.8021 23.9351 24.881 23.9594C26.0895 24.3314 26.9749 25.4479 26.9994 26.771C27.0071 27.1883 26.7002 27.5586 26.2833 27.5766C26.1821 27.5811 26.081 27.5651 25.9862 27.5295C25.8914 27.4938 25.8048 27.4394 25.7316 27.3694C25.6584 27.2993 25.6001 27.2152 25.5603 27.1221C25.5205 27.0289 25.5 26.9287 25.5 26.8274C25.5 26.0003 24.8271 25.3274 24 25.3274C23.1676 25.3274 22.4913 26.009 22.5001 26.8435C22.5088 27.6713 23.2091 28.3175 24.037 28.3276Z" fill="#1A1A1A"/>
<path d="M45.75 16.3274H2.25C1.00941 16.3274 0 17.3368 0 18.5774V39.5774C0 40.818 1.00941 41.8274 2.25 41.8274H45.75C46.9906 41.8274 48 40.818 48 39.5774V18.5774C48 17.3367 46.9906 16.3274 45.75 16.3274ZM15.75 38.8274H6C5.58787 38.8274 5.2485 38.495 5.25 38.0828C5.253 37.2515 4.57594 36.5744 3.74456 36.5774C3.33244 36.5789 3 36.2395 3 35.8274V22.3274C3 21.9153 3.33244 21.5759 3.74456 21.5774C4.57594 21.5804 5.253 20.9033 5.25 20.072C5.2485 19.6598 5.58787 19.3274 6 19.3274H15.7243C16.1238 19.3274 16.4725 19.6288 16.4984 20.0274C16.5052 20.1299 16.4909 20.2327 16.4564 20.3294C16.4219 20.4261 16.3679 20.5147 16.2977 20.5897C16.2276 20.6647 16.1427 20.7245 16.0485 20.7654C15.9543 20.8063 15.8527 20.8274 15.75 20.8274H6.86438C6.74325 20.8274 6.63637 20.9052 6.59822 21.0202C6.30047 21.9174 5.58994 22.628 4.69284 22.9256C4.63679 22.9441 4.58798 22.9797 4.55336 23.0275C4.51873 23.0753 4.50006 23.1328 4.5 23.1918V34.9629C4.5 35.084 4.57781 35.1909 4.69284 35.2291C5.59003 35.5268 6.30056 36.2374 6.59822 37.1345C6.61667 37.1905 6.65232 37.2393 6.70011 37.2739C6.74789 37.3085 6.80537 37.3272 6.86438 37.3273H15.7242C16.1237 37.3273 16.4724 37.6287 16.4983 38.0273C16.5052 38.1298 16.4909 38.2326 16.4564 38.3293C16.4219 38.4261 16.3679 38.5147 16.2977 38.5897C16.2276 38.6647 16.1428 38.7245 16.0485 38.7654C15.9543 38.8063 15.8527 38.8274 15.75 38.8274ZM11.25 29.0774C11.25 30.318 10.2406 31.3274 9 31.3274C7.75941 31.3274 6.75 30.318 6.75 29.0774C6.75 27.8368 7.75941 26.8274 9 26.8274C10.2406 26.8274 11.25 27.8367 11.25 29.0774ZM24 38.8274C18.6238 38.8274 14.25 34.4536 14.25 29.0774C14.25 23.7012 18.6238 19.3274 24 19.3274C29.3762 19.3274 33.75 23.7012 33.75 29.0774C33.75 34.4536 29.3762 38.8274 24 38.8274ZM45 35.8274C45 36.2395 44.6676 36.5789 44.2554 36.5774C43.4241 36.5744 42.747 37.2515 42.75 38.0828C42.7515 38.495 42.4121 38.8274 42 38.8274H32.2757C31.8762 38.8274 31.5275 38.526 31.5016 38.1274C31.4948 38.0249 31.5091 37.9221 31.5436 37.8254C31.5781 37.7286 31.6321 37.64 31.7023 37.565C31.7724 37.49 31.8573 37.4302 31.9515 37.3894C32.0457 37.3485 32.1473 37.3274 32.25 37.3274H41.1356C41.2567 37.3274 41.3636 37.2496 41.4018 37.1346C41.6995 36.2374 42.4101 35.5268 43.3072 35.2292C43.3632 35.2107 43.412 35.1751 43.4466 35.1273C43.4812 35.0795 43.4999 35.022 43.5 34.963V23.1918C43.5 23.0706 43.4222 22.9638 43.3072 22.9256C42.41 22.6279 41.6994 21.9173 41.4018 21.0202C41.3833 20.9642 41.3477 20.9154 41.2999 20.8808C41.2521 20.8461 41.1946 20.8275 41.1356 20.8274H32.2758C31.8763 20.8274 31.5276 20.526 31.5017 20.1274C31.4949 20.0249 31.5091 19.9221 31.5437 19.8254C31.5782 19.7286 31.6322 19.64 31.7024 19.565C31.7725 19.49 31.8573 19.4302 31.9516 19.3894C32.0458 19.3485 32.1474 19.3274 32.2501 19.3274H42.0001C42.4122 19.3274 42.7516 19.6598 42.7501 20.072C42.7471 20.9033 43.4242 21.5804 44.2555 21.5774C44.6677 21.5759 45.0001 21.9153 45.0001 22.3274V35.8274H45ZM36.75 29.0774C36.75 27.8368 37.7594 26.8274 39 26.8274C40.2406 26.8274 41.25 27.8368 41.25 29.0774C41.25 30.318 40.2406 31.3274 39 31.3274C37.7594 31.3274 36.75 30.318 36.75 29.0774Z" fill="#1A1A1A"/>
<path d="M39 29.8274C39.4142 29.8274 39.75 29.4916 39.75 29.0774C39.75 28.6632 39.4142 28.3274 39 28.3274C38.5858 28.3274 38.25 28.6632 38.25 29.0774C38.25 29.4916 38.5858 29.8274 39 29.8274Z" fill="#1A1A1A"/>
<path d="M45.1827 12.4921C45.0282 11.2521 43.892 10.3701 42.6384 10.543L13.9877 14.6408C13.8725 14.6573 13.8846 14.8274 14.001 14.8274H45.262C45.2885 14.8274 45.3148 14.8218 45.3391 14.8108C45.3633 14.7999 45.3849 14.7839 45.4025 14.764C45.4201 14.7441 45.4333 14.7206 45.4411 14.6952C45.449 14.6698 45.4513 14.643 45.448 14.6166L45.1827 12.4921ZM40.9822 9.26455C41.0081 9.26083 41.033 9.2517 41.0552 9.23774C41.0773 9.22379 41.0963 9.20532 41.1109 9.18354C41.1255 9.16176 41.1353 9.13716 41.1397 9.11133C41.1442 9.08551 41.1431 9.05904 41.1367 9.03364L40.8476 7.87677C40.5439 6.65792 39.3012 5.92124 38.0726 6.25208L14.4962 12.8641C14.3835 12.8957 14.4183 13.0638 14.5342 13.0472C20.4588 12.2 36.6199 9.88911 40.9822 9.26455Z" fill="#1A1A1A"/>
</svg>
