<svg width="24" height="24" viewBox="0 0 24 24" fill="none" xmlns="http://www.w3.org/2000/svg">
<path d="M4.65625 6.41504C4.6563 6.37984 4.66753 6.34491 4.68945 6.31738C4.70038 6.30369 4.7139 6.29242 4.72852 6.2832L4.77637 6.2627L15.6465 3.75391C15.6577 3.75132 15.6692 3.75005 15.6807 3.75L15.7158 3.75391C15.7273 3.75652 15.7384 3.76052 15.749 3.76562L15.7783 3.78418C15.7965 3.79868 15.8111 3.81697 15.8213 3.83789C15.8315 3.85902 15.8369 3.8828 15.8369 3.90625V20.25H12.8086V18.2822C12.8085 17.8432 12.6337 17.4218 12.3232 17.1113C12.0127 16.8009 11.5914 16.627 11.1523 16.627H9.34082C8.90178 16.627 8.48043 16.8009 8.16992 17.1113C7.85948 17.4218 7.68466 17.8432 7.68457 18.2822V20.25H4.65625V6.41504Z" stroke="#373844" stroke-width="1.5"/>
<path d="M19.374 8.00635C19.387 8.01282 19.3996 8.02108 19.4102 8.03076L19.4375 8.06396C19.4527 8.08856 19.4609 8.11707 19.4609 8.146V20.2495H18.2432V7.44092L19.374 8.00635ZM10.4023 19.0327V20.2495H10.0908V19.0327H10.4023Z" stroke="#373844" stroke-width="1.5"/>
<path d="M6.92795 8.12814C7.00999 8.04609 7.12127 8 7.2373 8H8.1123C8.22834 8 8.33962 8.04609 8.42166 8.12814C8.50371 8.21019 8.5498 8.32147 8.5498 8.4375V9.3125C8.5498 9.42853 8.50371 9.53981 8.42166 9.62186C8.33962 9.70391 8.22834 9.75 8.1123 9.75H7.2373C7.12127 9.75 7.00999 9.70391 6.92795 9.62186C6.8459 9.53981 6.7998 9.42853 6.7998 9.3125V8.4375C6.7998 8.32147 6.8459 8.21019 6.92795 8.12814Z" fill="#373844"/>
<path d="M6.92795 10.7531C6.8459 10.8352 6.7998 10.9465 6.7998 11.0625V11.9375C6.7998 12.0535 6.8459 12.1648 6.92795 12.2469C7.00999 12.3289 7.12127 12.375 7.2373 12.375H8.1123C8.22834 12.375 8.33962 12.3289 8.42166 12.2469C8.50371 12.1648 8.5498 12.0535 8.5498 11.9375V11.0625C8.5498 10.9465 8.50371 10.8352 8.42166 10.7531C8.33962 10.6711 8.22834 10.625 8.1123 10.625H7.2373C7.12127 10.625 7.00999 10.6711 6.92795 10.7531Z" fill="#373844"/>
<path d="M6.92795 13.3781C7.00999 13.2961 7.12127 13.25 7.2373 13.25H8.1123C8.22834 13.25 8.33962 13.2961 8.42166 13.3781C8.50371 13.4602 8.5498 13.5715 8.5498 13.6875V14.5625C8.5498 14.6785 8.50371 14.7898 8.42166 14.8719C8.33962 14.9539 8.22834 15 8.1123 15H7.2373C7.12127 15 7.00999 14.9539 6.92795 14.8719C6.8459 14.7898 6.7998 14.6785 6.7998 14.5625V13.6875C6.7998 13.5715 6.8459 13.4602 6.92795 13.3781Z" fill="#373844"/>
<path d="M9.55294 8.12814C9.4709 8.21019 9.4248 8.32147 9.4248 8.4375V9.3125C9.4248 9.42853 9.4709 9.53981 9.55294 9.62186C9.63499 9.70391 9.74627 9.75 9.8623 9.75H10.7373C10.8533 9.75 10.9646 9.70391 11.0467 9.62186C11.1287 9.53981 11.1748 9.42853 11.1748 9.3125V8.4375C11.1748 8.32147 11.1287 8.21019 11.0467 8.12814C10.9646 8.04609 10.8533 8 10.7373 8H9.8623C9.74627 8 9.63499 8.04609 9.55294 8.12814Z" fill="#373844"/>
<path d="M9.55294 10.7531C9.63499 10.6711 9.74627 10.625 9.8623 10.625H10.7373C10.8533 10.625 10.9646 10.6711 11.0467 10.7531C11.1287 10.8352 11.1748 10.9465 11.1748 11.0625V11.9375C11.1748 12.0535 11.1287 12.1648 11.0467 12.2469C10.9646 12.3289 10.8533 12.375 10.7373 12.375H9.8623C9.74627 12.375 9.63499 12.3289 9.55294 12.2469C9.4709 12.1648 9.4248 12.0535 9.4248 11.9375V11.0625C9.4248 10.9465 9.4709 10.8352 9.55294 10.7531Z" fill="#373844"/>
<path d="M9.55294 13.3781C9.4709 13.4602 9.4248 13.5715 9.4248 13.6875V14.5625C9.4248 14.6785 9.4709 14.7898 9.55294 14.8719C9.63499 14.9539 9.74627 15 9.8623 15H10.7373C10.8533 15 10.9646 14.9539 11.0467 14.8719C11.1287 14.7898 11.1748 14.6785 11.1748 14.5625V13.6875C11.1748 13.5715 11.1287 13.4602 11.0467 13.3781C10.9646 13.2961 10.8533 13.25 10.7373 13.25H9.8623C9.74627 13.25 9.63499 13.2961 9.55294 13.3781Z" fill="#373844"/>
<path d="M12.1779 8.12814C12.26 8.04609 12.3713 8 12.4873 8H13.3623C13.4783 8 13.5896 8.04609 13.6717 8.12814C13.7537 8.21019 13.7998 8.32147 13.7998 8.4375V9.3125C13.7998 9.42853 13.7537 9.53981 13.6717 9.62186C13.5896 9.70391 13.4783 9.75 13.3623 9.75H12.4873C12.3713 9.75 12.26 9.70391 12.1779 9.62186C12.0959 9.53981 12.0498 9.42853 12.0498 9.3125V8.4375C12.0498 8.32147 12.0959 8.21019 12.1779 8.12814Z" fill="#373844"/>
<path d="M12.1779 10.7531C12.0959 10.8352 12.0498 10.9465 12.0498 11.0625V11.9375C12.0498 12.0535 12.0959 12.1648 12.1779 12.2469C12.26 12.3289 12.3713 12.375 12.4873 12.375H13.3623C13.4783 12.375 13.5896 12.3289 13.6717 12.2469C13.7537 12.1648 13.7998 12.0535 13.7998 11.9375V11.0625C13.7998 10.9465 13.7537 10.8352 13.6717 10.7531C13.5896 10.6711 13.4783 10.625 13.3623 10.625H12.4873C12.3713 10.625 12.26 10.6711 12.1779 10.7531Z" fill="#373844"/>
<path d="M12.1779 13.3781C12.26 13.2961 12.3713 13.25 12.4873 13.25H13.3623C13.4783 13.25 13.5896 13.2961 13.6717 13.3781C13.7537 13.4602 13.7998 13.5715 13.7998 13.6875V14.5625C13.7998 14.6785 13.7537 14.7898 13.6717 14.8719C13.5896 14.9539 13.4783 15 13.3623 15H12.4873C12.3713 15 12.26 14.9539 12.1779 14.8719C12.0959 14.7898 12.0498 14.6785 12.0498 14.5625V13.6875C12.0498 13.5715 12.0959 13.4602 12.1779 13.3781Z" fill="#373844"/>
</svg>
