<svg width="24" height="24" viewBox="0 0 24 24" fill="none" xmlns="http://www.w3.org/2000/svg">
<path d="M12.5 4C10.8189 4 9.17547 4.49852 7.77766 5.43251C6.37984 6.3665 5.29037 7.69402 4.64703 9.24719C4.00368 10.8004 3.83535 12.5094 4.16333 14.1583C4.4913 15.8071 5.30085 17.3217 6.4896 18.5104C7.67834 19.6992 9.1929 20.5087 10.8417 20.8367C12.4906 21.1646 14.1996 20.9963 15.7528 20.353C17.306 19.7096 18.6335 18.6202 19.5675 17.2223C20.5015 15.8245 21 14.1811 21 12.5C20.9977 10.2464 20.1014 8.0857 18.5079 6.49214C16.9143 4.89858 14.7536 4.00231 12.5 4ZM17.0682 9.88461L11.9856 15.9872C11.9271 16.0561 11.8552 16.1125 11.7743 16.1529C11.6934 16.1934 11.6052 16.2171 11.5149 16.2226C11.4201 16.2206 11.3269 16.1987 11.2412 16.1581C11.1556 16.1175 11.0795 16.0593 11.018 15.9872L7.96667 12.9359C7.85117 12.8119 7.7883 12.648 7.79129 12.4786C7.79428 12.3092 7.8629 12.1476 7.98269 12.0278C8.10249 11.908 8.26411 11.8394 8.4335 11.8364C8.60289 11.8334 8.76682 11.8963 8.89077 12.0118L11.4364 14.5574L16.0656 9.01282C16.1229 8.94699 16.1925 8.89308 16.2706 8.85417C16.3487 8.81526 16.4337 8.7921 16.5207 8.78603C16.6077 8.77996 16.6951 8.79109 16.7778 8.81878C16.8605 8.84648 16.937 8.89019 17.0028 8.94743C17.0687 9.00468 17.1226 9.07433 17.1615 9.1524C17.2004 9.23048 17.2235 9.31546 17.2296 9.40248C17.2357 9.48951 17.2246 9.57688 17.1969 9.6596C17.1692 9.74233 17.1254 9.81878 17.0682 9.88461Z" fill="#373844"/>
</svg>
