<svg width="36" height="36" viewBox="0 0 36 36" fill="none" xmlns="http://www.w3.org/2000/svg">
<path d="M25.2204 17.9502C25.5246 17.9502 25.7712 18.1968 25.7712 18.5009C25.7712 18.8051 25.5246 19.0517 25.2204 19.0517H19.7128C19.4086 19.0517 19.162 18.8051 19.162 18.5009C19.162 18.1968 19.4086 17.9502 19.7128 17.9502H25.2204Z" fill="#1A1A1A"/>
<path fill-rule="evenodd" clip-rule="evenodd" d="M9.27448 4H27.7277C29.126 4 30.467 4.55548 31.4558 5.54423C32.4445 6.53299 33 7.87402 33 9.27234V31.6798C33.0006 31.9319 32.9289 32.1789 32.7934 32.3915C32.6579 32.6041 32.4643 32.7733 32.2355 32.8792C32.061 32.9561 31.8726 32.9965 31.6819 32.9978C31.3678 32.9979 31.0639 32.8857 30.8252 32.6815L27.0686 29.4654L23.3121 32.6815C23.0733 32.8857 22.7695 32.9979 22.4553 32.9979C22.1412 32.9979 21.8373 32.8857 21.5986 32.6815L17.842 29.4654L14.0855 32.6815C13.894 32.8461 13.6593 32.9522 13.4093 32.9872C13.1593 33.0223 12.9045 32.9848 12.6751 32.8792C12.4463 32.7733 12.2527 32.6041 12.1172 32.3915C11.9817 32.1789 11.91 31.9319 11.9107 31.6798V9.27234C11.9308 9.09717 11.9308 8.92027 11.9107 8.7451C11.8052 7.75424 11.4211 6.81355 10.8029 6.03205C10.1847 5.25054 9.35771 4.66023 8.41773 4.32952C8.65461 4.12057 8.95864 4.00364 9.27448 4ZM17.5097 18.5009C17.5097 15.7632 19.729 13.544 22.4666 13.544C25.2042 13.544 27.4235 15.7632 27.4235 18.5009C27.4235 21.2385 25.2042 23.4578 22.4666 23.4578C19.729 23.4578 17.5097 21.2385 17.5097 18.5009Z" fill="#1A1A1A"/>
<path d="M9.27448 19.817V9.27234C9.3444 8.57318 9.13371 7.87489 8.68877 7.33107C8.24384 6.78726 7.60109 6.44247 6.90193 6.37255C6.20278 6.30264 5.50449 6.51332 4.96067 6.95826C4.41685 7.4032 4.07207 8.04595 4.00215 8.7451V18.4989C4.00215 18.8485 4.14102 19.1838 4.38821 19.431C4.6354 19.6781 4.97066 19.817 5.32023 19.817H9.27448Z" fill="#1A1A1A"/>
</svg>
