<svg width="18" height="18" viewBox="0 0 18 18" fill="none" xmlns="http://www.w3.org/2000/svg">
<path d="M12.6102 8.97509C12.7623 8.97509 12.8856 9.09838 12.8856 9.25047C12.8856 9.40256 12.7623 9.52585 12.6102 9.52585H9.85638C9.70429 9.52585 9.581 9.40256 9.581 9.25047C9.581 9.09838 9.70429 8.97509 9.85638 8.97509H12.6102Z" fill="#1A1A1A"/>
<path fill-rule="evenodd" clip-rule="evenodd" d="M4.63724 2H13.8638C14.563 2 15.2335 2.27774 15.7279 2.77212C16.2223 3.26649 16.5 3.93701 16.5 4.63617V15.8399C16.5003 15.9659 16.4645 16.0894 16.3967 16.1957C16.329 16.302 16.2321 16.3867 16.1178 16.4396C16.0305 16.4781 15.9363 16.4982 15.841 16.4989C15.6839 16.4989 15.532 16.4428 15.4126 16.3408L13.5343 14.7327L11.656 16.3408C11.5367 16.4429 11.3847 16.499 11.2277 16.499C11.0706 16.499 10.9187 16.4429 10.7993 16.3408L8.92102 14.7327L7.04275 16.3408C6.94702 16.423 6.82967 16.4761 6.70466 16.4936C6.57965 16.5111 6.45224 16.4924 6.33757 16.4396C6.22317 16.3867 6.12636 16.302 6.05861 16.1957C5.99086 16.0894 5.95502 15.9659 5.95533 15.8399V4.63617C5.9654 4.54858 5.9654 4.46013 5.95533 4.37255C5.9026 3.87712 5.71056 3.40677 5.40146 3.01602C5.09236 2.62527 4.67885 2.33011 4.20887 2.16476C4.3273 2.06029 4.47932 2.00182 4.63724 2ZM8.75485 9.25043C8.75485 7.88162 9.86449 6.77198 11.2333 6.77198C12.6021 6.77198 13.7117 7.88162 13.7117 9.25043C13.7117 10.6192 12.6021 11.7289 11.2333 11.7289C9.86449 11.7289 8.75485 10.6192 8.75485 9.25043Z" fill="#1A1A1A"/>
<path d="M4.63724 9.9085V4.63617C4.6722 4.28659 4.56686 3.93744 4.34439 3.66554C4.12192 3.39363 3.80054 3.22123 3.45097 3.18628C3.10139 3.15132 2.75224 3.25666 2.48034 3.47913C2.20843 3.7016 2.03603 4.02297 2.00107 4.37255V9.24946C2.00107 9.42425 2.07051 9.59188 2.1941 9.71548C2.3177 9.83907 2.48533 9.9085 2.66012 9.9085H4.63724Z" fill="#1A1A1A"/>
</svg>
