<svg width="24" height="24" viewBox="0 0 24 24" fill="none" xmlns="http://www.w3.org/2000/svg">
<path fill-rule="evenodd" clip-rule="evenodd" d="M5.77799 13.4815C9.82734 14.1838 13.8768 14.1602 17.9261 13.4815V7.85188C17.9261 7.78773 17.9053 7.72537 17.8669 7.6741L15.2002 4.11854C15.1726 4.08175 15.1368 4.05188 15.0957 4.03131C15.0546 4.01073 15.0092 4.00001 14.9632 4H6.66688C6.43113 4.00002 6.20505 4.09368 6.03836 4.26037C5.87166 4.42707 5.77801 4.65315 5.77799 4.88889V11.7038C5.77799 12.1438 5.6748 12.5168 5.6748 12.8141C5.6748 13.2251 5.77799 13.4815 5.77799 13.4815Z" fill="#D8DFE3"/>
<path fill-rule="evenodd" clip-rule="evenodd" d="M4 12.7134V19.1111C4.00002 19.3468 4.09368 19.5729 4.26037 19.7396C4.42707 19.9063 4.65315 20 4.88889 20H18.5185C18.7543 19.9999 18.9803 19.9063 19.147 19.7396C19.3137 19.5729 19.4074 19.3468 19.4074 19.1111V14.3704C19.4074 14.1347 19.3138 13.9086 19.1471 13.7419C18.9804 13.5752 18.7543 13.4815 18.5185 13.4815H5.18521C4.80718 13.4815 4 12.7134 4 12.7134Z" fill="#1FB35B"/>
<path fill-rule="evenodd" clip-rule="evenodd" d="M4.88889 13.4816C4.61838 13.4816 4.42091 13.3719 4.27556 13.2368C4.13881 13.1097 4 12.8856 4 12.5927C4 12.4048 4.09365 12.1309 4.26034 11.9642C4.42702 11.7975 4.65316 11.7039 4.88889 11.7039H5.77778V13.4816H4.88889Z" fill="#198043"/>
<path fill-rule="evenodd" clip-rule="evenodd" d="M14.9629 4V6.96299C14.9629 7.19873 15.0566 7.42481 15.2233 7.59151C15.39 7.7582 15.616 7.85186 15.8518 7.85188H17.9258C17.9258 7.78773 17.905 7.72537 17.8666 7.6741L15.1999 4.11854C15.1723 4.08175 15.1365 4.05188 15.0954 4.03131C15.0542 4.01073 15.0089 4.00001 14.9629 4Z" fill="#AFBDC7"/>
<path fill-rule="evenodd" clip-rule="evenodd" d="M8.44427 8.1483H12.2961C12.4596 8.1483 12.5924 8.01554 12.5924 7.85198C12.5924 7.68843 12.4596 7.55566 12.2961 7.55566H8.44427C8.28071 7.55566 8.14795 7.68843 8.14795 7.85198C8.14795 8.01554 8.28071 8.1483 8.44427 8.1483ZM8.44427 9.92608H15.2591C15.4226 9.92608 15.5554 9.79332 15.5554 9.62976C15.5554 9.46621 15.4226 9.33344 15.2591 9.33344H8.44427C8.28071 9.33344 8.14795 9.46621 8.14795 9.62976C8.14795 9.79332 8.28071 9.92608 8.44427 9.92608ZM8.44427 11.7039H15.2591C15.4226 11.7039 15.5554 11.5711 15.5554 11.4075C15.5554 11.244 15.4226 11.1112 15.2591 11.1112H8.44427C8.28071 11.1112 8.14795 11.244 8.14795 11.4075C8.14795 11.5711 8.28071 11.7039 8.44427 11.7039Z" fill="#1FB35B"/>
<path fill-rule="evenodd" clip-rule="evenodd" d="M13.3543 15.3693L14.5395 18.3323C14.5615 18.3873 14.5994 18.4345 14.6485 18.4677C14.6975 18.5009 14.7554 18.5187 14.8146 18.5187C14.8739 18.5187 14.9317 18.5009 14.9808 18.4677C15.0298 18.4345 15.0678 18.3873 15.0897 18.3323L16.2749 15.3693C16.3041 15.2963 16.3031 15.2147 16.2721 15.1425C16.2411 15.0703 16.1828 15.0133 16.1098 14.9841C16.0368 14.955 15.9553 14.956 15.8831 14.987C15.8109 15.0179 15.7539 15.0762 15.7247 15.1492L14.8146 17.4244L13.9045 15.1492C13.8438 14.9974 13.6712 14.9234 13.5194 14.9841C13.3676 15.0449 13.2936 15.2174 13.3543 15.3693ZM8.76161 14.9629H8.5923C7.77409 14.9629 7.11084 15.6262 7.11084 16.4444V17.037C7.11084 17.8552 7.77409 18.5185 8.5923 18.5185H8.76161C9.02043 18.5185 9.27381 18.4441 9.49157 18.3042C9.70933 18.1644 9.88231 17.9648 9.98992 17.7294C10.0206 17.6625 10.0266 17.6498 10.0463 17.6061C10.0789 17.5379 10.0838 17.4597 10.0601 17.3879C10.0364 17.3161 9.98583 17.2562 9.91902 17.2208C9.73328 17.1274 9.56474 17.2309 9.50736 17.3597C9.48993 17.3989 9.45096 17.4831 9.45096 17.4831C9.39056 17.6152 9.29348 17.7272 9.17127 17.8057C9.04906 17.8842 8.90686 17.9259 8.76161 17.9259H8.5923C8.10135 17.9259 7.70341 17.5279 7.70341 17.037V16.4444C7.70341 15.9535 8.10135 15.5555 8.5923 15.5555H8.76161C8.90686 15.5555 9.04906 15.5973 9.17127 15.6758C9.29348 15.7543 9.39056 15.8662 9.45096 15.9983C9.45096 15.9983 9.48709 16.0792 9.50736 16.1217C9.59639 16.3083 9.80688 16.3348 9.94 16.2483C10.0335 16.1875 10.1218 16.0405 10.0463 15.8753L9.98992 15.752C9.88231 15.5166 9.70933 15.3171 9.49157 15.1772C9.27381 15.0373 9.02043 14.9629 8.76161 14.9629ZM10.5183 17.4833V17.6302C10.5184 17.8658 10.6119 18.0917 10.7785 18.2583C10.9451 18.4249 11.171 18.5185 11.4066 18.5185H12.0745C12.1911 18.5185 12.3066 18.4955 12.4144 18.4509C12.5222 18.4063 12.6201 18.3408 12.7026 18.2583C12.7851 18.1758 12.8505 18.0779 12.8952 17.9701C12.9398 17.8624 12.9628 17.7468 12.9628 17.6302V17.5123C12.9628 17.1488 12.7415 16.822 12.404 16.687L11.3266 16.256C11.2629 16.2306 11.2083 16.1866 11.1699 16.1298C11.1315 16.073 11.1109 16.006 11.1109 15.9374V15.8518C11.1109 15.7733 11.1421 15.6979 11.1977 15.6423C11.2532 15.5868 11.3286 15.5555 11.4072 15.5555H12.0739C12.1128 15.5555 12.1514 15.5631 12.1873 15.578C12.2233 15.5929 12.2559 15.6147 12.2834 15.6423C12.311 15.6698 12.3328 15.7025 12.3477 15.7384C12.3625 15.7744 12.3702 15.8129 12.3701 15.8518V15.9982C12.3701 16.0818 12.4071 16.1575 12.4443 16.1959C12.4722 16.2273 12.5064 16.2525 12.5447 16.2698C12.5829 16.2871 12.6245 16.2961 12.6665 16.2963C12.8107 16.2963 12.9628 16.1849 12.9628 15.9982V15.8518C12.9628 15.6161 12.8691 15.39 12.7024 15.2233C12.5357 15.0566 12.3096 14.963 12.0739 14.9629H11.4072C11.1715 14.9629 10.9454 15.0566 10.7787 15.2233C10.612 15.39 10.5183 15.6161 10.5183 15.8518V15.9374C10.5183 16.32 10.7513 16.6641 11.1065 16.8062L12.1839 17.2372C12.2389 17.2592 12.286 17.2971 12.3192 17.3462C12.3524 17.3952 12.3702 17.4531 12.3701 17.5123V17.6302C12.3701 17.7086 12.339 17.7838 12.2835 17.8393C12.2281 17.8947 12.1529 17.9259 12.0745 17.9259H11.4066C11.3678 17.9259 11.3293 17.9183 11.2934 17.9034C11.2576 17.8886 11.225 17.8668 11.1975 17.8393C11.17 17.8119 11.1483 17.7793 11.1334 17.7434C11.1185 17.7075 11.1109 17.6691 11.1109 17.6302V17.4833C11.1109 17.2878 10.9516 17.185 10.8198 17.185C10.6948 17.185 10.5183 17.2819 10.5183 17.4815V17.4833Z" fill="#D8DFE3"/>
</svg>
