<svg width="15" height="19" viewBox="0 0 15 19" fill="none" xmlns="http://www.w3.org/2000/svg">
<path d="M13.7305 0C14.2771 9.06968e-05 14.7236 0.439377 14.7236 0.976562V18.0176C14.7234 18.5579 14.2735 19 13.7236 19H3.39062C1.92063 19 0.723633 17.8236 0.723633 16.3789V1.625C0.723633 0.730694 1.46696 6.98181e-06 2.37695 0H13.7305ZM3.39062 14.4141C2.28743 14.4141 1.39085 15.2948 1.39062 16.3789C1.39062 17.4632 2.28729 18.3447 3.39062 18.3447H13.7236C13.9069 18.3447 14.0565 18.1976 14.0566 18.0176V17.6895H3.39062C2.65396 17.6895 2.05664 17.1029 2.05664 16.3789C2.05686 15.6551 2.6541 15.0693 3.39062 15.0693H14.0566V14.4141H3.39062ZM3.39062 15.7246C3.0241 15.7246 2.72386 16.0187 2.72363 16.3789C2.72363 16.7393 3.02396 17.0342 3.39062 17.0342H14.0566V15.7246H3.39062ZM2.37695 0.655273C1.83363 0.65528 1.39062 1.09104 1.39062 1.625V14.6494C1.74364 14.2567 2.20768 13.9761 2.72363 13.8438V0.655273H2.37695ZM3.39062 0.655273V13.7588H14.0566V0.976562C14.0566 0.799721 13.9104 0.655364 13.7305 0.655273H3.39062ZM8.83496 3.16699C11.0439 3.1671 12.8348 4.92684 12.835 7.09766C12.8348 9.26853 11.0439 11.0292 8.83496 11.0293C6.6259 11.0293 4.8351 9.26859 4.83496 7.09766C4.83516 4.92678 6.62595 3.16699 8.83496 3.16699ZM7.84277 5.31152C7.814 5.31152 7.78998 5.32059 7.77148 5.33887C7.75316 5.3571 7.74414 5.38089 7.74414 5.40918V5.81348C7.7442 5.83977 7.75397 5.86358 7.77344 5.88281C7.79286 5.90177 7.81629 5.91113 7.84277 5.91113H8.29004C8.72332 5.91124 8.99913 6.02652 9.11621 6.25586H7.84277C7.814 6.25586 7.78998 6.26493 7.77148 6.2832C7.7533 6.30134 7.74422 6.32446 7.74414 6.35254V6.66406C7.74429 6.69202 7.75333 6.71532 7.77148 6.7334C7.78995 6.75152 7.81412 6.76074 7.84277 6.76074H9.15918C9.11395 6.92714 9.00811 7.05432 8.84277 7.1416C8.6774 7.22886 8.45862 7.27244 8.1875 7.27246H7.84277C7.81606 7.27246 7.79296 7.28247 7.77344 7.30176C7.75395 7.32102 7.74416 7.34376 7.74414 7.37012V7.75684C7.7442 7.7831 7.75308 7.80601 7.77148 7.82422C8.16602 8.23842 8.67792 8.81843 9.30664 9.56348C9.32508 9.58757 9.35115 9.59956 9.38379 9.59961H9.98535C10.0281 9.59947 10.0578 9.58115 10.0742 9.54492C10.0947 9.50855 10.0909 9.47375 10.0625 9.44141C9.46256 8.71465 8.99063 8.17002 8.64746 7.80859C8.99662 7.76794 9.2803 7.6563 9.49805 7.47363C9.71579 7.29094 9.84822 7.05301 9.89551 6.76074H10.4131C10.4418 6.7607 10.4659 6.75162 10.4844 6.7334C10.5027 6.71529 10.5116 6.69212 10.5117 6.66406V6.35254C10.5116 6.32447 10.5025 6.30134 10.4844 6.2832C10.4659 6.26497 10.4418 6.2559 10.4131 6.25586H9.88672C9.85181 6.08744 9.78593 5.94021 9.68945 5.81641H10.4072C10.4359 5.81636 10.4601 5.80728 10.4785 5.78906C10.4967 5.77096 10.5057 5.74774 10.5059 5.71973V5.40918C10.5059 5.38098 10.4967 5.35708 10.4785 5.33887C10.4601 5.32064 10.4359 5.31157 10.4072 5.31152H7.84277Z" fill="#373844"/>
</svg>
