<svg width="24" height="24" viewBox="0 0 24 24" fill="none" xmlns="http://www.w3.org/2000/svg">
<path fill-rule="evenodd" clip-rule="evenodd" d="M6.8 18.4H18C18.2122 18.4 18.4157 18.4843 18.5657 18.6343C18.7157 18.7843 18.8 18.9878 18.8 19.2C18.8 19.4122 18.7157 19.6157 18.5657 19.7657C18.4157 19.9157 18.2122 20 18 20H6.8C6.58783 20 6.38434 19.9157 6.23431 19.7657C6.08429 19.6157 6 19.4122 6 19.2C6 18.9878 6.08429 18.7843 6.23431 18.6343C6.38434 18.4843 6.58783 18.4 6.8 18.4ZM6 14.4L14 6.4L16.4 8.8L8.4 16.8H6V14.4ZM14.8 5.6L16.4 4L18.8 6.4L17.1992 8.0008L14.8 5.6Z" fill="#1A1A1A"/>
</svg>
