<svg width="24" height="24" viewBox="0 0 24 24" fill="none" xmlns="http://www.w3.org/2000/svg">
<path fill-rule="evenodd" clip-rule="evenodd" d="M19.3226 5.36571H13.5268V4L4 5.47041V18.3591L13.5268 20V17.9758H19.3226C19.4982 17.985 19.6703 17.9241 19.801 17.8065C19.9318 17.6889 20.0106 17.5243 20.02 17.3487V5.9922C20.0104 5.81671 19.9316 5.6522 19.8008 5.53475C19.6701 5.4173 19.4981 5.35651 19.3226 5.36571ZM19.4141 17.4528H13.5073L13.4976 16.372H14.9205V15.1133H13.4867L13.4798 14.3695H14.9205V13.1108H13.469L13.4621 12.367H14.9205V11.1083H13.4575V10.3645H14.9205V9.10581H13.4575V8.36202H14.9205V7.10331H13.4575V5.95902H19.4141V17.4528Z" fill="#20744A"/>
<path d="M15.7217 7.10181H18.1951V8.36052H15.7217V7.10181ZM15.7217 9.10488H18.1951V10.3636H15.7217V9.10488ZM15.7217 11.108H18.1951V12.3667H15.7217V11.108ZM15.7217 13.111H18.1951V14.3697H15.7217V13.111ZM15.7217 15.1141H18.1951V16.3728H15.7217V15.1141Z" fill="#20744A"/>
<path fill-rule="evenodd" clip-rule="evenodd" d="M6.48711 8.95216L7.71493 8.88179L8.48675 11.0039L9.39875 8.79425L10.6266 8.72388L9.13556 11.7368L10.6266 14.7571L9.32838 14.6696L8.45185 12.3673L7.57476 14.5821L6.38184 14.4768L7.76757 11.8089L6.48711 8.95216Z" fill="white"/>
</svg>
