<svg width="20" height="19" viewBox="0 0 20 19" fill="none" xmlns="http://www.w3.org/2000/svg">
<path d="M8.9248 1.60255C9.37627 1.20686 9.99364 1.11357 10.5361 1.35938C11.1003 1.61533 11.4512 2.16829 11.4512 2.80176V3.80079L11.9453 3.55469C12.42 3.29548 12.9931 3.30559 13.4678 3.58692C13.9322 3.86302 14.2088 4.34696 14.209 4.88184V6.74024H16.0488C17.2317 6.74047 18.1943 7.70313 18.1943 8.88575V10.7246C19.039 10.7249 19.7264 11.4121 19.7266 12.2568V13.4834C19.7264 14.3281 19.039 15.0154 18.1943 15.0156V16.8545C18.1943 18.0371 17.2317 18.9998 16.0488 19H2.86914C1.68607 19 0.723633 18.0373 0.723633 16.8545V8.88575C0.723636 7.70299 1.68607 6.74024 2.86914 6.74024H3.06055L8.9248 1.60255ZM2.86914 7.35352C2.02414 7.35352 1.33692 8.04074 1.33691 8.88575V16.8545C1.33691 17.6995 2.02413 18.3867 2.86914 18.3867H16.0488C16.8936 18.3865 17.5811 17.6994 17.5811 16.8545V15.0156H14.5156C12.9834 15.0154 12.9834 13.4006 12.9834 12.8701C12.9834 12.3396 12.9835 10.7248 14.5156 10.7246H17.5811V8.88575C17.5811 8.04089 16.8936 7.35376 16.0488 7.35352H2.86914ZM7.16016 9.70313C8.96562 9.70327 10.4287 11.1672 10.4287 12.9727C10.4285 14.778 8.96547 16.2411 7.16016 16.2412C5.35479 16.2411 3.89086 14.778 3.89062 12.9727C3.89062 11.1671 5.35464 9.7032 7.16016 9.70313ZM6.34863 11.4863C6.32541 11.4864 6.30601 11.4938 6.29102 11.5088C6.27602 11.524 6.26856 11.5439 6.26855 11.5674V11.9043C6.2686 11.926 6.27628 11.945 6.29199 11.9609C6.30784 11.9769 6.32698 11.9853 6.34863 11.9854H6.71387C7.06826 11.9854 7.29391 12.0807 7.38965 12.2715H6.34863C6.32543 12.2716 6.30601 12.279 6.29102 12.294C6.27604 12.3091 6.26858 12.329 6.26855 12.3525V12.6113C6.26866 12.6347 6.2761 12.6539 6.29102 12.669C6.30604 12.684 6.32532 12.6923 6.34863 12.6924H7.4248C7.38778 12.8306 7.30107 12.9363 7.16602 13.0088C7.03087 13.0812 6.85226 13.1172 6.63086 13.1172H6.34863C6.32697 13.1173 6.30785 13.1257 6.29199 13.1416C6.2763 13.1575 6.26866 13.1766 6.26855 13.1982V13.5205C6.26863 13.5423 6.27597 13.5611 6.29102 13.5762C6.61349 13.9207 7.03198 14.4028 7.5459 15.0225C7.56094 15.0425 7.58178 15.0527 7.6084 15.0527H8.09961C8.1348 15.0527 8.15939 15.0371 8.17285 15.0068C8.18947 14.9766 8.18649 14.9478 8.16309 14.9209C7.67278 14.3165 7.28731 13.8641 7.00684 13.5635C7.29212 13.5297 7.5242 13.437 7.70215 13.2852C7.88004 13.1333 7.98766 12.9353 8.02637 12.6924H8.4502C8.47359 12.6924 8.49274 12.684 8.50781 12.669C8.52279 12.6539 8.53017 12.6347 8.53027 12.6113V12.3525C8.53025 12.329 8.52288 12.3091 8.50781 12.294C8.49277 12.279 8.47349 12.2715 8.4502 12.2715H8.01953C7.99102 12.1316 7.93713 12.0101 7.8584 11.9072H8.44531C8.46863 11.9072 8.48789 11.8988 8.50293 11.8838C8.51787 11.8687 8.52527 11.8495 8.52539 11.8262V11.5674C8.52538 11.5438 8.51802 11.524 8.50293 11.5088C8.4879 11.4938 8.4686 11.4864 8.44531 11.4863H6.34863ZM14.5156 11.3379C13.9638 11.338 13.5967 11.5987 13.5967 12.8701C13.5967 14.1415 13.9638 14.4023 14.5156 14.4024H18.1943C18.701 14.4021 19.1131 13.9901 19.1133 13.4834V12.2568C19.1131 11.7502 18.701 11.3382 18.1943 11.3379H14.5156ZM15.4355 11.6445C16.1116 11.6446 16.6611 12.194 16.6611 12.8701C16.6611 13.5462 16.1116 14.0956 15.4355 14.0957C14.7594 14.0957 14.209 13.5462 14.209 12.8701C14.209 12.194 14.7594 11.6445 15.4355 11.6445ZM15.4355 12.2568C15.0975 12.2568 14.8223 12.5321 14.8223 12.8701C14.8223 13.2082 15.0975 13.4834 15.4355 13.4834C15.7735 13.4833 16.0488 13.2081 16.0488 12.8701C16.0488 12.5321 15.7735 12.2569 15.4355 12.2568ZM10.2832 1.91798C9.95771 1.77025 9.60029 1.82503 9.32812 2.06348L3.99023 6.74024H5.55566L10.8379 4.10645V2.80176C10.8413 2.61641 10.791 2.43337 10.6924 2.27637C10.5939 2.1196 10.4514 1.99535 10.2832 1.91798ZM12.6934 3.98243C12.531 3.97959 12.3707 4.01914 12.2285 4.09766L6.92871 6.74024H13.5967V4.88184C13.5967 4.72662 13.5559 4.57404 13.4785 4.43946C13.4009 4.30466 13.2888 4.19235 13.1543 4.11426C13.015 4.03068 12.8558 3.98533 12.6934 3.98243ZM17.5752 6.57506e-06C17.6943 -0.000493953 17.8116 0.027592 17.918 0.0810613C18.0243 0.13451 18.1169 0.211858 18.1875 0.307624L19.5869 2.19044C19.653 2.26354 19.6971 2.35408 19.7139 2.45118C19.7306 2.54848 19.7196 2.64911 19.6816 2.74024C19.6007 2.93603 19.4113 3.06249 19.1992 3.06251H18.7959C18.7499 3.71955 18.5539 4.35744 18.2227 4.92676C17.8914 5.49612 17.4333 5.98194 16.8848 6.34669L16.8311 6.38282C16.7783 6.41791 16.7157 6.43535 16.6523 6.4336C16.5892 6.43179 16.5281 6.41088 16.4775 6.37305L15.251 5.45313C15.2108 5.42299 15.1785 5.38336 15.1572 5.3379C15.136 5.29248 15.1264 5.24246 15.1289 5.19239C15.1315 5.14218 15.1469 5.09289 15.1729 5.04981C15.1987 5.00698 15.2345 4.97107 15.2773 4.94532L15.4688 4.83008C15.7699 4.64884 16.0154 4.38794 16.1777 4.07618C16.34 3.76429 16.4131 3.41324 16.3887 3.06251H15.9639C15.8594 3.06276 15.7568 3.03166 15.6699 2.97364C15.5831 2.91562 15.5153 2.83289 15.4756 2.73633C15.4373 2.6444 15.4265 2.54346 15.4434 2.44532C15.4603 2.34714 15.5045 2.25552 15.5713 2.18165L16.9619 0.3086C17.0324 0.212557 17.1251 0.134698 17.2314 0.0810613C17.3379 0.0274229 17.456 -0.000471978 17.5752 6.57506e-06ZM17.5752 0.613288C17.547 0.613288 17.494 0.621272 17.4551 0.673835L16.1357 2.44923H16.6494C16.6823 2.44957 16.7154 2.45398 16.7471 2.4629C16.764 2.4682 16.781 2.47532 16.7969 2.48341C16.7843 2.47656 16.7517 2.45915 16.8018 2.48633C16.8469 2.51094 16.8866 2.5466 16.915 2.5918L16.9395 2.64063L16.9453 2.65528C16.9583 2.68702 16.9662 2.72063 16.9678 2.75489C17.0499 3.21871 17.0005 3.69662 16.8252 4.1338C16.6497 4.57107 16.3547 4.95103 15.9746 5.2295L16.6689 5.75001C17.6264 5.05398 18.1943 3.94593 18.1943 2.75587C18.1943 2.67469 18.2259 2.59652 18.2832 2.53907C18.3406 2.48168 18.4188 2.44932 18.5 2.44923H19.0166L17.6963 0.673835C17.6568 0.621212 17.6034 0.613315 17.5752 0.613288Z" fill="#373844"/>
</svg>
