<svg width="24" height="24" viewBox="0 0 24 24" fill="none" xmlns="http://www.w3.org/2000/svg">
<path d="M10.3319 21C10.1551 21 9.98548 20.9298 9.86046 20.8047C9.73543 20.6797 9.66519 20.5101 9.66519 20.3333V13.9233L3.4852 7.12667C3.24192 6.85858 3.08169 6.52565 3.02394 6.16828C2.9662 5.8109 3.01343 5.44445 3.1599 5.1134C3.30637 4.78234 3.54578 4.50092 3.84908 4.30328C4.15237 4.10564 4.50652 4.00029 4.86853 4H19.1285C19.4905 4.00029 19.8447 4.10564 20.148 4.30328C20.4513 4.50092 20.6907 4.78234 20.8372 5.1134C20.9836 5.44445 21.0309 5.8109 20.9731 6.16828C20.9154 6.52565 20.7551 6.85858 20.5119 7.12667L14.3319 13.9233V17.6667C14.3318 17.7665 14.3093 17.8651 14.266 17.9551C14.2228 18.0451 14.1598 18.1243 14.0819 18.1867L10.7485 20.8533C10.6303 20.9482 10.4834 20.9999 10.3319 21ZM4.86853 5.33333C4.76479 5.33359 4.66335 5.36391 4.57648 5.42063C4.48962 5.47734 4.42105 5.55801 4.37908 5.65288C4.33711 5.74776 4.32354 5.85276 4.34001 5.95518C4.35647 6.05761 4.40227 6.15306 4.47186 6.23L10.8252 13.23C10.934 13.3497 10.9957 13.5049 10.9985 13.6667V18.9467L12.9985 17.3333V13.6667C12.9981 13.5003 13.06 13.3398 13.1719 13.2167L19.5252 6.21667C19.5906 6.13939 19.6329 6.04517 19.647 5.94489C19.6612 5.84462 19.6467 5.74238 19.6052 5.65C19.5637 5.55762 19.497 5.47886 19.4126 5.42282C19.3283 5.36679 19.2298 5.33576 19.1285 5.33333H4.86853Z" fill="#373844"/>
</svg>
