<svg width="40" height="40" viewBox="0 0 40 40" fill="none" xmlns="http://www.w3.org/2000/svg">
<path d="M17.989 4.59109C18.515 4.20699 19.1495 4 19.8008 4C20.4522 4 21.0866 4.20699 21.6127 4.59109L34.6413 14.0997C36.3566 15.3497 35.4735 18.0622 33.3527 18.0674H6.24723C4.12641 18.0622 3.24507 15.3497 4.95858 14.0997L17.989 4.59109ZM21.5565 11.482C21.5565 11.0164 21.3715 10.5698 21.0423 10.2406C20.713 9.91133 20.2665 9.72636 19.8008 9.72636C19.3352 9.72636 18.8887 9.91133 18.5594 10.2406C18.2302 10.5698 18.0452 11.0164 18.0452 11.482C18.0452 11.9476 18.2302 12.3942 18.5594 12.7234C18.8887 13.0527 19.3352 13.2377 19.8008 13.2377C20.2665 13.2377 20.713 13.0527 21.0423 12.7234C21.3715 12.3942 21.5565 11.9476 21.5565 11.482ZM18.4841 28.5996H14.9728V19.8213H18.4841V28.5996ZM24.6289 28.5996H21.1176V19.8213H24.6289V28.5996ZM31.2125 28.5996H27.2623V19.8213H31.2125V28.5996ZM31.6515 30.3552H7.95021C6.90255 30.3552 5.8978 30.7714 5.15699 31.5122C4.41618 32.253 4 33.2578 4 34.3054V35.1833C4 35.9119 4.5899 36.5 5.31674 36.5H34.2849C34.6342 36.5 34.9691 36.3613 35.216 36.1143C35.4629 35.8674 35.6017 35.5325 35.6017 35.1833V34.3054C35.6017 33.2578 35.1855 32.253 34.4447 31.5122C33.7039 30.7714 32.6991 30.3552 31.6515 30.3552ZM12.3393 28.5996H8.38912V19.8213H12.3393V28.5996Z" fill="#1A1A1A"/>
</svg>
