<svg width="24" height="24" viewBox="0 0 24 24" fill="none" xmlns="http://www.w3.org/2000/svg">
<mask id="mask0_1_6786" style="mask-type:luminance" maskUnits="userSpaceOnUse" x="2" y="2" width="20" height="20">
<path d="M2 2H22V22H2V2Z" fill="white"/>
</mask>
<g mask="url(#mask0_1_6786)">
<path d="M13.6945 5.43566C14.3084 5.59413 14.8968 5.83839 15.4425 6.16122L15.994 5.60961C16.0989 5.50465 16.2235 5.42139 16.3606 5.3646C16.4976 5.3078 16.6446 5.27859 16.793 5.27862C16.9413 5.27862 17.0882 5.30785 17.2253 5.36464C17.3623 5.42144 17.4868 5.50468 17.5917 5.60961L18.3904 6.40833C18.4953 6.51318 18.5785 6.63768 18.6353 6.77473C18.6921 6.91177 18.7214 7.05866 18.7213 7.20701C18.7214 7.3554 18.6922 7.50235 18.6354 7.63944C18.5786 7.77653 18.4953 7.90108 18.3904 8.00597L17.8388 8.55754C18.1616 9.10318 18.4058 9.69162 18.5643 10.3055H19.3429C19.9668 10.3055 20.4727 10.8113 20.4727 11.4351V12.5649C20.4727 13.1887 19.9668 13.6945 19.3429 13.6945H18.5643C18.4058 14.3084 18.1616 14.8968 17.8388 15.4424L18.3904 15.994C18.4953 16.0989 18.5786 16.2234 18.6354 16.3605C18.6922 16.4976 18.7214 16.6446 18.7213 16.793C18.7214 16.9413 18.6921 17.0882 18.6353 17.2253C18.5785 17.3623 18.4953 17.4868 18.3904 17.5917L17.5917 18.3904C17.4868 18.4953 17.3623 18.5785 17.2253 18.6353C17.0882 18.6921 16.9413 18.7214 16.793 18.7213C16.6446 18.7214 16.4976 18.6922 16.3605 18.6354C16.2234 18.5786 16.0989 18.4953 15.994 18.3904L15.4425 17.8388C14.8968 18.1616 14.3084 18.4058 13.6945 18.5643V19.3429C13.6945 19.9668 13.1887 20.4727 12.5648 20.4727H11.4351C10.8113 20.4727 10.3055 19.9668 10.3055 19.3429V18.5643C9.69161 18.4058 9.10317 18.1616 8.55753 17.8388L8.00597 18.3904C7.90108 18.4953 7.77653 18.5786 7.63944 18.6354C7.50234 18.6922 7.3554 18.7214 7.20701 18.7213C7.05866 18.7214 6.91177 18.6921 6.77472 18.6353C6.63768 18.5785 6.51318 18.4953 6.40833 18.3904L5.60961 17.5917C5.50468 17.4868 5.42143 17.3623 5.36464 17.2253C5.30784 17.0882 5.27861 16.9413 5.27862 16.793C5.27858 16.6446 5.3078 16.4976 5.3646 16.3606C5.42139 16.2235 5.50465 16.0989 5.60961 15.994L6.16121 15.4424C5.8384 14.8968 5.59414 14.3084 5.43566 13.6945H4.65705C4.03317 13.6945 3.52734 13.1887 3.52734 12.5649V11.4351C3.52734 10.8113 4.03317 10.3055 4.65705 10.3055H5.43566C5.59414 9.69161 5.8384 9.10318 6.16121 8.55754L5.60961 8.00597C5.50465 7.90108 5.42139 7.77653 5.36459 7.63944C5.3078 7.50234 5.27858 7.3554 5.27862 7.20701C5.27861 7.05867 5.30784 6.91177 5.36464 6.77473C5.42143 6.63769 5.50468 6.51318 5.60961 6.40833L6.40833 5.60961C6.51318 5.50467 6.63769 5.42143 6.77473 5.36463C6.91177 5.30784 7.05866 5.27861 7.20701 5.27862C7.3554 5.27859 7.50234 5.3078 7.63943 5.3646C7.77652 5.42139 7.90108 5.50465 8.00597 5.60961L8.55753 6.16122C9.10317 5.83839 9.69161 5.59413 10.3055 5.43566V4.65702C10.3055 4.03314 10.8113 3.52735 11.4351 3.52735H12.5648C13.1887 3.52735 13.6945 4.03314 13.6945 4.65702V5.43566Z" stroke="#373844" stroke-width="1.2" stroke-miterlimit="10" stroke-linecap="round" stroke-linejoin="round"/>
<path d="M12.0004 8.61104C13.8709 8.61104 15.3895 10.1296 15.3895 12.0001C15.3895 13.8706 13.8709 15.3892 12.0004 15.3892C10.1299 15.3892 8.61133 13.8706 8.61133 12.0001C8.61133 10.1296 10.1299 8.61104 12.0004 8.61104Z" stroke="#373844" stroke-width="1.2" stroke-miterlimit="10" stroke-linecap="round" stroke-linejoin="round"/>
</g>
</svg>
