<svg width="48" height="48" viewBox="0 0 48 48" fill="none" xmlns="http://www.w3.org/2000/svg">
<path d="M32.1062 19.8494C30.7382 17.9605 29.3525 16.0966 28.0752 14.1399H20.6419C19.3649 16.0966 17.9795 17.9605 16.6109 19.8494C13.9336 23.5448 11.7199 27.481 12.0289 32.3581C12.283 36.3723 14.8697 38.9779 18.0321 40.3034C17.415 39.6576 17.0706 38.7988 17.0704 37.9056C17.0704 35.9841 18.6342 34.42 20.556 34.42C22.2586 34.42 23.6779 35.6479 23.9802 37.2646L25.3117 35.2667C25.4852 35.006 25.7204 34.7922 25.9965 34.6445C26.2727 34.4967 26.581 34.4196 26.8942 34.42C27.2706 34.42 27.6354 34.5309 27.9491 34.74C28.157 34.8781 28.3356 35.0559 28.4745 35.2634C28.6133 35.4708 28.7097 35.7037 28.758 35.9486C28.8075 36.1933 28.808 36.4455 28.7596 36.6904C28.7111 36.9354 28.6146 37.1683 28.4757 37.3758L27.4376 38.9329C27.6754 38.8822 27.9179 38.8565 28.161 38.8563C29.2771 38.8563 30.2699 39.3858 30.9084 40.2046C33.9681 38.8512 36.4401 36.2766 36.6876 32.3577C36.9971 27.481 34.7834 23.5448 32.1062 19.8494ZM21.8235 29.2505C21.8235 29.3835 21.8102 29.4894 21.7836 29.5692C21.757 29.6485 21.7085 29.7207 21.6372 29.7844C21.5534 29.8565 21.4615 29.9186 21.3634 29.9695C21.0418 30.1393 20.7328 30.2638 20.4356 30.3424C20.1384 30.4207 19.8145 30.4593 19.4641 30.4593C19.0566 30.4593 18.6842 30.3976 18.3483 30.2746C18.0124 30.1517 17.7263 29.9723 17.4896 29.7378C17.2529 29.5036 17.071 29.2194 16.9443 28.8854C16.8169 28.5511 16.7535 28.1775 16.7535 27.7656C16.7535 27.3609 16.8153 26.9902 16.9386 26.6533C17.0618 26.3168 17.2428 26.0313 17.4823 25.7968C17.7209 25.562 18.0121 25.383 18.3553 25.2591C18.6982 25.1346 19.0879 25.0721 19.5224 25.0721C19.8804 25.0721 20.197 25.1187 20.4717 25.2125C20.7474 25.3066 20.9711 25.4239 21.1429 25.5661C21.3143 25.7084 21.443 25.8586 21.5301 26.0171C21.6176 26.1758 21.661 26.3168 21.661 26.4401C21.661 26.5729 21.6109 26.686 21.5101 26.7795C21.413 26.8717 21.2834 26.922 21.1495 26.9192C21.0719 26.9192 20.9981 26.9018 20.9268 26.8663C20.8555 26.8308 20.7956 26.781 20.7474 26.717C20.6146 26.5136 20.5021 26.3596 20.4106 26.255C20.3193 26.1505 20.1951 26.063 20.0392 25.992C19.8836 25.9214 19.6843 25.8859 19.4428 25.8859C19.1944 25.8859 18.9723 25.9277 18.7761 26.0113C18.5832 26.0937 18.4116 26.2189 18.2742 26.3773C18.1354 26.5374 18.0289 26.7338 17.9551 26.9655C17.8819 27.1974 17.8448 27.4547 17.8448 27.7367C17.8448 28.348 17.9874 28.8176 18.2739 29.1475C18.5606 29.4764 18.9596 29.6415 19.4717 29.6415C19.7201 29.6415 19.9536 29.6085 20.1732 29.5452C20.4035 29.4766 20.6263 29.3849 20.838 29.2714V28.4263H20.0046C19.8041 28.4263 19.6523 28.3965 19.5493 28.3372C19.4466 28.278 19.3953 28.1769 19.3953 28.0349C19.3953 27.9193 19.4387 27.8229 19.5239 27.7472C19.6098 27.6715 19.7264 27.6338 19.8738 27.6338H21.095C21.2449 27.6338 21.372 27.6471 21.4756 27.6724C21.5795 27.6997 21.6638 27.757 21.7275 27.8473C21.7915 27.9373 21.8235 28.0726 21.8235 28.252V29.2505ZM26.6511 29.6557C26.4895 29.9073 26.2535 30.1032 25.9423 30.2455C25.6314 30.3877 25.2619 30.459 24.8357 30.459C24.324 30.459 23.9025 30.3621 23.5695 30.1681C23.3359 30.0301 23.1388 29.838 22.995 29.6079C22.8473 29.3747 22.7741 29.1481 22.7741 28.9276C22.7741 28.7999 22.8185 28.6899 22.9069 28.599C22.9947 28.508 23.1078 28.4618 23.2438 28.4618C23.355 28.4618 23.4485 28.4976 23.5255 28.5689C23.6021 28.6398 23.6674 28.745 23.7216 28.8848C23.7882 29.0505 23.8591 29.1893 23.9355 29.3008C24.0125 29.4118 24.1199 29.5033 24.259 29.5756C24.3985 29.6481 24.581 29.6839 24.8075 29.6839C25.1181 29.6839 25.3706 29.6114 25.5661 29.4659C25.7604 29.3205 25.8574 29.1383 25.8574 28.9203C25.8574 28.7473 25.8051 28.6072 25.6999 28.4988C25.595 28.3914 25.46 28.3087 25.2933 28.252C25.0742 28.1808 24.8517 28.1205 24.6266 28.0714C24.2546 27.9836 23.9428 27.8812 23.6918 27.7637C23.4409 27.6468 23.2419 27.4867 23.0945 27.2839C22.9468 27.0818 22.873 26.8295 22.873 26.5288C22.873 26.242 22.951 25.9876 23.1062 25.7651C23.2618 25.5421 23.4871 25.3709 23.7821 25.2515C24.0762 25.132 24.4229 25.0721 24.8209 25.0721C25.1393 25.0721 25.4147 25.1121 25.6466 25.1913C25.8786 25.2705 26.0719 25.376 26.2253 25.5075C26.378 25.6393 26.4902 25.7769 26.5608 25.922C26.6315 26.0665 26.6667 26.2072 26.6667 26.3444C26.6667 26.4702 26.6229 26.583 26.5345 26.6834C26.4461 26.7839 26.3362 26.8352 26.2034 26.8352C26.0833 26.8352 25.9927 26.8045 25.9296 26.744C25.8675 26.6838 25.7994 26.5852 25.7268 26.4471C25.6324 26.2506 25.5189 26.0975 25.3871 25.9876C25.2547 25.8767 25.043 25.8225 24.7508 25.8225C24.4796 25.8225 24.2609 25.8821 24.0949 26.0015C23.9285 26.121 23.8458 26.2652 23.8458 26.4334C23.8458 26.537 23.8743 26.6274 23.9304 26.7034C23.9875 26.7788 24.0651 26.8444 24.164 26.8989C24.2628 26.9534 24.363 26.9959 24.4644 27.0269C24.5651 27.0574 24.7334 27.102 24.9663 27.1616C25.2588 27.2301 25.5234 27.3061 25.7604 27.3888C25.9968 27.4721 26.1986 27.5723 26.365 27.6911C26.529 27.8074 26.6623 27.9617 26.7535 28.1408C26.8466 28.322 26.8935 28.5438 26.8935 28.8065C26.8935 29.1218 26.8124 29.4048 26.6511 29.6557ZM31.8283 25.7914C31.7379 25.8672 31.6026 25.9049 31.4223 25.9049H30.2689V29.8437C30.2689 30.0518 30.2201 30.2071 30.1225 30.3079C30.0256 30.4083 29.8994 30.459 29.7454 30.459C29.5889 30.459 29.4615 30.4077 29.3626 30.3063C29.2641 30.2039 29.215 30.0496 29.215 29.8437V25.9049H28.0609C27.8806 25.9049 27.7469 25.8672 27.6585 25.7914C27.571 25.7154 27.5273 25.6149 27.5273 25.4901C27.5273 25.3605 27.5729 25.2588 27.6645 25.184C27.7561 25.1092 27.8879 25.0718 28.0612 25.0718H31.4223C31.6049 25.0718 31.7411 25.1105 31.8302 25.1872C31.9192 25.2638 31.9636 25.3656 31.9636 25.4901C31.9636 25.6146 31.9186 25.7154 31.8283 25.7914Z" fill="#1A1A1A"/>
<path d="M19.9116 36.3864C19.7053 36.3246 19.4879 36.4419 19.4262 36.6482L18.4199 40.0109C18.3581 40.2172 18.4754 40.4346 18.6817 40.4963C18.8881 40.5581 19.1054 40.4408 19.1672 40.2345L20.0616 37.2454L23.0507 38.1399C23.257 38.2017 23.4743 38.0844 23.5361 37.8781C23.5978 37.6717 23.4806 37.4544 23.2743 37.3927L19.9116 36.3864ZM26.6051 42.4953L26.8135 42.825L26.6051 42.4953ZM19.7998 36.76L19.4565 36.9451C19.6306 37.2679 19.8141 37.6323 20.0113 38.0245C20.2075 38.415 20.4165 38.8313 20.638 39.25C21.08 40.0851 21.5809 40.9474 22.1535 41.6635C22.7229 42.3755 23.3916 42.9796 24.1811 43.2457C24.9942 43.5198 25.8778 43.4164 26.8135 42.825L26.6051 42.4953L26.3968 42.1656C25.6311 42.6496 24.9906 42.6955 24.4303 42.5066C23.8462 42.3097 23.2922 41.8385 22.7627 41.1764C22.2366 40.5184 21.7628 39.7079 21.3275 38.8852C21.1104 38.4749 20.9051 38.0661 20.7082 37.6742C20.5121 37.2842 20.3234 36.9093 20.1431 36.5749L19.7998 36.76ZM26.6051 42.4953L26.8135 42.825C27.5375 42.3674 27.8388 41.7958 27.9421 41.2293C27.9918 40.9569 27.9942 40.6949 27.9865 40.4664C27.9779 40.2139 27.9614 40.0565 27.9614 39.88H27.5714H27.1814C27.1814 40.062 27.2008 40.3116 27.2069 40.4929C27.2139 40.6982 27.2099 40.8966 27.1747 41.0893C27.1084 41.4531 26.9265 41.8308 26.3968 42.1656L26.6051 42.4953Z" fill="#1A1A1A"/>
<path d="M20.5196 11.664C20.5988 11.6334 20.6833 11.619 20.7682 11.6216H28.3732C28.4581 11.619 28.5426 11.6334 28.6218 11.664C28.701 11.6946 28.7733 11.7408 28.8342 11.7999C28.8952 11.859 28.9437 11.9297 28.9768 12.0079C29.0099 12.0861 29.027 12.1702 29.027 12.2551C29.027 12.34 29.0099 12.424 28.9768 12.5022C28.9437 12.5804 28.8952 12.6512 28.8342 12.7102C28.7733 12.7693 28.701 12.8156 28.6218 12.8462C28.5426 12.8768 28.4581 12.8912 28.3732 12.8885H20.7682C20.6833 12.8912 20.5988 12.8768 20.5196 12.8462C20.4404 12.8156 20.3681 12.7693 20.3071 12.7102C20.2462 12.6512 20.1977 12.5804 20.1646 12.5022C20.1314 12.424 20.1144 12.34 20.1144 12.2551C20.1144 12.1702 20.1314 12.0861 20.1646 12.0079C20.1977 11.9297 20.2462 11.859 20.3071 11.7999C20.3681 11.7408 20.4404 11.6946 20.5196 11.664Z" fill="#1A1A1A"/>
<path d="M29.8343 4.00552C30.3527 3.96021 30.9738 4.19089 30.9665 4.8088C30.9564 5.63426 29.9687 6.21985 29.5596 6.85265C28.8587 7.93605 28.3621 9.12846 28.0411 10.3548H21.106C20.3033 7.72185 18.9699 6.71925 18.9699 6.71925C18.68 6.3897 18.1802 6.02814 18.2462 5.52589C18.3022 5.09716 18.801 4.9289 19.18 5.01604C19.8267 5.16497 20.3303 5.5861 20.9472 5.79397C21.5439 5.9955 22.1469 5.82978 22.639 5.4584C23.0969 5.11332 23.5963 4.39655 24.2659 4.6003C24.8385 4.77426 25.0793 5.53223 25.6909 5.65898C26.2216 5.76925 26.7666 5.63807 27.2258 5.37696C27.8516 5.02111 28.3764 4.48907 29.0447 4.20674C29.2963 4.10048 29.5625 4.03265 29.8343 4.00552Z" fill="#1A1A1A"/>
</svg>
