<svg width="48" height="48" viewBox="0 0 48 48" fill="none" xmlns="http://www.w3.org/2000/svg">
<path d="M41.5 33.5C41.5 37.366 38.366 40.5 34.5 40.5C30.634 40.5 27.5 37.366 27.5 33.5C27.5 29.634 30.634 26.5 34.5 26.5C38.366 26.5 41.5 29.634 41.5 33.5Z" fill="#1A1A1A"/>
<path d="M34.9667 32.7533L37.3 30.42L34.9667 32.7533ZM35.7444 30.42H37.3V31.9755M37.3 33.8422V35.3977C37.3 35.5628 37.2344 35.721 37.1178 35.8377C37.0011 35.9544 36.8428 36.02 36.6778 36.02H32.3222C32.1572 36.02 31.9989 35.9544 31.8822 35.8377C31.7656 35.721 31.7 35.5628 31.7 35.3977V31.0422C31.7 30.8772 31.7656 30.7189 31.8822 30.6022C31.9989 30.4855 32.1572 30.42 32.3222 30.42H33.8778" fill="#1A1A1A"/>
<path d="M34.9667 32.7533L37.3 30.42M37.3 30.42H35.7444M37.3 30.42V31.9755M37.3 33.8422V35.3977C37.3 35.5628 37.2344 35.721 37.1178 35.8377C37.0011 35.9544 36.8428 36.02 36.6778 36.02H32.3222C32.1572 36.02 31.9989 35.9544 31.8822 35.8377C31.7656 35.721 31.7 35.5628 31.7 35.3977V31.0422C31.7 30.8772 31.7656 30.7189 31.8822 30.6022C31.9989 30.4855 32.1572 30.42 32.3222 30.42H33.8778M41.5 33.5C41.5 37.366 38.366 40.5 34.5 40.5C30.634 40.5 27.5 37.366 27.5 33.5C27.5 29.634 30.634 26.5 34.5 26.5C38.366 26.5 41.5 29.634 41.5 33.5Z" stroke="white" stroke-width="0.622222" stroke-linecap="round" stroke-linejoin="round"/>
<path d="M10.3314 28.6786H28.1169C29.1857 27.2148 30.7134 26.1506 32.457 25.6554C34.2005 25.1603 36.0596 25.2626 37.7382 25.9462V6.83617C37.7383 6.59512 37.691 6.3564 37.5988 6.13366C37.5066 5.91093 37.3715 5.70853 37.2011 5.53803C37.0307 5.36754 36.8284 5.23229 36.6057 5.14001C36.383 5.04774 36.1443 5.00024 35.9032 5.00024H7.83495C7.34833 5.00037 6.88168 5.19374 6.53759 5.53783C6.1935 5.88192 6.00013 6.34857 6 6.83519V42.1653C6.00013 42.6519 6.1935 43.1186 6.53759 43.4627C6.88168 43.8067 7.34833 44.0001 7.83495 44.0002H35.9032C36.3899 44.0002 36.8566 43.8069 37.2008 43.4628C37.5449 43.1187 37.7382 42.652 37.7382 42.1653V41.0065C36.766 41.4034 35.7258 41.607 34.6757 41.6061C30.8181 41.6061 27.5792 38.9049 26.7514 35.295H10.3314C10.2021 35.295 10.0781 35.2436 9.98672 35.1522C9.8953 35.0607 9.84394 34.9367 9.84394 34.8075C9.84394 34.6782 9.8953 34.5542 9.98672 34.4627C10.0781 34.3713 10.2021 34.32 10.3314 34.32H26.5896C26.5606 34.0398 26.5461 33.7583 26.5462 33.4766C26.5447 32.1429 26.8733 30.8295 27.5027 29.6536H10.3314C10.2021 29.6536 10.0781 29.6022 9.98672 29.5108C9.8953 29.4194 9.84394 29.2954 9.84394 29.1661C9.84394 29.0368 9.8953 28.9128 9.98672 28.8214C10.0781 28.73 10.2021 28.6786 10.3314 28.6786ZM27.7839 10.0288H33.1611C33.355 10.0288 33.541 10.1058 33.6781 10.243C33.8153 10.3801 33.8923 10.5661 33.8923 10.7601C33.8923 10.954 33.8153 11.14 33.6781 11.2771C33.541 11.4143 33.355 11.4913 33.1611 11.4913H31.1682V18.4723C31.1682 18.6662 31.0911 18.8522 30.954 18.9894C30.8168 19.1265 30.6309 19.2036 30.4369 19.2036C30.243 19.2036 30.057 19.1265 29.9198 18.9894C29.7827 18.8522 29.7057 18.6662 29.7057 18.4723V11.4913H27.7864C27.5924 11.4913 27.4064 11.4143 27.2693 11.2771C27.1322 11.14 27.0551 10.954 27.0551 10.7601C27.0551 10.5661 27.1322 10.3801 27.2693 10.243C27.4064 10.1058 27.5924 10.0288 27.7864 10.0288H27.7839ZM19.5369 10.7308C20.1667 10.2779 20.9916 10.0288 21.8598 10.0288C22.7281 10.0288 23.5529 10.2779 24.1828 10.7308C24.8901 11.2363 25.2753 11.931 25.2753 12.6881C25.2753 12.8821 25.1982 13.0681 25.0611 13.2052C24.9239 13.3423 24.738 13.4194 24.544 13.4194C24.3501 13.4194 24.1641 13.3423 24.0269 13.2052C23.8898 13.0681 23.8128 12.8821 23.8128 12.6881C23.8128 12.0505 22.9011 11.4913 21.8628 11.4913C20.8244 11.4913 19.9128 12.0505 19.9128 12.6881C19.9128 13.3258 20.8244 13.8849 21.8628 13.8849H21.8764C22.7446 13.8849 23.57 14.134 24.1998 14.5869C24.9023 15.0925 25.2894 15.7876 25.2894 16.5442C25.2894 17.3008 24.9023 17.996 24.1998 18.5011C23.57 18.954 22.7446 19.2036 21.8764 19.2036C21.0082 19.2036 20.1833 18.954 19.5535 18.5011C18.8505 17.996 18.4639 17.3008 18.4639 16.5442C18.4639 16.3503 18.541 16.1643 18.6781 16.0272C18.8152 15.89 19.0012 15.813 19.1952 15.813C19.3891 15.813 19.5751 15.89 19.7122 16.0272C19.8494 16.1643 19.9264 16.3503 19.9264 16.5442C19.9264 17.1819 20.8376 17.7411 21.8764 17.7411C22.9153 17.7411 23.8264 17.1819 23.8264 16.5442C23.8264 15.9066 22.9153 15.3474 21.8764 15.3474H21.8628C20.9945 15.3474 20.1697 15.0978 19.5398 14.6449C18.8369 14.1399 18.4498 13.4447 18.4498 12.6881C18.4498 11.9315 18.8364 11.2363 19.5393 10.7308H19.5369ZM9.84394 14.5938C9.8493 13.4189 10.1959 12.3025 10.8189 11.4538C11.4985 10.53 12.4228 10.0215 13.4217 10.0215C14.6375 10.0215 15.7568 10.7956 16.4169 12.0929C16.4605 12.1785 16.4868 12.2719 16.4943 12.3677C16.5018 12.4635 16.4904 12.5598 16.4606 12.6511C16.4309 12.7425 16.3834 12.8271 16.321 12.9001C16.2585 12.9731 16.1823 13.0331 16.0966 13.0767C15.994 13.1285 15.8806 13.1557 15.7656 13.1561C15.6305 13.1566 15.4979 13.1195 15.3827 13.0489C15.2675 12.9783 15.1742 12.877 15.1133 12.7564C14.7082 11.9593 14.0759 11.484 13.4217 11.484C12.9001 11.484 12.3941 11.7809 11.9977 12.3201C11.5531 12.9246 11.3074 13.7401 11.3055 14.6167C11.3035 15.4932 11.5531 16.3073 11.9977 16.9118C12.3941 17.4515 12.9001 17.7484 13.4217 17.7484C14.153 17.7484 14.8442 17.1634 15.2323 16.2166V15.5341H14.1164V15.8359C14.1164 16.0298 14.0393 16.2158 13.9022 16.353C13.7651 16.4901 13.5791 16.5672 13.3851 16.5672C13.1912 16.5672 13.0052 16.4901 12.8681 16.353C12.7309 16.2158 12.6539 16.0298 12.6539 15.8359V14.8048C12.6539 14.6109 12.7309 14.4249 12.8681 14.2878C13.0052 14.1506 13.1912 14.0736 13.3851 14.0736H15.964C16.158 14.0736 16.3439 14.1506 16.4811 14.2878C16.6182 14.4249 16.6953 14.6109 16.6953 14.8048V16.3541C16.6953 16.4413 16.6797 16.5278 16.6494 16.6096C16.0518 18.2139 14.815 19.2109 13.4222 19.2109C12.4233 19.2109 11.499 18.7019 10.8194 17.7781C10.1959 16.9299 9.8493 15.8135 9.84443 14.6352L9.84394 14.5938ZM10.3314 39.9613H26.6802C26.8095 39.9613 26.9335 40.0127 27.025 40.1041C27.1164 40.1955 27.1677 40.3195 27.1677 40.4488C27.1677 40.5781 27.1164 40.7021 27.025 40.7935C26.9335 40.8849 26.8095 40.9363 26.6802 40.9363H10.3314C10.2021 40.9363 10.0781 40.8849 9.98672 40.7935C9.8953 40.7021 9.84394 40.5781 9.84394 40.4488C9.84394 40.3195 9.8953 40.1955 9.98672 40.1041C10.0781 40.0127 10.2021 39.9613 10.3314 39.9613ZM9.84394 23.5252C9.84394 23.396 9.8953 23.272 9.98672 23.1805C10.0781 23.0891 10.2021 23.0377 10.3314 23.0377H33.4073C33.5365 23.0377 33.6605 23.0891 33.752 23.1805C33.8434 23.272 33.8948 23.396 33.8948 23.5252C33.8948 23.6545 33.8434 23.7785 33.752 23.87C33.6605 23.9614 33.5365 24.0127 33.4073 24.0127H10.3314C10.2021 24.0127 10.0781 23.9614 9.98672 23.87C9.8953 23.7785 9.84394 23.6545 9.84394 23.5252Z" fill="#1A1A1A"/>
</svg>
