<svg width="48" height="48" viewBox="0 0 48 48" fill="none" xmlns="http://www.w3.org/2000/svg">
<path d="M38.0636 16.8286V40.58C38.0636 41.1996 37.8175 41.7938 37.3793 42.2319C36.9412 42.67 36.347 42.9162 35.7274 42.9162H10.8079C10.1883 42.9162 9.59406 42.67 9.15594 42.2319C8.71781 41.7938 8.47168 41.1996 8.47168 40.58V16.8286L23.2074 6.0459L38.0636 16.8286Z" fill="#E1E1E3"/>
<path d="M34.5593 15.6602V40.5797C34.5593 41.1993 34.3132 41.7935 33.8751 42.2316C33.437 42.6697 32.8427 42.9159 32.2231 42.9159H35.7274C36.347 42.9159 36.9413 42.6697 37.3794 42.2316C37.8175 41.7935 38.0637 41.1993 38.0637 40.5797V16.8283L34.5593 15.6602Z" fill="#C8C5CC"/>
<path d="M40.5726 21.0772L23.2674 7.71721L5.96224 21.0772C5.8816 21.1394 5.78512 21.1779 5.68374 21.1881C5.58237 21.1983 5.48017 21.1799 5.38872 21.135C5.29728 21.09 5.22026 21.0204 5.16639 20.9339C5.11253 20.8474 5.08398 20.7476 5.08398 20.6457V18.8248C5.08398 18.6462 5.12493 18.4699 5.20369 18.3096C5.28245 18.1493 5.39692 18.0092 5.5383 17.9001L22.6012 4.72726C22.792 4.57992 23.0263 4.5 23.2674 4.5C23.5085 4.5 23.7428 4.57992 23.9336 4.72726L40.9966 17.9001C41.138 18.0092 41.2524 18.1493 41.3312 18.3096C41.4099 18.4699 41.4509 18.6462 41.4509 18.8248V20.6457C41.4509 20.7476 41.4223 20.8474 41.3685 20.9339C41.3146 21.0203 41.2376 21.09 41.1461 21.1349C41.0547 21.1798 40.9525 21.1982 40.8511 21.188C40.7497 21.1778 40.6533 21.1394 40.5726 21.0772Z" fill="#1A1A1A"/>
<path d="M40.9968 17.9001L23.934 4.72726C23.7432 4.57992 23.5089 4.5 23.2677 4.5C23.0266 4.5 22.7923 4.57992 22.6015 4.72726L22.0996 5.11468L38.6606 17.9001C38.802 18.0092 38.9165 18.1493 38.9953 18.3096C39.074 18.4699 39.115 18.6462 39.115 18.8248V19.9516L40.5729 21.0772C40.6536 21.1394 40.75 21.1779 40.8514 21.1881C40.9528 21.1983 41.055 21.1799 41.1464 21.135C41.2379 21.09 41.3149 21.0204 41.3688 20.9339C41.4226 20.8474 41.4512 20.7476 41.4512 20.6457V18.8248C41.4512 18.6462 41.4102 18.4699 41.3315 18.3096C41.2527 18.1493 41.1382 18.0092 40.9968 17.9001Z" fill="#1A1A1A"/>
<path d="M31.9114 30.1057H25.6036C24.9585 30.1057 24.4355 30.6287 24.4355 31.2738V36.7735C24.4355 37.4186 24.9585 37.9416 25.6036 37.9416H31.9114C32.5565 37.9416 33.0795 37.4186 33.0795 36.7735V31.2738C33.0795 30.6287 32.5565 30.1057 31.9114 30.1057Z" fill="#1A1A1A"/>
<path d="M41.451 43.4999H5.08405C4.92915 43.4999 4.7806 43.4384 4.67106 43.3288C4.56153 43.2193 4.5 43.0707 4.5 42.9158C4.5 42.7609 4.56153 42.6124 4.67106 42.5029C4.7806 42.3933 4.92915 42.3318 5.08405 42.3318H41.451C41.6059 42.3318 41.7544 42.3933 41.8639 42.5029C41.9735 42.6124 42.035 42.7609 42.035 42.9158C42.035 43.0707 41.9735 43.2193 41.8639 43.3288C41.7544 43.4384 41.6059 43.4999 41.451 43.4999Z" fill="#1A1A1A"/>
<path d="M20.9314 30.1057H14.6237C13.9785 30.1057 13.4556 30.6287 13.4556 31.2738V36.7735C13.4556 37.4186 13.9785 37.9416 14.6237 37.9416H20.9314C21.5765 37.9416 22.0995 37.4186 22.0995 36.7735V31.2738C22.0995 30.6287 21.5765 30.1057 20.9314 30.1057Z" fill="#1A1A1A"/>
<path d="M30.6068 36.457C30.5301 36.4571 30.4541 36.442 30.3832 36.4126C30.3123 36.3833 30.2479 36.3402 30.1938 36.2859L26.4958 32.5879C26.4415 32.5337 26.3985 32.4693 26.3692 32.3984C26.3398 32.3275 26.3247 32.2516 26.3247 32.1749C26.3247 32.0982 26.3398 32.0222 26.3692 31.9514C26.3985 31.8805 26.4415 31.8161 26.4958 31.7619C26.55 31.7077 26.6144 31.6646 26.6853 31.6353C26.7561 31.6059 26.8321 31.5908 26.9088 31.5908C26.9855 31.5908 27.0614 31.6059 27.1323 31.6353C27.2032 31.6646 27.2675 31.7077 27.3218 31.7619L31.0198 35.4599C31.1015 35.5415 31.1571 35.6456 31.1796 35.7589C31.2022 35.8722 31.1906 35.9897 31.1464 36.0964C31.1022 36.2031 31.0274 36.2943 30.9313 36.3585C30.8352 36.4227 30.7223 36.457 30.6068 36.457Z" fill="white"/>
<path d="M26.9088 36.457C26.7933 36.457 26.6803 36.4227 26.5843 36.3585C26.4882 36.2943 26.4134 36.2031 26.3692 36.0964C26.325 35.9897 26.3134 35.8722 26.3359 35.7589C26.3585 35.6456 26.4141 35.5415 26.4958 35.4599L30.1938 31.7619C30.3033 31.6524 30.4519 31.5908 30.6068 31.5908C30.7617 31.5908 30.9103 31.6524 31.0198 31.7619C31.1293 31.8714 31.1909 32.02 31.1909 32.1749C31.1909 32.3298 31.1293 32.4784 31.0198 32.5879L27.3218 36.2859C27.2676 36.3402 27.2033 36.3833 27.1324 36.4126C27.0615 36.442 26.9855 36.4571 26.9088 36.457Z" fill="white"/>
<path d="M31.9114 19.9336H25.6036C24.9585 19.9336 24.4355 20.4566 24.4355 21.1017V26.6014C24.4355 27.2465 24.9585 27.7695 25.6036 27.7695H31.9114C32.5565 27.7695 33.0795 27.2465 33.0795 26.6014V21.1017C33.0795 20.4566 32.5565 19.9336 31.9114 19.9336Z" fill="#1A1A1A"/>
<path d="M19.7631 34.6078H15.7916C15.6367 34.6078 15.4881 34.5463 15.3786 34.4367C15.2691 34.3272 15.2075 34.1786 15.2075 34.0237C15.2075 33.8688 15.2691 33.7203 15.3786 33.6108C15.4881 33.5012 15.6367 33.4397 15.7916 33.4397H19.7631C19.918 33.4397 20.0666 33.5012 20.1761 33.6108C20.2856 33.7203 20.3472 33.8688 20.3472 34.0237C20.3472 34.1786 20.2856 34.3272 20.1761 34.4367C20.0666 34.5463 19.918 34.6078 19.7631 34.6078Z" fill="white"/>
<path d="M17.7774 32.8556C18.1 32.8556 18.3615 32.5941 18.3615 32.2716C18.3615 31.949 18.1 31.6875 17.7774 31.6875C17.4548 31.6875 17.1934 31.949 17.1934 32.2716C17.1934 32.5941 17.4548 32.8556 17.7774 32.8556Z" fill="white"/>
<path d="M17.7774 36.36C18.1 36.36 18.3615 36.0985 18.3615 35.7759C18.3615 35.4534 18.1 35.1919 17.7774 35.1919C17.4548 35.1919 17.1934 35.4534 17.1934 35.7759C17.1934 36.0985 17.4548 36.36 17.7774 36.36Z" fill="white"/>
<path d="M30.7436 24.4357H26.772C26.6171 24.4357 26.4686 24.3741 26.3591 24.2646C26.2495 24.1551 26.188 24.0065 26.188 23.8516C26.188 23.6967 26.2495 23.5482 26.3591 23.4386C26.4686 23.3291 26.6171 23.2676 26.772 23.2676H30.7436C30.8985 23.2676 31.047 23.3291 31.1566 23.4386C31.2661 23.5482 31.3276 23.6967 31.3276 23.8516C31.3276 24.0065 31.2661 24.1551 31.1566 24.2646C31.047 24.3741 30.8985 24.4357 30.7436 24.4357Z" fill="white"/>
<path d="M20.9314 19.9336H14.6237C13.9785 19.9336 13.4556 20.4566 13.4556 21.1017V26.6014C13.4556 27.2465 13.9785 27.7695 14.6237 27.7695H20.9314C21.5765 27.7695 22.0995 27.2465 22.0995 26.6014V21.1017C22.0995 20.4566 21.5765 19.9336 20.9314 19.9336Z" fill="#1A1A1A"/>
<path d="M17.7774 26.2631C17.6225 26.2631 17.474 26.2015 17.3644 26.092C17.2549 25.9825 17.1934 25.8339 17.1934 25.679V22.0245C17.1934 21.8696 17.2549 21.721 17.3644 21.6115C17.474 21.502 17.6225 21.4404 17.7774 21.4404C17.9323 21.4404 18.0809 21.502 18.1904 21.6115C18.2999 21.721 18.3615 21.8696 18.3615 22.0245V25.6791C18.3615 25.834 18.2999 25.9825 18.1904 26.0921C18.0809 26.2016 17.9323 26.2631 17.7774 26.2631Z" fill="white"/>
<path d="M19.6047 24.4357H15.9503C15.7954 24.4357 15.6468 24.3741 15.5373 24.2646C15.4277 24.1551 15.3662 24.0065 15.3662 23.8516C15.3662 23.6967 15.4277 23.5482 15.5373 23.4386C15.6468 23.3291 15.7954 23.2676 15.9503 23.2676H19.6047C19.7596 23.2676 19.9082 23.3291 20.0177 23.4386C20.1272 23.5482 20.1888 23.6967 20.1888 23.8516C20.1888 24.0065 20.1272 24.1551 20.0177 24.2646C19.9082 24.3741 19.7596 24.4357 19.6047 24.4357Z" fill="white"/>
<path d="M23.2673 16.0497C24.321 16.0497 25.1752 15.1955 25.1752 14.1418C25.1752 13.0881 24.321 12.2339 23.2673 12.2339C22.2136 12.2339 21.3594 13.0881 21.3594 14.1418C21.3594 15.1955 22.2136 16.0497 23.2673 16.0497Z" fill="#C8C5CC"/>
<path d="M23.2674 12.2339C23.1569 12.2342 23.0467 12.244 22.938 12.2634C23.3794 12.3415 23.7792 12.5726 24.0672 12.9161C24.3552 13.2596 24.5131 13.6935 24.5131 14.1418C24.5131 14.59 24.3552 15.024 24.0672 15.3675C23.7792 15.711 23.3794 15.942 22.938 16.0202C23.1985 16.0659 23.4656 16.057 23.7225 15.9939C23.9793 15.9309 24.2203 15.8151 24.43 15.654C24.6397 15.4929 24.8136 15.2899 24.9407 15.058C25.0678 14.826 25.1452 14.5702 25.1682 14.3067C25.1911 14.0432 25.159 13.7779 25.0739 13.5275C24.9887 13.2771 24.8525 13.0471 24.6737 12.8522C24.495 12.6573 24.2777 12.5016 24.0356 12.3952C23.7935 12.2888 23.5319 12.2338 23.2674 12.2339Z" fill="#AEADB3"/>
</svg>
