<svg width="24" height="24" viewBox="0 0 24 24" fill="none" xmlns="http://www.w3.org/2000/svg">
<path fill-rule="evenodd" clip-rule="evenodd" d="M7.30876 4C6.9293 4.00383 6.56012 4.12381 6.2509 4.34379C5.94169 4.56377 5.70728 4.87319 5.57922 5.23041H18.8816C18.7534 4.87282 18.5186 4.56314 18.209 4.34313C17.8993 4.12312 17.5296 4.00336 17.1497 4H7.30876ZM4.84794 6.46082C4.35838 6.46387 3.88976 6.65986 3.5438 7.00626C3.19784 7.35266 3.00244 7.82152 3 8.31109V18.1497C3 19.1619 3.83575 20 4.85026 20H19.6129C20.1018 19.9963 20.5696 19.8 20.9147 19.4536C21.2598 19.1072 21.4544 18.6387 21.4562 18.1497V8.31109C21.4544 7.82213 21.2598 7.35362 20.9147 7.00722C20.5696 6.66082 20.1018 6.46449 19.6129 6.46082H4.84794ZM12.2188 8.91468C12.567 8.90772 12.8526 9.19327 12.8456 9.5415V15.4382L14.2594 14.0267C14.3145 13.9619 14.3824 13.9092 14.4589 13.872C14.5354 13.8348 14.6187 13.8138 14.7037 13.8104C14.7887 13.807 14.8735 13.8213 14.9526 13.8523C15.0318 13.8834 15.1037 13.9305 15.1638 13.9907C15.2238 14.0509 15.2708 14.1229 15.3016 14.2022C15.3324 14.2815 15.3464 14.3663 15.3428 14.4513C15.3392 14.5362 15.318 14.6195 15.2806 14.6959C15.2432 14.7723 15.1903 14.84 15.1254 14.895L12.6645 17.3558C12.5492 17.4706 12.3931 17.5351 12.2304 17.5351C12.0677 17.5351 11.9116 17.4706 11.7963 17.3558L9.33546 14.895C9.25116 14.8132 9.19203 14.709 9.16503 14.5947C9.13804 14.4804 9.14433 14.3608 9.18314 14.25C9.22196 14.1391 9.29168 14.0417 9.38408 13.9693C9.47648 13.8968 9.5877 13.8523 9.70459 13.841C9.79638 13.8326 9.8889 13.8449 9.97529 13.877C10.0617 13.9092 10.1397 13.9603 10.2037 14.0267L11.6152 15.4405V9.53918C11.6137 9.45838 11.6281 9.37808 11.6576 9.30285C11.6871 9.22762 11.7311 9.15894 11.7872 9.10073C11.8432 9.04252 11.9102 8.99593 11.9842 8.96361C12.0583 8.93128 12.138 8.91619 12.2188 8.91468Z" fill="#1A1A1A"/>
</svg>
