<svg width="18" height="19" viewBox="0 0 18 19" fill="none" xmlns="http://www.w3.org/2000/svg">
<path d="M16.9973 0.665288C17.4052 0.707063 17.7238 1.05201 17.7239 1.47095V4.42603L17.72 4.50904C17.6812 4.88975 17.378 5.19273 16.9973 5.23169L16.9143 5.2356H16.0872V18.1907L16.0832 18.2737C16.0443 18.6541 15.7409 18.9572 15.3606 18.9963L15.2776 19.0002H3.63501L3.552 18.9963C3.17152 18.9574 2.86833 18.6542 2.82934 18.2737L2.82544 18.1907V9.68775C3.14529 9.85926 3.48397 10.0018 3.83716 10.1106V17.9885H15.0754V5.27662H11.177C11.1933 5.10341 11.2024 4.92766 11.2024 4.75025C11.2024 4.57289 11.1933 4.39704 11.177 4.22388H16.7122V1.6731H10.2737C10.0279 1.30294 9.7382 0.963631 9.41333 0.661381H16.9143L16.9973 0.665288ZM12.7571 15.3167C13.0586 15.317 13.3029 15.561 13.303 15.8626C13.3028 16.164 13.0585 16.4091 12.7571 16.4094H6.19555C5.89414 16.4091 5.64985 16.164 5.64966 15.8626C5.64973 15.561 5.89407 15.317 6.19555 15.3167H12.7571ZM12.7571 12.887C13.0586 12.8873 13.303 13.1322 13.303 13.4338C13.3027 13.7352 13.0585 13.9804 12.7571 13.9807H6.19555C5.89418 13.9804 5.64991 13.7352 5.64966 13.4338C5.64966 13.1322 5.89402 12.8873 6.19555 12.887H12.7571ZM12.7571 10.4583C13.0586 10.4586 13.303 10.7035 13.303 11.0051C13.3026 11.3064 13.0584 11.5507 12.7571 11.551H6.19555C5.89426 11.5507 5.65004 11.3064 5.64966 11.0051C5.64966 10.7035 5.89402 10.4586 6.19555 10.4583H12.7571ZM2.13012 1.39087C4.00556 -0.464036 7.04658 -0.463864 8.92212 1.39087C10.7976 3.24587 10.7976 6.25366 8.92212 8.10865C7.0466 9.96349 4.0056 9.96355 2.13012 8.10865C0.254842 6.25366 0.254762 3.24581 2.13012 1.39087ZM7.87915 2.46802C7.60875 2.20075 7.17112 2.2009 6.90063 2.46802L5.52856 3.82544L4.15649 2.46802C3.88596 2.2008 3.4474 2.20058 3.177 2.46802C2.90677 2.73547 2.90688 3.16925 3.177 3.43677L4.54907 4.79322L3.177 6.15064C2.90727 6.41814 2.90702 6.85107 3.177 7.11841C3.4474 7.38581 3.88597 7.38562 4.15649 7.11841L5.52856 5.76197L6.90063 7.11841C7.17115 7.38569 7.60873 7.38585 7.87915 7.11841C8.14956 6.85096 8.14937 6.41821 7.87915 6.15064L6.50708 4.79322L7.87915 3.43677C8.14946 3.16922 8.14955 2.73551 7.87915 2.46802Z" fill="#373844"/>
</svg>
