<svg width="48" height="48" viewBox="0 0 48 48" fill="none" xmlns="http://www.w3.org/2000/svg">
<path d="M17.253 7.98476C16.9364 7.79458 16.5573 7.73792 16.1989 7.82725C15.8405 7.91658 15.5323 8.14458 15.342 8.46112L6.98489 22.3799C6.80744 22.6959 6.76014 23.0687 6.85304 23.419C6.94593 23.7693 7.17171 24.0696 7.48243 24.2561C7.79315 24.4427 8.16435 24.5007 8.5172 24.418C8.87005 24.3353 9.17678 24.1184 9.37225 23.8132L17.7294 9.89576C17.9196 9.57916 17.9762 9.19999 17.8869 8.84163C17.7976 8.48326 17.5696 8.17505 17.253 7.98476ZM6.78571 25.8927H4V42.607H6.78571C7.15512 42.607 7.5094 42.4603 7.77061 42.1991C8.03182 41.9378 8.17857 41.5836 8.17857 41.2142V27.2856C8.17857 26.9162 8.03182 26.5619 7.77061 26.3007C7.5094 26.0395 7.15512 25.8927 6.78571 25.8927ZM41.4038 27.7564C40.9149 27.4613 40.3573 27.2994 39.7864 27.287C39.2155 27.2745 38.6513 27.4118 38.1501 27.6853L29.0283 32.5882C28.926 33.4292 28.5201 34.2039 27.8868 34.7667C27.2535 35.3294 26.4365 35.6415 25.5893 35.6441H19.99C19.8053 35.6441 19.6282 35.5707 19.4976 35.4401C19.3669 35.3095 19.2936 35.1324 19.2936 34.9477C19.2936 34.763 19.3669 34.5858 19.4976 34.4552C19.6282 34.3246 19.8053 34.2513 19.99 34.2513H25.5893C26.7412 34.2513 27.6786 33.3139 27.6786 32.162C27.677 31.62 27.4649 31.0998 27.087 30.7113C26.7092 30.3228 26.1951 30.0963 25.6534 30.0797C25.2355 30.0755 18.5052 30.0727 18.5052 30.0727L16.1276 27.6965C15.8665 27.4352 15.5122 27.2884 15.1429 27.2884H9.57143V41.2169H12.0312L16.5357 42.607C18.4077 43.2087 20.4093 43.9999 22.6281 43.9999C24.6338 43.9999 26.6089 43.3355 28.3151 42.0276L41.5793 33.2484C42.0168 32.9492 42.3748 32.548 42.6223 32.0793C42.8699 31.6107 42.9995 31.0888 43 30.5588C43 29.3985 42.4039 28.3511 41.4038 27.7564Z" fill="#1A1A1A"/>
<path d="M31.0835 7.5C36.146 7.50018 40.2495 11.6045 40.2495 16.667C40.2493 21.7293 36.1458 25.8328 31.0835 25.833C26.021 25.833 21.9167 21.7295 21.9165 16.667C21.9165 11.6044 26.0209 7.5 31.0835 7.5ZM28.5522 13.0391L28.2446 14.1787H29.7368C30.1166 14.1787 30.4231 14.2409 30.6548 14.3662C30.8863 14.4915 31.0553 14.6666 31.1616 14.8906C31.1926 14.9559 31.2178 15.0246 31.2397 15.0957H28.5181L28.2388 16.1035H31.2622C31.2343 16.2066 31.1986 16.3063 31.1499 16.4004C31.036 16.6167 30.8629 16.7889 30.6313 16.918C30.4035 17.0433 30.1133 17.1064 29.7603 17.1064H28.3989L28.4038 17.9551L31.27 21.333H32.8765V21.2588L30.2554 18.1543C30.8592 18.1011 31.3439 17.9644 31.7085 17.7441C32.0729 17.5201 32.3372 17.2279 32.5005 16.8672C32.6045 16.635 32.6746 16.3803 32.7124 16.1035H33.5708L33.8501 15.0957H32.7065C32.657 14.7677 32.5586 14.4754 32.4087 14.2188C32.3746 14.1594 32.3368 14.1028 32.2974 14.0479H33.5708L33.856 13.0391H28.5522Z" fill="#1A1A1A"/>
<path d="M17.2321 24.4999C19.1553 24.4999 20.7143 22.9409 20.7143 21.0178C20.7143 19.0947 19.1553 17.5356 17.2321 17.5356C15.309 17.5356 13.75 19.0947 13.75 21.0178C13.75 22.9409 15.309 24.4999 17.2321 24.4999Z" fill="#1A1A1A"/>
<path d="M7.48214 14.7499C9.40528 14.7499 10.9643 13.1909 10.9643 11.2678C10.9643 9.34465 9.40528 7.78564 7.48214 7.78564C5.55901 7.78564 4 9.34465 4 11.2678C4 13.1909 5.55901 14.7499 7.48214 14.7499Z" fill="#1A1A1A"/>
</svg>
