<svg width="48" height="48" viewBox="0 0 48 48" fill="none" xmlns="http://www.w3.org/2000/svg">
<path d="M36.4091 4.49976H11.5909C11.1661 4.50465 10.7572 4.66192 10.4386 4.94294C11.7028 5.38772 12.8151 6.18165 13.6465 7.23271C14.478 8.28377 14.9945 9.54894 15.1364 10.8816C15.1635 11.1172 15.1635 11.3551 15.1364 11.5907V41.727C15.1355 42.0661 15.2319 42.3983 15.4142 42.6842C15.5964 42.9701 15.8568 43.1978 16.1645 43.3402C16.473 43.4822 16.8157 43.5326 17.152 43.4855C17.4882 43.4383 17.8039 43.2956 18.0614 43.0743L23.1136 38.7488L28.1659 43.0743C28.487 43.3489 28.8956 43.4999 29.3182 43.4999C29.7407 43.4999 30.1494 43.3489 30.4704 43.0743L35.5227 38.7488L40.575 43.0743C40.8961 43.3489 41.3047 43.4998 41.7273 43.4997C41.9837 43.4979 42.2371 43.4436 42.4718 43.3402C42.7795 43.1978 43.0399 42.9701 43.2222 42.6842C43.4044 42.3983 43.5008 42.0661 43.5 41.727V11.5907C43.5 9.71004 42.7529 7.90644 41.4231 6.57663C40.0933 5.24683 38.2897 4.49976 36.4091 4.49976ZM34.6364 29.3179H24C23.5298 29.3179 23.0789 29.1312 22.7465 28.7987C22.414 28.4663 22.2273 28.0154 22.2273 27.5452C22.2273 27.0751 22.414 26.6242 22.7465 26.2917C23.0789 25.9592 23.5298 25.7725 24 25.7725H34.6364C35.1065 25.7725 35.5574 25.9592 35.8899 26.2917C36.2223 26.6242 36.4091 27.0751 36.4091 27.5452C36.4091 28.0154 36.2223 28.4663 35.8899 28.7987C35.5574 29.1312 35.1065 29.3179 34.6364 29.3179ZM34.6364 22.227H24C23.5298 22.227 23.0789 22.0403 22.7465 21.7078C22.414 21.3754 22.2273 20.9245 22.2273 20.4543C22.2273 19.9841 22.414 19.5332 22.7465 19.2008C23.0789 18.8683 23.5298 18.6816 24 18.6816H34.6364C35.1065 18.6816 35.5574 18.8683 35.8899 19.2008C36.2223 19.5332 36.4091 19.9841 36.4091 20.4543C36.4091 20.9245 36.2223 21.3754 35.8899 21.7078C35.5574 22.0403 35.1065 22.227 34.6364 22.227ZM34.6364 15.1361H24C23.5298 15.1361 23.0789 14.9493 22.7465 14.6169C22.414 14.2844 22.2273 13.8335 22.2273 13.3634C22.2273 12.8932 22.414 12.4423 22.7465 12.1099C23.0789 11.7774 23.5298 11.5907 24 11.5907H34.6364C35.1065 11.5907 35.5574 11.7774 35.8899 12.1099C36.2223 12.4423 36.4091 12.8932 36.4091 13.3634C36.4091 13.8335 36.2223 14.2844 35.8899 14.6169C35.5574 14.9493 35.1065 15.1361 34.6364 15.1361ZM11.5909 11.5907V25.7725H6.27273C5.80257 25.7725 5.35167 25.5857 5.01922 25.2533C4.68677 24.9208 4.5 24.4699 4.5 23.9998V10.8816C4.59403 9.94126 5.05775 9.07681 5.78914 8.4784C6.52053 7.87999 7.45969 7.59663 8.4 7.69066C9.34031 7.7847 10.2048 8.24841 10.8032 8.97981C11.4016 9.7112 11.6849 10.6504 11.5909 11.5907Z" fill="#1A1A1A"/>
</svg>
