<svg width="48" height="48" viewBox="0 0 48 48" fill="none" xmlns="http://www.w3.org/2000/svg">
<path d="M19.1348 11.4006L18.5234 12.5719H19.7442L19.1348 11.4006Z" fill="#1A1A1A"/>
<path d="M8.27922 31.8699H20.3616V24.4134C20.3634 23.7931 20.6107 23.1988 21.0495 22.7603C21.4883 22.3219 22.0828 22.0751 22.7031 22.0738H30.573V5.28019C30.5725 5.07343 30.4901 4.87528 30.3439 4.72908C30.1977 4.58288 29.9995 4.50051 29.7928 4.5H8.27922C8.07263 4.50077 7.87473 4.58325 7.72874 4.72942C7.58274 4.8756 7.50051 5.0736 7.5 5.28019V31.0906C7.5 31.5273 7.85031 31.8699 8.27922 31.8699ZM23.1786 10.1554C23.0738 9.98467 23.0385 9.78025 23.0799 9.58423C23.1213 9.38821 23.2362 9.2155 23.401 9.10163C23.5659 8.98776 23.7681 8.9414 23.966 8.97208C24.164 9.00276 24.3427 9.10814 24.4653 9.26656L25.4251 10.662L26.3838 9.26559C26.442 9.18129 26.5164 9.10935 26.6025 9.05392C26.6887 8.99849 26.785 8.96067 26.8858 8.94263C26.9867 8.92459 27.0901 8.92669 27.1901 8.94881C27.2902 8.97093 27.3849 9.01263 27.4687 9.07151C27.819 9.31217 27.9131 9.79639 27.6715 10.1554L26.3683 12.0428L27.6715 13.9303C27.7515 14.048 27.7979 14.1854 27.8058 14.3275C27.8137 14.4697 27.7826 14.6113 27.7161 14.7372C27.6496 14.8631 27.55 14.9685 27.4282 15.042C27.3063 15.1156 27.1666 15.1546 27.0243 15.1549C26.8974 15.1551 26.7725 15.1238 26.6607 15.0638C26.549 15.0039 26.4538 14.9171 26.3838 14.8114L25.4251 13.4237L24.4653 14.8114C24.4088 14.8973 24.3354 14.971 24.2498 15.0281C24.1641 15.0851 24.0678 15.1243 23.9666 15.1433C23.8655 15.1623 23.7615 15.1608 23.661 15.1388C23.5604 15.1167 23.4654 15.0747 23.3814 15.0152C23.2113 14.8977 23.0944 14.7178 23.0563 14.5146C23.0181 14.3115 23.0617 14.1014 23.1776 13.9303L24.4809 12.0428L23.1786 10.1554ZM17.4824 27.2993H11.6329C11.4261 27.2988 11.228 27.2165 11.0818 27.0702C10.9356 26.924 10.8532 26.7259 10.8527 26.5191C10.8527 26.0902 11.204 25.7389 11.6329 25.7389H17.4824C17.9113 25.7389 18.2626 26.0902 18.2626 26.5191C18.2621 26.7259 18.1797 26.924 18.0335 27.0702C17.8873 27.2165 17.6892 27.2988 17.4824 27.2993ZM19.035 23.2509H11.6329C11.204 23.2509 10.8527 22.9005 10.8527 22.4716C10.8527 22.0427 11.204 21.6914 11.6329 21.6914H19.035C19.4639 21.6914 19.8143 22.0418 19.8143 22.4716C19.8143 22.9015 19.4639 23.2509 19.035 23.2509ZM19.035 19.2034H11.6329C11.4261 19.2028 11.228 19.1205 11.0818 18.9743C10.9356 18.8281 10.8532 18.6299 10.8527 18.4232C10.8527 17.9943 11.204 17.643 11.6329 17.643H19.035C19.4639 17.643 19.8143 17.9943 19.8143 18.4232C19.8137 18.6298 19.7315 18.8278 19.5855 18.9739C19.4395 19.1201 19.2416 19.2026 19.035 19.2034ZM18.4421 9.35195C18.5076 9.22533 18.6066 9.11915 18.7284 9.04503C18.8502 8.97091 18.99 8.9317 19.1326 8.9317C19.2751 8.9317 19.4149 8.97091 19.5367 9.04503C19.6585 9.11915 19.7575 9.22533 19.823 9.35195L22.2558 14.0157C22.35 14.2 22.3677 14.4141 22.305 14.6114C22.2423 14.8087 22.1043 14.9733 21.921 15.0695C21.7366 15.1634 21.5227 15.1807 21.3256 15.1179C21.1285 15.055 20.9641 14.917 20.8681 14.7337L20.5556 14.1331H17.7085L17.397 14.7337C17.3302 14.8603 17.2303 14.9663 17.1079 15.0405C16.9855 15.1147 16.8453 15.1542 16.7022 15.1549C16.5778 15.1526 16.4553 15.1235 16.3432 15.0695C16.2522 15.0221 16.1716 14.9571 16.1058 14.8784C16.0401 14.7996 15.9906 14.7086 15.9602 14.6107C15.9298 14.5127 15.9191 14.4097 15.9287 14.3076C15.9383 14.2054 15.968 14.1062 16.0161 14.0157L18.4421 9.35195ZM11.0322 8.9308H15.2282C15.6571 8.9308 16.0084 9.28112 16.0084 9.71003C16.0084 10.1389 15.6571 10.4902 15.2282 10.4902H13.9114V14.3747C13.9114 14.8036 13.5601 15.1549 13.1312 15.1549C12.7023 15.1549 12.351 14.8036 12.351 14.3747V10.4902H11.0332C10.6043 10.4902 10.253 10.1389 10.253 9.71003C10.253 9.28112 10.6043 8.9308 11.0332 8.9308H11.0322Z" fill="#1A1A1A"/>
<path d="M21.9219 24.4135V32.7909H31.0785V23.6333H22.703C22.4963 23.6338 22.2981 23.7162 22.1519 23.8624C22.0057 24.0086 21.9224 24.2067 21.9219 24.4135ZM24.6826 27.4314H25.721V26.395C25.721 25.9661 26.0635 25.6148 26.5002 25.6148C26.9291 25.6148 27.2804 25.9661 27.2804 26.395V27.4324H28.309C28.7389 27.4324 29.0902 27.7827 29.0902 28.2126C29.0894 28.4192 29.0069 28.6171 28.8607 28.7631C28.7146 28.9091 28.5166 28.9913 28.31 28.9918H27.2804V30.0214C27.2804 30.4581 26.9291 30.8016 26.5002 30.8016C26.3974 30.8026 26.2955 30.7831 26.2004 30.7443C26.1053 30.7055 26.0188 30.648 25.9462 30.5754C25.8735 30.5027 25.8161 30.4163 25.7773 30.3212C25.7384 30.226 25.7189 30.1241 25.72 30.0214V28.9928H24.6826C24.4759 28.9923 24.2777 28.9099 24.1315 28.7637C23.9853 28.6175 23.903 28.4193 23.9024 28.2126C23.9024 27.7827 24.2537 27.4314 24.6826 27.4314ZM31.0785 34.3503H21.9219V42.7199C21.9219 43.1488 22.2722 43.5001 22.7021 43.5001H31.0785V34.3503ZM28.3323 39.6544C28.4047 39.7266 28.4623 39.8123 28.5015 39.9067C28.5407 40.0012 28.5609 40.1024 28.5609 40.2047C28.5609 40.3069 28.5407 40.4082 28.5015 40.5026C28.4623 40.597 28.4047 40.6827 28.3323 40.7549C28.2602 40.8285 28.1741 40.8869 28.0791 40.9268C27.9842 40.9667 27.8822 40.9873 27.7792 40.9873C27.6761 40.9873 27.5741 40.9667 27.4792 40.9268C27.3842 40.8869 27.2981 40.8285 27.226 40.7549L26.5002 40.029L25.7666 40.7549C25.6955 40.8291 25.6102 40.8882 25.5157 40.9286C25.4213 40.9689 25.3196 40.9897 25.2168 40.9897C25.1141 40.9897 25.0124 40.9689 24.9179 40.9286C24.8235 40.8882 24.7381 40.8291 24.6671 40.7549C24.5946 40.6827 24.5371 40.597 24.4979 40.5026C24.4587 40.4082 24.4385 40.3069 24.4385 40.2047C24.4385 40.1024 24.4587 40.0012 24.4979 39.9067C24.5371 39.8123 24.5946 39.7266 24.6671 39.6544L25.393 38.9218L24.6671 38.196C24.521 38.0487 24.4391 37.8497 24.4391 37.6423C24.4391 37.4349 24.521 37.236 24.6671 37.0887C24.7392 37.0164 24.8249 36.959 24.9192 36.9199C25.0136 36.8807 25.1147 36.8606 25.2168 36.8606C25.319 36.8606 25.4201 36.8807 25.5144 36.9199C25.6088 36.959 25.6944 37.0164 25.7666 37.0887L26.5002 37.8214L27.226 37.0887C27.3732 36.943 27.572 36.8612 27.7792 36.8612C27.9863 36.8612 28.1851 36.943 28.3323 37.0887C28.4783 37.236 28.5603 37.4349 28.5603 37.6423C28.5603 37.8497 28.4783 38.0487 28.3323 38.196L27.5996 38.9218L28.3323 39.6544ZM41.7877 24.4135C41.7872 24.2069 41.705 24.0089 41.559 23.8627C41.413 23.7165 41.2151 23.6341 41.0085 23.6333H32.6389V32.7909H41.7877V24.4135ZM39.0269 28.9918H35.3996C35.1932 28.991 34.9955 28.9087 34.8495 28.7627C34.7035 28.6168 34.6212 28.419 34.6204 28.2126C34.6204 27.7827 34.9707 27.4324 35.3996 27.4324H39.0269C39.4559 27.4324 39.8071 27.7827 39.8071 28.2126C39.8064 28.4192 39.7239 28.6171 39.5777 28.7631C39.4315 28.9091 39.2335 28.9913 39.0269 28.9918ZM41.7877 42.7199V34.3503H32.6398V43.5001H41.0095C41.2161 43.4993 41.414 43.4169 41.5599 43.2707C41.7059 43.1245 41.7872 42.9265 41.7877 42.7199ZM39.0269 40.9577H35.3996C35.193 40.9569 34.9951 40.8744 34.8491 40.7283C34.7031 40.5821 34.6209 40.3841 34.6204 40.1775C34.6204 39.7486 34.9707 39.3973 35.3996 39.3973H39.0269C39.4559 39.3973 39.8071 39.7486 39.8071 40.1775C39.8066 40.3843 39.7243 40.5824 39.5781 40.7286C39.4319 40.8748 39.2337 40.9572 39.0269 40.9577ZM39.0269 38.4541H35.3996C35.193 38.4533 34.9951 38.3708 34.8491 38.2247C34.7031 38.0785 34.6209 37.8805 34.6204 37.6739C34.6204 37.244 34.9707 36.8937 35.3996 36.8937H39.0269C39.4559 36.8937 39.8071 37.244 39.8071 37.6739C39.8064 37.8805 39.7239 38.0784 39.5777 38.2244C39.4315 38.3704 39.2335 38.4536 39.0269 38.4541Z" fill="#1A1A1A"/>
</svg>
