<svg width="24" height="24" viewBox="0 0 24 24" fill="none" xmlns="http://www.w3.org/2000/svg">
<path d="M6.075 21H17.925C19.65 21 21 19.65 21 17.925V6.075C21 4.35 19.65 3 17.925 3H6.075C4.35 3 3 4.35 3 6.075V17.925C3 19.65 4.35 21 6.075 21ZM10.05 7.125H17.25C17.625 7.125 18 7.425 18 7.875C18 8.25 17.625 8.625 17.25 8.625H10.05C9.6 8.625 9.3 8.25 9.3 7.875C9.3 7.425 9.6 7.125 10.05 7.125ZM10.05 11.25H17.25C17.625 11.25 18 11.625 18 12C18 12.375 17.625 12.75 17.25 12.75H10.05C9.6 12.75 9.3 12.375 9.3 12C9.3 11.625 9.6 11.25 10.05 11.25ZM10.05 15.375H17.25C17.625 15.375 18 15.75 18 16.125C18 16.575 17.625 16.875 17.25 16.875H10.05C9.6 16.875 9.3 16.575 9.3 16.125C9.3 15.75 9.6 15.375 10.05 15.375ZM6.3 7.2C6.675 6.975 6.975 7.05 7.275 7.275C7.575 7.5 7.575 8.025 7.275 8.325C6.975 8.7 6.45 8.625 6.225 8.4C5.925 8.1 5.85 7.575 6.3 7.2ZM7.275 12.525C6.975 12.825 6.525 12.825 6.225 12.525C6 12.3 5.925 11.85 6.225 11.475C6.525 11.175 6.975 11.175 7.275 11.475C7.575 11.775 7.575 12.225 7.275 12.525ZM6.225 15.6C6.45 15.3 7.05 15.3 7.275 15.6C7.575 15.9 7.575 16.425 7.275 16.65C6.975 16.95 6.525 16.95 6.225 16.65C5.925 16.425 5.925 15.975 6.225 15.6Z" fill="#1A1A1A"/>
</svg>
