<svg width="48" height="48" viewBox="0 0 48 48" fill="none" xmlns="http://www.w3.org/2000/svg">
<path fill-rule="evenodd" clip-rule="evenodd" d="M34.3229 5.31679C33.8006 4.79871 33.0963 4.50562 32.3607 4.50024H7.29117C6.5521 4.50631 5.84425 4.79906 5.3168 5.31679C4.79464 5.8413 4.50111 6.55102 4.50025 7.29113V40.7086C4.49533 41.0765 4.56416 41.4416 4.70268 41.7824C4.84119 42.1232 5.04659 42.4329 5.30673 42.693C5.56688 42.9532 5.87651 43.1586 6.21734 43.2971C6.55817 43.4356 6.9233 43.5044 7.29117 43.4995H24.7557C24.262 42.6522 24.0013 41.6893 24.0001 40.7086V25.3892C24.0033 23.9131 24.5912 22.4983 25.635 21.4545C26.6788 20.4107 28.0936 19.8229 29.5698 19.8196H35.1394V7.29113C35.1373 6.55129 34.8439 5.84204 34.3229 5.31679ZM8.66835 10.0698H17.0289V12.8607H8.66835V10.0698ZM15.6274 33.7497H8.66835V30.9588H15.6274V33.7497ZM21.197 33.7497H18.4183V30.9588H21.197V33.7497ZM21.197 26.7908H8.66835V23.9999H21.197V26.7908ZM21.197 19.8318H8.66835V17.0409H21.197V19.8318Z" fill="#1A1A1A"/>
<path fill-rule="evenodd" clip-rule="evenodd" d="M40.7091 22.6113H29.5698C28.8296 22.6113 28.1197 22.9054 27.5963 23.4288C27.0729 23.9522 26.7788 24.662 26.7788 25.4022V40.7094C26.7772 41.0764 26.8483 41.44 26.988 41.7794C27.1277 42.1187 27.3332 42.427 27.5927 42.6865C27.8522 42.946 28.1605 43.1515 28.4998 43.2911C28.8391 43.4308 29.2028 43.5019 29.5698 43.5003H40.7091C41.4493 43.5003 42.1591 43.2063 42.6825 42.6829C43.2059 42.1595 43.5 41.4496 43.5 40.7094V25.39C43.4968 24.6519 43.2013 23.9452 42.6782 23.4244C42.1552 22.9037 41.4472 22.6113 40.7091 22.6113ZM33.75 39.3323H30.9591V36.5414H33.75V39.3323ZM33.75 35.152H30.9591V32.3611H33.75V35.152ZM39.3197 39.3323H36.5288V36.5414H39.3197V39.3323ZM39.3197 35.152H36.5288V32.3611H39.3197V35.152ZM39.3197 29.5824H30.9591V26.7916H39.3197V29.5824Z" fill="#1A1A1A"/>
</svg>
