<svg width="24" height="24" viewBox="0 0 24 24" fill="none" xmlns="http://www.w3.org/2000/svg">
<path d="M2 7.14286C2 6.57454 2.22576 6.02949 2.62763 5.62763C3.02949 5.22576 3.57454 5 4.14286 5H19.1429C19.7112 5 20.2562 5.22576 20.6581 5.62763C21.0599 6.02949 21.2857 6.57454 21.2857 7.14286V17.8571C21.2857 18.4255 21.0599 18.9705 20.6581 19.3724C20.2562 19.7742 19.7112 20 19.1429 20H4.14286C3.57454 20 3.02949 19.7742 2.62763 19.3724C2.22576 18.9705 2 18.4255 2 17.8571V7.14286Z" stroke="#1A1A1A" stroke-width="1.5" stroke-linecap="round" stroke-linejoin="round"/>
<path d="M2 7.14282L11.6429 13.5714L21.2857 7.14282" stroke="#1A1A1A" stroke-width="1.5" stroke-linecap="round" stroke-linejoin="round"/>
</svg>
