<svg width="24" height="24" viewBox="0 0 24 24" fill="none" xmlns="http://www.w3.org/2000/svg">
<path d="M8.76 16.5L12 13.26L15.24 16.5L16.5 15.24L13.26 12L16.5 8.76L15.24 7.5L12 10.74L8.76 7.5L7.5 8.76L10.74 12L7.5 15.24L8.76 16.5ZM12 21C10.755 21 9.585 20.7636 8.49 20.2908C7.395 19.818 6.4425 19.1769 5.6325 18.3675C4.8225 17.5581 4.1814 16.6056 3.7092 15.51C3.237 14.4144 3.0006 13.2444 3 12C2.9994 10.7556 3.2358 9.5856 3.7092 8.49C4.1826 7.3944 4.8237 6.4419 5.6325 5.6325C6.4413 4.8231 7.3938 4.182 8.49 3.7092C9.5862 3.2364 10.7562 3 12 3C13.2438 3 14.4138 3.2364 15.51 3.7092C16.6062 4.182 17.5587 4.8231 18.3675 5.6325C19.1763 6.4419 19.8177 7.3944 20.2917 8.49C20.7657 9.5856 21.0018 10.7556 21 12C20.9982 13.2444 20.7618 14.4144 20.2908 15.51C19.8198 16.6056 19.1787 17.5581 18.3675 18.3675C17.5563 19.1769 16.6038 19.8183 15.51 20.2917C14.4162 20.7651 13.2462 21.0012 12 21Z" fill="#373844"/>
</svg>
