<svg width="24" height="24" viewBox="0 0 24 24" fill="none" xmlns="http://www.w3.org/2000/svg">
<path d="M17 20C16.3333 20 15.7667 19.7667 15.3 19.3C14.8333 18.8333 14.6 18.2667 14.6 17.6C14.6 17.52 14.62 17.3333 14.66 17.04L9.04 13.76C8.82667 13.96 8.58 14.1168 8.3 14.2304C8.02 14.344 7.72 14.4005 7.4 14.4C6.73333 14.4 6.16667 14.1667 5.7 13.7C5.23333 13.2333 5 12.6667 5 12C5 11.3333 5.23333 10.7667 5.7 10.3C6.16667 9.83333 6.73333 9.6 7.4 9.6C7.72 9.6 8.02 9.6568 8.3 9.7704C8.58 9.884 8.82667 10.0405 9.04 10.24L14.66 6.96C14.6333 6.86667 14.6168 6.7768 14.6104 6.6904C14.604 6.604 14.6005 6.5072 14.6 6.4C14.6 5.73333 14.8333 5.16667 15.3 4.7C15.7667 4.23333 16.3333 4 17 4C17.6667 4 18.2333 4.23333 18.7 4.7C19.1667 5.16667 19.4 5.73333 19.4 6.4C19.4 7.06667 19.1667 7.63333 18.7 8.1C18.2333 8.56667 17.6667 8.8 17 8.8C16.68 8.8 16.38 8.7432 16.1 8.6296C15.82 8.516 15.5733 8.35947 15.36 8.16L9.74 11.44C9.76667 11.5333 9.78347 11.6235 9.7904 11.7104C9.79733 11.7973 9.80053 11.8939 9.8 12C9.79947 12.1061 9.79627 12.2029 9.7904 12.2904C9.78453 12.3779 9.76773 12.4677 9.74 12.56L15.36 15.84C15.5733 15.64 15.82 15.4835 16.1 15.3704C16.38 15.2573 16.68 15.2005 17 15.2C17.6667 15.2 18.2333 15.4333 18.7 15.9C19.1667 16.3667 19.4 16.9333 19.4 17.6C19.4 18.2667 19.1667 18.8333 18.7 19.3C18.2333 19.7667 17.6667 20 17 20Z" fill="#1A1A1A"/>
</svg>
