<svg width="40" height="40" viewBox="0 0 40 40" fill="none" xmlns="http://www.w3.org/2000/svg">
<path d="M12.6545 23.5188C12.6545 23.7438 12.4711 23.9239 12.2483 23.9239C12.0227 23.9239 11.8421 23.741 11.8421 23.5188V13.5952H3.31236V33.5943H4.71988C4.94554 33.5943 5.12606 33.7772 5.12606 33.9994C5.12606 34.2245 4.94272 34.4046 4.71988 34.4046H2.90618C2.68052 34.4046 2.5 34.2217 2.5 33.9994V13.3785C2.5 13.2153 2.5677 13.0662 2.67488 12.9565C2.78207 12.8495 2.93157 12.782 3.09799 12.782H11.8421V4.87859C11.8421 4.68445 11.9211 4.50438 12.0509 4.37777V4.37496C12.1806 4.24553 12.3583 4.16675 12.5558 4.16675H27.04C27.2375 4.16675 27.4152 4.24553 27.5449 4.37496L27.576 4.40872C27.686 4.53533 27.7565 4.69852 27.7565 4.87859V12.782H36.5627C36.7263 12.782 36.8758 12.8495 36.983 12.9565L36.9858 12.9593C37.093 13.0662 37.1607 13.2153 37.1607 13.3785V33.9994C37.1607 34.2245 36.9773 34.4046 36.7545 34.4046H34.1764C33.9507 34.4046 33.7702 34.2217 33.7702 33.9994C33.7702 33.7744 33.9535 33.5943 34.1764 33.5943H36.3483V13.5952H27.7537V23.4006C27.7537 23.6257 27.5703 23.8057 27.3475 23.8057C27.1218 23.8057 26.9413 23.6229 26.9413 23.4006V4.97707H12.6545V23.5188ZM29.903 23.4512H34.3879C34.4246 23.4512 34.4556 23.4737 34.4556 23.4991V24.8215C34.4556 24.8496 34.4246 24.8721 34.3879 24.8721H29.903C29.8664 24.8721 29.8353 24.8496 29.8353 24.8215V23.4991C29.8353 23.4737 29.8664 23.4512 29.903 23.4512ZM5.23889 23.4512H9.72379C9.76046 23.4512 9.79149 23.4737 9.79149 23.4991V24.8215C9.79149 24.8496 9.76046 24.8721 9.72379 24.8721H5.23889C5.20222 24.8721 5.1712 24.8496 5.1712 24.8215V23.4991C5.1712 23.4737 5.20222 23.4512 5.23889 23.4512ZM14.4767 6.54988H25.122C25.2997 6.54988 25.4463 6.69618 25.4463 6.87344V10.337C25.4463 10.5143 25.2997 10.6606 25.122 10.6606H14.4767C14.299 10.6606 14.1523 10.5143 14.1523 10.337V6.87344C14.1495 6.69618 14.2961 6.54988 14.4767 6.54988ZM29.9735 33.7153C29.6774 33.1216 29.3022 32.618 28.8622 32.1453C29.6858 32.4632 30.5292 32.7783 31.1526 33.1694C32.2865 33.8785 32.3711 34.7366 32.4642 35.969H26.8426C26.8426 35.9605 26.8426 35.9493 26.8426 35.9408L26.7382 35.0602L27.1416 35.4091L29.1161 33.6956L29.9735 33.7153ZM9.85636 32.3253L10.57 34.4187L10.9282 33.1751L10.7533 32.9837C10.6744 32.8684 10.6574 32.7671 10.6998 32.6799C10.7957 32.4914 10.9931 32.5279 11.1764 32.5279C11.3683 32.5279 11.608 32.4914 11.6672 32.7333C11.687 32.8149 11.6616 32.8993 11.6052 32.9865L11.4303 33.1779L11.7885 34.4215L12.4345 32.3282C12.5276 32.4126 12.6601 32.4829 12.8125 32.5448C12.7589 32.6574 12.7109 32.7727 12.6686 32.8965C12.5586 33.2145 12.4881 33.5662 12.457 33.9572H12.4599C12.4599 33.9657 12.4599 33.9769 12.457 33.9854L12.3019 35.9718H7.13722C6.82694 35.9493 6.66898 35.7889 6.6436 35.5132L6.75078 34.4159C6.78181 34.0248 6.89182 33.7181 7.06952 33.4817C7.18799 33.327 7.33467 33.2116 7.49545 33.1216C8.00881 32.8262 9.39095 32.7446 9.85636 32.3253ZM9.5066 29.357C9.43608 29.3626 9.38531 29.3795 9.34582 29.402C9.32325 29.4161 9.30915 29.4358 9.29787 29.4583C9.28659 29.4836 9.28094 29.5174 9.28094 29.5539C9.28376 29.6693 9.34582 29.8241 9.46711 30.0013L9.46993 30.0041L9.86765 30.6372C10.0256 30.8904 10.1948 31.1464 10.3979 31.335C10.5926 31.5122 10.8323 31.6332 11.1454 31.636C11.4867 31.636 11.7349 31.5122 11.938 31.3237C12.1496 31.1268 12.3188 30.851 12.4853 30.5781L12.9337 29.8409C13.024 29.6355 13.0522 29.5117 13.024 29.4527C13.0071 29.4161 12.9309 29.4076 12.8096 29.4161C12.7306 29.433 12.6517 29.4189 12.5642 29.3739L12.7871 28.7042C11.9662 28.693 11.4021 28.5523 10.7392 28.1274C10.522 27.9896 10.4544 27.8292 10.2372 27.8433C10.0707 27.8742 9.93252 27.9502 9.82252 28.0684C9.71533 28.1809 9.63635 28.3357 9.58558 28.5354L9.71815 29.3401C9.64763 29.3823 9.57712 29.3851 9.5066 29.357ZM13.0635 29.1572C13.1594 29.1854 13.2299 29.2416 13.275 29.326C13.3427 29.4639 13.3174 29.6665 13.1904 29.9535C13.1876 29.9591 13.1848 29.9647 13.182 29.9704L12.7278 30.716C12.5529 31.0058 12.3724 31.2956 12.1327 31.5207C11.8816 31.7542 11.5742 31.9089 11.1511 31.9089C10.7562 31.9089 10.46 31.757 10.2174 31.5347C9.9833 31.3209 9.80559 31.048 9.63917 30.7807L9.24145 30.1476C9.09196 29.9253 9.0158 29.7228 9.01016 29.5568C9.00734 29.4752 9.02144 29.402 9.05247 29.3373C9.0835 29.2698 9.13427 29.2107 9.19914 29.1685C9.23017 29.146 9.26684 29.1291 9.30915 29.115C9.28376 28.7774 9.2753 28.3582 9.29223 28.0036C9.30069 27.9164 9.31761 27.832 9.34018 27.7448C9.44172 27.3818 9.69841 27.0892 10.0143 26.8895C10.1272 26.8191 10.2484 26.76 10.3782 26.7122C11.1454 26.4365 12.1609 26.5856 12.7053 27.1736C12.9281 27.4128 13.0663 27.7307 13.0945 28.15L13.0635 29.1572ZM17.0773 26.3549C16.9871 26.3661 16.9194 26.3886 16.8686 26.4196C16.8348 26.4421 16.8122 26.4702 16.7981 26.5012C16.7812 26.5406 16.7727 26.5884 16.7727 26.6419C16.7783 26.8135 16.8714 27.0442 17.0491 27.3087L17.052 27.3143L17.6471 28.2597C17.8841 28.6367 18.1323 29.0194 18.4397 29.3007C18.7331 29.568 19.0857 29.7481 19.5539 29.7481C20.0616 29.7481 20.434 29.5624 20.733 29.281C21.0489 28.9856 21.3027 28.5776 21.5481 28.1696L22.2166 27.0723C22.352 26.7657 22.3915 26.58 22.3492 26.4956C22.321 26.4393 22.2054 26.4252 22.0079 26.4449C21.9938 26.4449 21.9769 26.4449 21.9628 26.4449C21.881 26.4449 21.7935 26.4252 21.6948 26.3802L21.9966 25.3785C20.7696 25.3645 19.9319 25.1506 18.939 24.5176C18.6118 24.3094 18.5159 24.073 18.1887 24.0955C17.9433 24.1434 17.7346 24.2531 17.571 24.4304C17.413 24.5992 17.2945 24.8299 17.2156 25.1281L17.4271 26.3408C17.3058 26.3971 17.1873 26.4027 17.0773 26.3549ZM17.6302 30.7807L18.6964 33.9066L19.2323 32.0524L18.97 31.7654C18.8516 31.5938 18.8262 31.4419 18.891 31.3125C19.0321 31.0311 19.3282 31.0845 19.6019 31.0845C19.8896 31.0845 20.245 31.0311 20.3352 31.3884C20.3663 31.5094 20.3268 31.6332 20.2422 31.7654L19.9798 32.0524L20.5158 33.9066L21.4804 30.7807C22.1771 31.4053 23.9683 31.5319 24.7355 31.9568C24.9442 32.0721 25.1332 32.2156 25.294 32.3985C25.2968 32.3788 25.3025 32.3563 25.3138 32.3394C25.3984 32.1734 25.5733 32.2044 25.7369 32.2044C25.9089 32.2044 26.1205 32.1734 26.1741 32.3872C26.191 32.4576 26.1684 32.5336 26.1205 32.6123L25.9653 32.784L26.2841 33.8869L25.8751 34.2105L26.0105 35.9802C25.971 36.3938 25.7369 36.6302 25.2743 36.6667H13.8392C13.3766 36.6302 13.1425 36.3938 13.103 35.9802L13.2638 33.8953C13.3089 33.3129 13.4725 32.8515 13.7405 32.4998C13.9153 32.2691 14.1354 32.0974 14.3779 31.9624C15.1423 31.5319 16.9335 31.4053 17.6302 30.7807ZM22.4141 26.0538C22.5579 26.096 22.6651 26.1776 22.73 26.307C22.8315 26.5124 22.7921 26.8135 22.6031 27.244C22.6003 27.2524 22.5946 27.2609 22.5918 27.2693L21.912 28.3835C21.6497 28.8168 21.3817 29.2473 21.0235 29.5821C20.6483 29.931 20.1886 30.1645 19.5595 30.1617C18.97 30.1617 18.5272 29.9366 18.1633 29.6046C17.8135 29.2867 17.5512 28.8787 17.2973 28.4791L16.7022 27.5338C16.4793 27.2046 16.3665 26.9007 16.3581 26.6503C16.3552 26.5293 16.375 26.4196 16.4201 26.3239C16.4681 26.2226 16.5414 26.1354 16.6401 26.0707C16.6881 26.0369 16.7445 26.0116 16.8037 25.9891C16.7671 25.4827 16.7558 24.858 16.7783 24.3319C16.7924 24.2025 16.815 24.0758 16.8517 23.9464C17.004 23.4034 17.3848 22.9673 17.8587 22.669C18.0251 22.5621 18.2084 22.4749 18.4002 22.4074C19.5426 21.9938 21.0602 22.2189 21.8725 23.0967C22.2025 23.454 22.4113 23.9267 22.4564 24.5513L22.4141 26.0538ZM24.4817 31.214L25.0063 31.1999L25.4435 31.1887C24.9358 29.6271 25.105 28.1922 26.3292 26.9711C26.5379 27.6407 27.0034 28.195 27.796 28.6029C28.1739 28.8843 28.5406 29.2219 28.896 29.613C28.9581 29.3542 28.7183 29.0419 28.4278 28.7183C28.6958 28.8505 28.944 29.0362 29.1189 29.3936C29.322 29.8072 29.3191 30.1561 29.2514 30.6062C29.2204 30.8144 29.1696 31.0114 29.0963 31.1887H29.8212C30.5856 29.5568 30.1005 27.1342 28.5378 26.1073C28.0583 25.7922 27.7142 25.8034 27.15 25.8034C26.5069 25.8034 26.1769 25.8231 25.624 26.1889C24.8117 26.7263 24.3096 27.6548 24.1009 28.9434C24.0585 29.5877 24.0303 30.6991 24.4817 31.214ZM29.903 20.5616H34.3879C34.4246 20.5616 34.4556 20.5842 34.4556 20.6123V21.9347C34.4556 21.9628 34.4246 21.9853 34.3879 21.9853H29.903C29.8664 21.9853 29.8353 21.9628 29.8353 21.9347V20.6123C29.8353 20.5842 29.8664 20.5616 29.903 20.5616ZM29.903 17.6693H34.3879C34.4246 17.6693 34.4556 17.6918 34.4556 17.7199V19.0423C34.4556 19.0704 34.4246 19.0929 34.3879 19.0929H29.903C29.8664 19.0929 29.8353 19.0704 29.8353 19.0423V17.7199C29.8353 17.6918 29.8664 17.6693 29.903 17.6693ZM5.23889 20.5616H9.72379C9.76046 20.5616 9.79149 20.5842 9.79149 20.6123V21.9347C9.79149 21.9628 9.76046 21.9853 9.72379 21.9853H5.23889C5.20222 21.9853 5.1712 21.9628 5.1712 21.9347V20.6123C5.1712 20.5842 5.20222 20.5616 5.23889 20.5616ZM5.23889 17.6693H9.72379C9.76046 17.6693 9.79149 17.6918 9.79149 17.7199V19.0423C9.79149 19.0704 9.76046 19.0929 9.72379 19.0929H5.23889C5.20222 19.0929 5.1712 19.0704 5.1712 19.0423V17.7199C5.1712 17.6918 5.20222 17.6693 5.23889 17.6693ZM22.7159 17.9759H25.1107C25.1473 17.9759 25.1784 18.0069 25.1784 18.0435V20.4322C25.1784 20.4688 25.1473 20.4998 25.1107 20.4998H22.7159C22.6792 20.4998 22.6482 20.4688 22.6482 20.4322V18.0435C22.6482 18.0069 22.6792 17.9759 22.7159 17.9759ZM18.6005 17.9759H20.9953C21.0319 17.9759 21.063 18.0069 21.063 18.0435V20.4322C21.063 20.4688 21.0319 20.4998 20.9953 20.4998H18.6005C18.5638 20.4998 18.5328 20.4688 18.5328 20.4322V18.0435C18.5328 18.0069 18.5638 17.9759 18.6005 17.9759ZM14.4851 17.9759H16.8799C16.9166 17.9759 16.9476 18.0069 16.9476 18.0435V20.4322C16.9476 20.4688 16.9166 20.4998 16.8799 20.4998H14.4851C14.4485 20.4998 14.4174 20.4688 14.4174 20.4322V18.0435C14.4174 18.0069 14.4485 17.9759 14.4851 17.9759ZM22.7159 13.3419H25.1107C25.1473 13.3419 25.1784 13.3729 25.1784 13.4095V15.7982C25.1784 15.8348 25.1473 15.8657 25.1107 15.8657H22.7159C22.6792 15.8657 22.6482 15.8348 22.6482 15.7982V13.4095C22.6482 13.3701 22.6792 13.3419 22.7159 13.3419ZM18.6005 13.3419H20.9953C21.0319 13.3419 21.063 13.3729 21.063 13.4095V15.7982C21.063 15.8348 21.0319 15.8657 20.9953 15.8657H18.6005C18.5638 15.8657 18.5328 15.8348 18.5328 15.7982V13.4095C18.5328 13.3701 18.5638 13.3419 18.6005 13.3419ZM14.4851 13.3419H16.8799C16.9166 13.3419 16.9476 13.3729 16.9476 13.4095V15.7982C16.9476 15.8348 16.9166 15.8657 16.8799 15.8657H14.4851C14.4485 15.8657 14.4174 15.8348 14.4174 15.7982V13.4095C14.4174 13.3701 14.4485 13.3419 14.4851 13.3419Z" fill="#1A1A1A"/>
</svg>
