<svg width="24" height="24" viewBox="0 0 24 24" fill="none" xmlns="http://www.w3.org/2000/svg">
<path d="M8.625 10.875H5.25C4.65326 10.875 4.08097 10.6379 3.65901 10.216C3.23705 9.79403 3 9.22174 3 8.625V5.25C3 4.65326 3.23705 4.08097 3.65901 3.65901C4.08097 3.23705 4.65326 3 5.25 3H8.625C9.22174 3 9.79403 3.23705 10.216 3.65901C10.6379 4.08097 10.875 4.65326 10.875 5.25V8.625C10.875 9.22174 10.6379 9.79403 10.216 10.216C9.79403 10.6379 9.22174 10.875 8.625 10.875ZM17.0625 10.875C16.0182 10.875 15.0167 10.4602 14.2783 9.72173C13.5398 8.98331 13.125 7.98179 13.125 6.9375C13.125 5.89321 13.5398 4.89169 14.2783 4.15327C15.0167 3.41484 16.0182 3 17.0625 3C18.1068 3 19.1083 3.41484 19.8467 4.15327C20.5852 4.89169 21 5.89321 21 6.9375C21 7.98179 20.5852 8.98331 19.8467 9.72173C19.1083 10.4602 18.1068 10.875 17.0625 10.875ZM18.75 21H15.375C14.7783 21 14.206 20.7629 13.784 20.341C13.3621 19.919 13.125 19.3467 13.125 18.75V15.375C13.125 14.7783 13.3621 14.206 13.784 13.784C14.206 13.3621 14.7783 13.125 15.375 13.125H18.75C19.3467 13.125 19.919 13.3621 20.341 13.784C20.7629 14.206 21 14.7783 21 15.375V18.75C21 19.3467 20.7629 19.919 20.341 20.341C19.919 20.7629 19.3467 21 18.75 21ZM8.625 21H5.25C4.65326 21 4.08097 20.7629 3.65901 20.341C3.23705 19.919 3 19.3467 3 18.75V15.375C3 14.7783 3.23705 14.206 3.65901 13.784C4.08097 13.3621 4.65326 13.125 5.25 13.125H8.625C9.22174 13.125 9.79403 13.3621 10.216 13.784C10.6379 14.206 10.875 14.7783 10.875 15.375V18.75C10.875 19.3467 10.6379 19.919 10.216 20.341C9.79403 20.7629 9.22174 21 8.625 21Z" fill="#1A1A1A"/>
</svg>
