<svg width="48" height="48" viewBox="0 0 48 48" fill="none" xmlns="http://www.w3.org/2000/svg">
<path d="M6.78516 32.4551H4.5V43.5H15.5449V41.2148H6.78516V32.4551ZM32.4551 41.2148V43.5H43.5V32.4551H41.2148V41.2148H32.4551ZM15.5449 6.78516V4.5H4.5V15.5449H6.78516V6.78516H15.5449ZM43.5 15.5449V4.5H32.4551V6.78516H41.2148V15.5449H43.5ZM16.89 25.8683V22.0871C16.89 21.5586 16.46 21.1287 15.9316 21.1287C15.4032 21.1287 14.9732 21.5586 14.9732 22.0871V25.8683C14.9732 26.3968 15.4032 26.8267 15.9316 26.8267C16.46 26.8267 16.89 26.3967 16.89 25.8683ZM32.8915 22.0608C32.8915 21.5555 32.4108 21.1286 31.8419 21.1286H30.8631V22.993H31.842C32.4108 22.993 32.8915 22.5661 32.8915 22.0608Z" fill="#1A1A1A"/>
<path d="M9.07031 9.07031V38.9297H38.9297V9.07031H9.07031ZM12.688 25.8683V22.0871C12.688 20.2986 14.1431 18.8435 15.9316 18.8435C17.72 18.8435 19.1751 20.2986 19.1751 22.0871V25.8683C19.1751 27.6569 17.72 29.1119 15.9316 29.1119C14.1431 29.1119 12.688 27.6568 12.688 25.8683ZM23.868 26.8267C24.3965 26.8267 24.8264 26.3968 24.8264 25.8683H27.1115C27.1115 27.6569 25.6564 29.1119 23.868 29.1119C22.0796 29.1119 20.6244 27.6569 20.6244 25.8683V22.0871C20.6244 20.2986 22.0795 18.8435 23.868 18.8435C25.6565 18.8435 27.1115 20.2986 27.1115 22.0871H24.8264C24.8264 21.5586 24.3964 21.1287 23.868 21.1287C23.3396 21.1287 22.9096 21.5586 22.9096 22.0871V25.8683C22.9096 26.3967 23.3395 26.8267 23.868 26.8267ZM35.2551 29.0203H32.8546L31.6508 25.2782H30.8631V29.0203H28.5779V18.8435H31.842C33.6808 18.8435 35.1767 20.2868 35.1767 22.0608C35.1767 23.1108 34.6526 24.0447 33.8435 24.6324L35.2551 29.0203Z" fill="#1A1A1A"/>
</svg>
