<svg width="24" height="24" viewBox="0 0 24 24" fill="none" xmlns="http://www.w3.org/2000/svg">
<path d="M13.5 3.70804C14.1825 3.24308 14.9901 2.9962 15.816 3.00004C16.9299 3.00004 17.9982 3.44254 18.7858 4.23019C19.5735 5.01784 20.016 6.08613 20.016 7.20003C20.016 8.31394 19.5735 9.38222 18.7858 10.1699C17.9982 10.9575 16.9299 11.4 15.816 11.4C14.9901 11.4039 14.1825 11.157 13.5 10.692C14.2289 9.67354 14.6209 8.45249 14.6209 7.20003C14.6209 5.94758 14.2289 4.72652 13.5 3.70804Z" fill="#1A1A1A"/>
<path d="M17.8 18.6V21H1V18.6C1 18.6 1 13.8 9.39998 13.8C17.8 13.8 17.8 18.6 17.8 18.6ZM13.6 7.19999C13.6 6.36931 13.3536 5.55729 12.8921 4.8666C12.4306 4.17592 11.7747 3.63759 11.0072 3.31971C10.2398 3.00182 9.39532 2.91865 8.5806 3.0807C7.76588 3.24276 7.01752 3.64277 6.43014 4.23015C5.84276 4.81753 5.44275 5.5659 5.28069 6.38061C5.11863 7.19533 5.20181 8.03981 5.5197 8.80726C5.83758 9.57471 6.37591 10.2307 7.06659 10.6922C7.75728 11.1537 8.5693 11.4 9.39998 11.4C10.5139 11.4 11.5822 10.9575 12.3698 10.1698C13.1575 9.38218 13.6 8.3139 13.6 7.19999Z" fill="#1A1A1A"/>
<path d="M17.7684 16.1258C17.3413 15.2965 16.7377 14.5709 16 14C23.272 14.444 23.272 18.8 23.272 18.8V21H18.472V18.8C18.4357 17.8679 18.1955 16.9551 17.7684 16.1258Z" fill="#1A1A1A"/>
</svg>
