<svg width="48" height="48" viewBox="0 0 48 48" fill="none" xmlns="http://www.w3.org/2000/svg">
<path d="M11.3851 41.8741L7.69665 44L1 32.4031L4.68847 30.2772L5.30499 31.3401L5.31562 31.3508L10.758 40.7792L10.7686 40.8005C10.7792 40.8111 10.7792 40.8218 10.7899 40.8324L11.3851 41.8741ZM46.6966 36.6231C46.6541 37.0482 46.2396 37.5478 45.5061 38.0474C43.6566 39.3123 39.8937 40.5348 35.4505 41.3107C31.2625 42.0442 27.4039 42.2142 25.6182 41.7359C24.2469 41.3745 23.0352 40.5029 21.8659 39.6631C20.4628 38.6533 19.0065 37.601 17.242 37.399C15.3925 37.1864 13.5217 37.9199 11.3851 39.695L6.50613 31.2445L9.48242 29.2567C11.3639 27.9918 15.2543 27.0777 19.6443 26.8545C24.0237 26.6312 27.946 27.1627 29.8806 28.2257C30.731 28.6934 31.1562 29.2355 31.1455 29.8414C31.1349 30.1815 30.9967 30.3303 30.9011 30.426C30.1464 31.085 27.9035 30.8299 26.1071 30.628C24.0343 30.3941 22.5356 30.224 22.0679 31.085C21.7065 31.7441 22.2379 32.52 22.6631 33.0515C23.7792 34.4227 29.8168 37.2396 35.6738 37.2396C36.3009 37.2396 36.928 37.2077 37.5446 37.1333C38.076 37.0695 38.9264 36.8463 39.9043 36.5912C42.0196 36.0278 45.5593 35.0924 46.4947 35.9002C46.601 35.9747 46.7498 36.1554 46.6966 36.6231ZM25.8733 5C21.0581 5 17.1464 8.91169 17.1464 13.7269C17.1464 18.5421 21.0581 22.4644 25.8733 22.4644C30.6885 22.4644 34.6108 18.5421 34.6108 13.7269C34.6002 8.92232 30.6885 5 25.8733 5ZM28.7858 11.5372C28.7751 11.8348 28.52 12.0793 28.2224 12.0687C27.9248 12.0581 27.6803 11.8029 27.6909 11.5053C27.7334 10.4105 26.9894 9.79395 26.224 9.68765C26.1071 9.66639 25.9902 9.66639 25.8733 9.66639C25.193 9.69828 24.4276 10.1128 24.13 11.2289C23.9812 11.8029 24.0769 12.4726 25.9158 13.1423C26.6386 13.408 28.9665 14.4285 28.6901 16.5863C28.5838 17.7449 27.5527 18.5634 26.4154 18.8291V20.0196C26.4154 20.3173 26.1709 20.5617 25.8733 20.5617C25.5756 20.5617 25.3312 20.3173 25.3312 20.0196V18.9035C24.1938 18.7866 22.9501 17.9681 22.9608 16.0016C22.9608 15.704 23.2052 15.4595 23.5029 15.4595H23.5135C23.8111 15.4595 24.0556 15.7146 24.0556 16.0123C24.045 17.5217 24.9804 17.798 25.5331 17.8193H25.8095C26.6599 17.7555 27.5421 17.224 27.6059 16.48V16.4587C27.7866 15.0981 26.0646 14.3647 25.5437 14.1733C24.7997 13.897 22.5249 13.0785 23.0777 10.9526C23.4391 9.58136 24.3639 8.86917 25.3312 8.64595V7.4767C25.3312 7.17907 25.5756 6.93459 25.8733 6.93459C26.1815 6.93459 26.4154 7.17907 26.4154 7.4767V8.61406C27.6059 8.79477 28.8495 9.78332 28.7858 11.5372Z" fill="#1A1A1A"/>
</svg>
