<svg width="36" height="36" viewBox="0 0 36 36" fill="none" xmlns="http://www.w3.org/2000/svg">
<path fill-rule="evenodd" clip-rule="evenodd" d="M25.5447 11.1768C25.0714 11.1768 24.6878 10.7931 24.6878 10.3198V3.75H12.4051C10.9875 3.75 9.83425 4.90326 9.83425 6.3208V15.9007C10.1166 15.8751 10.4023 15.8613 10.6912 15.8613C13.6121 15.8613 16.2268 17.1968 17.9572 19.2891H27.2586C27.7318 19.2891 28.1155 19.6727 28.1155 20.146C28.1155 20.6193 27.7318 21.0029 27.2586 21.0029H19.0862C19.6337 22.0713 19.9704 23.235 20.0781 24.4307H27.2586C27.7318 24.4307 28.1155 24.8143 28.1155 25.2876C28.1155 25.7609 27.7318 26.1445 27.2586 26.1445H20.0781C19.8218 28.9746 18.3097 31.4476 16.1046 33H29.5437C30.9613 33 32.1145 31.8467 32.1145 30.4292V11.1768H25.5447ZM27.2586 15.8613H14.6902C14.217 15.8613 13.8333 15.4777 13.8333 15.0044C13.8333 14.5311 14.217 14.1475 14.6902 14.1475H27.2586C27.7318 14.1475 28.1155 14.5311 28.1155 15.0044C28.1155 15.4777 27.7318 15.8613 27.2586 15.8613Z" fill="#1A1A1A"/>
<path d="M26.4017 4.25205V9.46317H31.6124L26.4017 4.25205Z" fill="#1A1A1A"/>
<path fill-rule="evenodd" clip-rule="evenodd" d="M17.7964 25.5002C17.7964 29.6423 14.4385 33.0002 10.2964 33.0002C6.15425 33.0002 2.79639 29.6423 2.79639 25.5002C2.79639 21.358 6.15425 18.0002 10.2964 18.0002C14.4385 18.0002 17.7964 21.358 17.7964 25.5002ZM6.63857 26.1001C7.0315 26.4936 7.67108 26.4936 8.06502 26.1001L9.30327 24.8693V29.0385C9.30327 29.5948 9.75471 30.0463 10.3121 30.0463C10.8689 30.0463 11.3209 29.5948 11.3209 29.0385V24.8693L12.5137 26.0612C12.9066 26.4547 13.5462 26.4547 13.9401 26.0612C14.1373 25.8642 14.2357 25.6067 14.2357 25.3487C14.2357 25.0907 14.1373 24.8332 13.9401 24.6362L10.3121 21.0116L6.63857 24.6752C6.24463 25.0687 6.24463 25.7066 6.63857 26.1001Z" fill="#1A1A1A"/>
</svg>
