<svg width="24" height="24" viewBox="0 0 24 24" fill="none" xmlns="http://www.w3.org/2000/svg">
<path d="M14 4L18.7998 8.7998V18.4004C18.7997 18.8246 18.631 19.2313 18.3311 19.5312C18.0311 19.8312 17.6244 19.9999 17.2002 20H7.59961C7.1754 19.9999 6.76872 19.8312 6.46875 19.5312C6.16878 19.2313 6.0001 18.8246 6 18.4004V5.59961C6.0001 5.1754 6.16878 4.76872 6.46875 4.46875C6.76872 4.16878 7.1754 4.0001 7.59961 4H14ZM12.1279 13.5996C11.8017 13.5969 11.4752 13.6191 11.1523 13.666V16.7998C11.3323 16.8238 11.5974 16.8476 11.9717 16.8477C12.5965 16.8477 13.1083 16.7147 13.4443 16.4355C13.7513 16.1755 13.9746 15.7537 13.9746 15.1436C13.9745 14.5798 13.7665 14.1868 13.4346 13.9404C13.1274 13.7085 12.7335 13.5996 12.1279 13.5996ZM14.4492 13.624V16.8154H15.1748V15.5322H16.3203V14.9443H15.1748V14.2158H16.4004V13.624H14.4492ZM9.375 13.5996C9.04888 13.5953 8.723 13.6181 8.40039 13.666V16.8145H9.11523V15.6738C9.19676 15.6849 9.27906 15.69 9.36133 15.6885C9.78613 15.6885 10.1512 15.5836 10.3984 15.3516C10.5871 15.1716 10.6916 14.9072 10.6924 14.5938C10.6924 14.2819 10.5546 14.0171 10.3516 13.8555C10.138 13.6851 9.8206 13.5996 9.375 13.5996ZM12.2031 14.1533C12.8239 14.1533 13.2118 14.5041 13.207 15.168C13.207 15.9296 12.7815 16.29 12.1279 16.2852C12.0385 16.2852 11.9395 16.2848 11.8779 16.2705V14.1826C11.9396 14.1682 12.0434 14.1533 12.2031 14.1533ZM9.41406 14.1445C9.77377 14.1447 9.97656 14.3206 9.97656 14.6133C9.97642 14.9403 9.7405 15.1338 9.35742 15.1338C9.25281 15.1338 9.17695 15.1296 9.11621 15.1152V14.1729C9.16748 14.1585 9.26708 14.1445 9.41406 14.1445ZM13.2002 9.59961H17.2002L13.2002 5.59961V9.59961Z" fill="#BB0000"/>
</svg>
