<svg width="40" height="40" viewBox="0 0 40 40" fill="none" xmlns="http://www.w3.org/2000/svg">
<path fill-rule="evenodd" clip-rule="evenodd" d="M15.8641 31.2241V33.4737H40V31.2241H37.2115H15.8641ZM3.04628 31.2241V33.4737H14.8799V31.2241H3.04628ZM0 21.3589V30.24H14.8799V22.6477L8.59988 27.3343C8.50615 27.4046 8.41242 27.428 8.31869 27.428C8.20152 27.428 8.10779 27.4046 8.01406 27.3343L0 21.3589Z" fill="#1A1A1A"/>
<path fill-rule="evenodd" clip-rule="evenodd" d="M0.984375 20.8669L8.31888 26.3267L14.8801 21.4293V20.8669H2.55438H0.984375ZM8.95157 14.1885C5.76469 14.1885 3.16364 16.7192 3.04647 19.8827H14.8801C14.7629 16.7192 12.1384 14.1885 8.95157 14.1885ZM15.8643 28.4826V30.24H36.7196V28.4826H15.8643Z" fill="#1A1A1A"/>
<path fill-rule="evenodd" clip-rule="evenodd" d="M15.8641 21.6636V27.4984H36.7194V22.226C36.7194 17.7971 33.1342 14.1885 28.7053 14.1885H12.5132C14.5284 15.407 15.8641 17.6097 15.8641 20.117V20.4216C15.911 20.7731 15.8641 21.2418 15.8641 21.6636ZM26.5964 15.6647C27.8617 15.6647 28.9162 16.7192 28.9162 17.9846C28.9162 19.2734 27.8617 20.3045 26.5964 20.3045C25.3076 20.3045 24.2765 19.2734 24.2765 17.9846C24.2765 16.7192 25.3076 15.6647 26.5964 15.6647ZM32.0094 11.9623H26.6198C26.3386 11.9623 26.1277 11.7514 26.1277 11.4703V7.1586C26.1277 6.8774 26.3386 6.6665 26.6198 6.6665H32.0094C32.2906 6.6665 32.5249 6.8774 32.5249 7.1586V11.4703C32.5249 11.7514 32.2906 11.9623 32.0094 11.9623Z" fill="#1A1A1A"/>
<path fill-rule="evenodd" clip-rule="evenodd" d="M26.5966 17.8674C26.3388 17.8674 26.1045 17.6566 26.1045 17.3754V7.18204C26.1045 6.54935 27.0887 6.54935 27.0887 7.18204V17.3754C27.0887 17.6566 26.8778 17.8674 26.5966 17.8674Z" fill="#1A1A1A"/>
<path d="M26.5964 19.3671C27.36 19.3671 27.979 18.7482 27.979 17.9846C27.979 17.221 27.36 16.6021 26.5964 16.6021C25.8329 16.6021 25.2139 17.221 25.2139 17.9846C25.2139 18.7482 25.8329 19.3671 26.5964 19.3671Z" fill="#1A1A1A"/>
</svg>
