<svg width="24" height="24" viewBox="0 0 24 24" fill="none" xmlns="http://www.w3.org/2000/svg">
<path d="M11.8648 13.8933C11.7086 13.8934 11.5578 13.8359 11.4414 13.7317L9.52826 12.0312C9.40963 11.9169 9.33983 11.7611 9.33348 11.5965C9.32713 11.4319 9.38472 11.2713 9.49418 11.1482C9.60364 11.0251 9.75649 10.9491 9.92071 10.9362C10.0849 10.9233 10.2478 10.9744 10.3751 11.0789L11.824 12.3662L14.5882 9.4183C14.7046 9.29782 14.8637 9.22796 15.0311 9.22383C15.1986 9.21969 15.3609 9.2816 15.4831 9.39619C15.6053 9.51077 15.6775 9.66883 15.6841 9.8362C15.6907 10.0036 15.6312 10.1668 15.5184 10.2907L12.3299 13.6918C12.2703 13.7554 12.1983 13.8062 12.1183 13.8408C12.0383 13.8755 11.952 13.8934 11.8648 13.8933Z" fill="#4CB050"/>
<path d="M12.2901 21C12.0371 20.9997 11.7883 20.9347 11.5674 20.8112L8.70199 19.2187C7.27734 18.4267 6.09024 17.2684 5.26354 15.8636C4.43685 14.4589 4.00062 12.8587 4 11.2287V6.81154C3.99958 6.44335 4.13592 6.08812 4.38258 5.81476C4.62923 5.54139 4.96863 5.36938 5.33493 5.33207C6.47429 5.21082 7.59568 4.95744 8.67649 4.57703C9.66746 4.22693 10.6181 3.7717 11.5121 3.21915C11.7463 3.07584 12.0156 3 12.2901 3C12.5647 3 12.8339 3.07584 13.0681 3.21915C13.9619 3.7717 14.9122 4.22692 15.9029 4.57703C16.9846 4.9578 18.1068 5.21147 19.247 5.33293C19.6127 5.37059 19.9515 5.54254 20.1978 5.8155C20.444 6.08847 20.5803 6.44306 20.5803 6.81069V11.2278C20.5796 12.8578 20.1434 14.458 19.3167 15.8628C18.49 17.2676 17.3029 18.4259 15.8783 19.2178L13.0129 20.8104C12.7921 20.9341 12.5432 20.9999 12.2901 21ZM12.2901 4.27434C12.2529 4.27406 12.2163 4.28438 12.1847 4.3041H12.1839C11.2117 4.90438 10.1781 5.39893 9.10077 5.77932C7.92602 6.19352 6.70702 6.46945 5.46842 6.60153C5.41564 6.60561 5.36638 6.62956 5.33056 6.66853C5.29474 6.70751 5.27503 6.75861 5.27541 6.81154V11.2287C5.27595 12.6312 5.65128 14.0081 6.36256 15.2169C7.07383 16.4257 8.09521 17.4224 9.32099 18.104L12.1864 19.6965C12.218 19.7136 12.2534 19.7225 12.2893 19.7225C12.3252 19.7225 12.3606 19.7136 12.3922 19.6965L15.2593 18.104C16.4851 17.4224 17.5064 16.4257 18.2177 15.2169C18.929 14.0081 19.3043 12.6312 19.3049 11.2287V6.81154C19.3053 6.75875 19.2857 6.70776 19.25 6.6688C19.2144 6.62985 19.1653 6.60582 19.1127 6.60153C17.8735 6.46945 16.654 6.19353 15.4786 5.77932C14.4016 5.39876 13.3684 4.90421 12.3964 4.3041C12.3644 4.28448 12.3276 4.27417 12.2901 4.27434Z" fill="#373844"/>
</svg>
