<svg width="20" height="19" viewBox="0 0 20 19" fill="none" xmlns="http://www.w3.org/2000/svg">
<path d="M3.57363 12.6667C2.15718 12.6667 0.723633 13.1018 0.723633 13.9333V17.7333C0.723633 18.5649 2.15718 19 3.57363 19C4.99008 19 6.42363 18.5649 6.42363 17.7333V13.9333C6.42363 13.1018 4.99008 12.6667 3.57363 12.6667ZM3.57363 18.3667C2.13375 18.3667 1.35697 17.917 1.35697 17.7333V16.6567C2.05257 16.971 2.81066 17.1226 3.57363 17.1C4.33661 17.1226 5.09469 16.971 5.7903 16.6567V17.7333C5.7903 17.917 5.01352 18.3667 3.57363 18.3667ZM3.57363 16.4667C2.13375 16.4667 1.35697 16.017 1.35697 15.8333V14.7567C2.05257 15.071 2.81066 15.2226 3.57363 15.2C4.33661 15.2226 5.09469 15.071 5.7903 14.7567V15.8333C5.7903 16.017 5.01352 16.4667 3.57363 16.4667ZM3.57363 14.5667C2.13375 14.5667 1.35697 14.117 1.35697 13.9333C1.35697 13.7497 2.13375 13.3 3.57363 13.3C5.01352 13.3 5.7903 13.7497 5.7903 13.9333C5.7903 14.117 5.01352 14.5667 3.57363 14.5667ZM10.2236 10.7667C8.80718 10.7667 7.37363 11.2018 7.37363 12.0333V17.7333C7.37363 18.5649 8.80718 19 10.2236 19C11.6401 19 13.0736 18.5649 13.0736 17.7333V12.0333C13.0736 11.2018 11.6401 10.7667 10.2236 10.7667ZM10.2236 18.3667C8.78375 18.3667 8.00697 17.917 8.00697 17.7333V16.6567C8.70257 16.971 9.46066 17.1226 10.2236 17.1C10.9866 17.1226 11.7447 16.971 12.4403 16.6567V17.7333C12.4403 17.917 11.6635 18.3667 10.2236 18.3667ZM10.2236 16.4667C8.78375 16.4667 8.00697 16.017 8.00697 15.8333V14.7567C8.70257 15.071 9.46066 15.2226 10.2236 15.2C10.9866 15.2226 11.7447 15.071 12.4403 14.7567V15.8333C12.4403 16.017 11.6635 16.4667 10.2236 16.4667ZM10.2236 14.5667C8.78375 14.5667 8.00697 14.117 8.00697 13.9333V12.8567C8.70257 13.171 9.46066 13.3226 10.2236 13.3C10.9866 13.3226 11.7447 13.171 12.4403 12.8567V13.9333C12.4403 14.117 11.6635 14.5667 10.2236 14.5667ZM10.2236 12.6667C8.78375 12.6667 8.00697 12.217 8.00697 12.0333C8.00697 11.8497 8.78375 11.4 10.2236 11.4C11.6635 11.4 12.4403 11.8497 12.4403 12.0333C12.4403 12.217 11.6635 12.6667 10.2236 12.6667ZM16.8736 8.86667C15.4572 8.86667 14.0236 9.30177 14.0236 10.1333V17.7333C14.0236 18.5649 15.4572 19 16.8736 19C18.2901 19 19.7236 18.5649 19.7236 17.7333V10.1333C19.7236 9.30177 18.2901 8.86667 16.8736 8.86667ZM16.8736 9.5C18.3135 9.5 19.0903 9.94967 19.0903 10.1333C19.0903 10.317 18.3135 10.7667 16.8736 10.7667C15.4337 10.7667 14.657 10.317 14.657 10.1333C14.657 9.94967 15.4337 9.5 16.8736 9.5ZM16.8736 18.3667C15.4337 18.3667 14.657 17.917 14.657 17.7333V16.6567C15.3526 16.971 16.1107 17.1226 16.8736 17.1C17.6366 17.1226 18.3947 16.971 19.0903 16.6567V17.7333C19.0903 17.917 18.3135 18.3667 16.8736 18.3667ZM16.8736 16.4667C15.4337 16.4667 14.657 16.017 14.657 15.8333V14.7567C15.3526 15.071 16.1107 15.2226 16.8736 15.2C17.6366 15.2226 18.3947 15.071 19.0903 14.7567V15.8333C19.0903 16.017 18.3135 16.4667 16.8736 16.4667ZM16.8736 14.5667C15.4337 14.5667 14.657 14.117 14.657 13.9333V12.8567C15.3526 13.171 16.1107 13.3226 16.8736 13.3C17.6366 13.3226 18.3947 13.171 19.0903 12.8567V13.9333C19.0903 14.117 18.3135 14.5667 16.8736 14.5667ZM16.8736 12.6667C15.4337 12.6667 14.657 12.217 14.657 12.0333V10.9567C15.3526 11.271 16.1107 11.4226 16.8736 11.4C17.6366 11.4226 18.3947 11.271 19.0903 10.9567V12.0333C19.0903 12.217 18.3135 12.6667 16.8736 12.6667ZM1.76642 9.72388C1.70705 9.6645 1.6737 9.58397 1.6737 9.5C1.6737 9.41603 1.70705 9.3355 1.76642 9.27612L7.20422 3.83863C7.50113 3.5418 7.90379 3.37505 8.32363 3.37505C8.74348 3.37505 9.14613 3.5418 9.44305 3.83863L11.4903 5.88557L15.4759 1.9H14.3403C14.1724 1.89983 14.0114 1.83305 13.8927 1.71432C13.7739 1.59558 13.7071 1.43459 13.707 1.26667V0.633333C13.7071 0.465414 13.7739 0.304421 13.8927 0.185684C14.0114 0.0669475 14.1724 0.000167668 14.3403 0H17.8236C18.0755 0.000251501 18.317 0.100421 18.4951 0.278526C18.6732 0.456631 18.7734 0.698121 18.7736 0.95V4.43333C18.7735 4.60125 18.7067 4.76225 18.5879 4.88098C18.4692 4.99972 18.3082 5.0665 18.1403 5.06667H17.507C17.339 5.0665 17.1781 4.99972 17.0593 4.88098C16.9406 4.76225 16.8738 4.60125 16.8736 4.43333V3.29777L12.6097 7.56137C12.3128 7.8582 11.9101 8.02495 11.4903 8.02495C11.0705 8.02495 10.6678 7.8582 10.3709 7.56137L8.32363 5.51443L3.16418 10.6739C3.10446 10.7316 3.02447 10.7635 2.94144 10.7628C2.85841 10.762 2.77899 10.7287 2.72027 10.67C2.66156 10.6113 2.62826 10.5319 2.62754 10.4489C2.62681 10.3658 2.65873 10.2858 2.71642 10.2261L8.09975 4.84278C8.15913 4.78342 8.23966 4.75007 8.32363 4.75007C8.4076 4.75007 8.48813 4.78342 8.54752 4.84278L10.8187 7.1136C10.9996 7.28624 11.2402 7.38256 11.4903 7.38256C11.7404 7.38256 11.981 7.28624 12.1619 7.1136L16.9664 2.30945C17.0107 2.26518 17.0671 2.23503 17.1285 2.22282C17.19 2.2106 17.2536 2.21687 17.3115 2.24084C17.3693 2.2648 17.4188 2.30538 17.4536 2.35744C17.4884 2.4095 17.507 2.47071 17.507 2.53333V4.43333H18.1403V0.95C18.1403 0.866015 18.1069 0.785469 18.0476 0.726083C17.9882 0.666696 17.9076 0.633333 17.8236 0.633333H14.3403V1.26667H16.2403C16.3029 1.26668 16.3641 1.28526 16.4162 1.32006C16.4683 1.35485 16.5088 1.4043 16.5328 1.46216C16.5568 1.52001 16.563 1.58367 16.5508 1.64509C16.5386 1.70651 16.5085 1.76293 16.4642 1.80722L11.7142 6.55722C11.6548 6.61658 11.5743 6.64993 11.4903 6.64993C11.4063 6.64993 11.3258 6.61658 11.2664 6.55722L8.99528 4.2864C8.81429 4.11376 8.57376 4.01744 8.32363 4.01744C8.0735 4.01744 7.83298 4.11376 7.65198 4.2864L2.21418 9.72388C2.1548 9.78325 2.07427 9.8166 1.9903 9.8166C1.90633 9.8166 1.8258 9.78325 1.76642 9.72388Z" fill="#373844"/>
</svg>
