<svg width="48" height="48" viewBox="0 0 48 48" fill="none" xmlns="http://www.w3.org/2000/svg">
<path d="M17.7409 44C17.0944 44.0026 16.4734 43.7482 16.0145 43.2929C15.5555 42.8377 15.2963 42.2187 15.2937 41.5722C15.2911 40.9258 15.5454 40.3048 16.0007 39.8458C16.456 39.3869 17.0749 39.1276 17.7214 39.125H17.7409C18.3874 39.125 19.0074 39.3818 19.4645 39.8389C19.9216 40.296 20.1784 40.916 20.1784 41.5625C20.1784 42.209 19.9216 42.8289 19.4645 43.2861C19.0074 43.7432 18.3874 44 17.7409 44ZM35.7784 41.5625C35.7784 40.916 35.5215 40.296 35.0644 39.8389C34.6073 39.3818 33.9873 39.125 33.3409 39.125H33.3214C32.8401 39.1288 32.3708 39.2751 31.9725 39.5452C31.5742 39.8154 31.2649 40.1974 31.0834 40.6431C30.9019 41.0889 30.8564 41.5783 30.9526 42.0499C31.0488 42.5214 31.2825 42.9539 31.6242 43.2928C31.9658 43.6318 32.4002 43.862 32.8725 43.9545C33.3447 44.047 33.8338 43.9976 34.2781 43.8125C34.7224 43.6275 35.1019 43.315 35.3689 42.9146C35.6359 42.5142 35.7783 42.0437 35.7784 41.5625ZM41.0219 16.9146L39.0524 28.9655C39.0272 29.6718 38.8534 30.3648 38.5424 30.9994C38.2314 31.6341 37.7901 32.196 37.2474 32.6486C36.7046 33.1012 36.0725 33.4343 35.3924 33.6263C34.7122 33.8182 33.9992 33.8646 33.2999 33.7625H17.1735C16.2331 33.7648 15.3238 33.4263 14.6139 32.8096C13.904 32.193 13.4417 31.3399 13.3125 30.4085L10.3855 10.035C10.309 9.44932 10.0213 8.91174 9.57644 8.52323C9.13156 8.13472 8.56013 7.92203 7.96949 7.9251H7.4625C7.07462 7.9251 6.70263 7.77102 6.42835 7.49675C6.15408 7.22247 6 6.85048 6 6.4626C6 6.07473 6.15408 5.70274 6.42835 5.42846C6.70263 5.15419 7.07462 5.00011 7.4625 5.00011H7.96949C9.26343 4.99181 10.5161 5.45525 11.493 6.30371C12.47 7.15218 13.1043 8.32755 13.2774 9.60989L13.6849 12.3126H37.1999C37.7703 12.3147 38.3333 12.4419 38.8492 12.6852C39.3651 12.9285 39.8214 13.282 40.1858 13.7208C40.5503 14.1597 40.814 14.6731 40.9585 15.2249C41.1029 15.7767 41.1246 16.3535 41.0219 16.9146ZM30.3886 19.4028C30.2528 19.2669 30.0915 19.159 29.914 19.0855C29.7365 19.0119 29.5462 18.9741 29.3541 18.9741C29.162 18.9741 28.9717 19.0119 28.7942 19.0855C28.6167 19.159 28.4554 19.2669 28.3196 19.4028L24.1544 23.568L22.5944 22.008C22.3187 21.7414 21.9494 21.5938 21.5659 21.597C21.1825 21.6001 20.8156 21.7538 20.5443 22.0248C20.273 22.2958 20.119 22.6626 20.1155 23.046C20.112 23.4295 20.2592 23.799 20.5255 24.0749L23.1248 26.6762C23.3996 26.9498 23.7716 27.1033 24.1593 27.1033C24.547 27.1033 24.919 26.9498 25.1938 26.6762L30.3886 21.4776C30.5254 21.3416 30.6339 21.18 30.708 21.002C30.7821 20.8239 30.8202 20.633 30.8202 20.4402C30.8202 20.2473 30.7821 20.0564 30.708 19.8784C30.6339 19.7003 30.5254 19.5387 30.3886 19.4028Z" fill="#1A1A1A"/>
</svg>
