<svg width="48" height="48" viewBox="0 0 48 48" fill="none" xmlns="http://www.w3.org/2000/svg">
<path d="M39.32 18.455C39.125 17.48 38.345 16.7 37.37 16.7H33.275V14.75C33.275 9.29 28.985 5 23.525 5C18.065 5 13.775 9.29 13.775 14.75V16.7H9.67997C8.70497 16.7 7.92497 17.48 7.72997 18.455L4.02497 41.855C3.82997 43.025 4.80497 44 5.97497 44H41.075C42.245 44 43.22 43.025 43.025 41.855L39.32 18.455ZM17.675 14.75C17.675 11.435 20.21 8.9 23.525 8.9C26.84 8.9 29.375 11.435 29.375 14.75V16.7H17.675V14.75ZM32.69 25.865L20.99 37.565C20.21 38.345 19.04 38.345 18.26 37.565L12.41 31.715C11.63 30.935 11.63 29.765 12.41 28.985C13.19 28.205 14.36 28.205 15.14 28.985L19.625 33.47L29.96 23.135C30.74 22.355 31.91 22.355 32.69 23.135C33.47 23.915 33.47 25.085 32.69 25.865Z" fill="#1A1A1A"/>
</svg>
