<svg width="24" height="24" viewBox="0 0 24 24" fill="none" xmlns="http://www.w3.org/2000/svg">
<path fill-rule="evenodd" clip-rule="evenodd" d="M8.38464 19.3136C8.38464 19.7608 8.20696 20.1898 7.8907 20.5061C7.57444 20.8223 7.14549 21 6.69822 21H4.68642C4.23915 21 3.8102 20.8223 3.49394 20.5061C3.17768 20.1898 3 19.7608 3 19.3136V11.7583C3 10.8271 3.75528 10.0718 4.68642 10.0718H6.69822C7.63021 10.0718 8.38464 10.8271 8.38464 11.7583V19.3136ZM15.1091 14.4922V19.3136C15.1092 19.5351 15.0656 19.7544 14.9809 19.9591C14.8962 20.1637 14.772 20.3497 14.6154 20.5063C14.4588 20.6629 14.2728 20.7871 14.0681 20.8719C13.8635 20.9566 13.6441 21.0001 13.4227 21H11.2843C10.8371 20.9995 10.4084 20.8217 10.0923 20.5056C9.77611 20.1894 9.59829 19.7607 9.59784 19.3136V14.4922C9.59784 14.0449 9.77552 13.616 10.0918 13.2997C10.408 12.9835 10.837 12.8058 11.2843 12.8058H13.4227C13.8699 12.8058 14.2989 12.9835 14.6151 13.2997C14.9314 13.616 15.1091 14.0449 15.1091 14.4922ZM21.7061 10.1611V19.3136C21.7062 19.5351 21.6626 19.7544 21.5779 19.9591C21.4932 20.1637 21.369 20.3497 21.2124 20.5063C21.0557 20.6629 20.8698 20.7871 20.6651 20.8719C20.4605 20.9566 20.2411 21.0001 20.0196 21H18.0911C17.6438 21 17.2149 20.8223 16.8986 20.5061C16.5824 20.1898 16.4047 19.7608 16.4047 19.3136V10.1611C16.4046 9.93956 16.4481 9.72021 16.5328 9.51556C16.6175 9.3109 16.7417 9.12495 16.8984 8.96833C17.055 8.81171 17.2409 8.68749 17.4456 8.60278C17.6503 8.51807 17.8696 8.47452 18.0911 8.47464H20.0196C20.4669 8.47464 20.8959 8.65231 21.2121 8.96858C21.5284 9.28484 21.7061 9.71379 21.7061 10.1611ZM6.19357 6.50786C5.99349 6.61151 5.76042 6.63143 5.54565 6.56323C5.33087 6.49504 5.15199 6.34432 5.04834 6.14424C4.94469 5.94415 4.92477 5.71109 4.99296 5.49631C5.06116 5.28154 5.21187 5.10265 5.41196 4.999L8.1544 3.57766C8.57404 3.36024 9.04545 3.26259 9.51692 3.29541C9.98839 3.32823 10.4417 3.49026 10.8272 3.76371L13.6656 5.77807C13.9672 5.99216 14.3708 5.99301 14.6741 5.78062L18.4156 3.15287C18.6001 3.02415 18.828 2.97384 19.0495 3.01295C19.271 3.05206 19.468 3.1774 19.5972 3.3615C19.7264 3.5456 19.7774 3.77342 19.7389 3.99502C19.7004 4.21662 19.5755 4.41391 19.3918 4.54363L15.6503 7.17138C15.2153 7.47663 14.6966 7.63978 14.1652 7.63841C13.6339 7.63704 13.116 7.47122 12.6827 7.16373L9.84422 5.14938C9.71342 5.05639 9.55949 5.00131 9.39939 4.99022C9.23929 4.97913 9.07924 5.01245 8.93687 5.08651L6.19357 6.50786Z" fill="#1A1A1A"/>
</svg>
