<svg width="48" height="48" viewBox="0 0 48 48" fill="none" xmlns="http://www.w3.org/2000/svg">
<path d="M40.7042 24.4922C40.6288 24.3391 40.5895 24.1707 40.5895 24C40.5895 23.8294 40.6288 23.661 40.7042 23.5079L42.1215 20.6085C42.9106 18.9942 42.2854 17.0701 40.6981 16.228L37.8474 14.7154C37.6964 14.6359 37.5657 14.5227 37.4654 14.3847C37.365 14.2466 37.2978 14.0873 37.2688 13.9191L36.7113 10.7404C36.4008 8.97065 34.7637 7.78138 32.985 8.03305L29.7897 8.48504C29.6207 8.50946 29.4485 8.49472 29.2862 8.44198C29.1238 8.38923 28.9758 8.29987 28.8535 8.18082L26.5342 5.93707C25.2427 4.68768 23.2195 4.68761 21.9281 5.93707L19.6087 8.18104C19.4864 8.30007 19.3383 8.3894 19.176 8.44215C19.0137 8.4949 18.8415 8.50965 18.6726 8.48526L15.4773 8.03328C13.6979 7.78145 12.0614 8.97087 11.7509 10.7407L11.1934 13.9192C11.1644 14.0874 11.0972 14.2467 10.9969 14.3848C10.8966 14.5228 10.7659 14.636 10.6149 14.7156L7.76416 16.2281C6.17694 17.0702 5.55172 18.9944 6.34081 20.6088L7.758 23.508C7.83344 23.6611 7.87267 23.8295 7.87267 24.0002C7.87267 24.1709 7.83344 24.3393 7.758 24.4924L6.34073 27.3916C5.55165 29.0059 6.17686 30.93 7.76409 31.7722L10.6148 33.2847C10.7658 33.3642 10.8965 33.4774 10.9968 33.6155C11.0972 33.7535 11.1644 33.9128 11.1934 34.081L11.7509 37.2597C12.0335 38.8708 13.415 40.0007 15.0028 40.0006C15.1592 40.0006 15.3178 39.9896 15.4773 39.967L18.6726 39.515C18.8415 39.4906 19.0138 39.5053 19.1761 39.5581C19.3385 39.6108 19.4865 39.7002 19.6087 39.8192L21.9281 42.063C22.574 42.6878 23.4024 43.0001 24.2311 43C25.0596 42.9999 25.8885 42.6876 26.5341 42.063L28.8535 39.8192C29.1038 39.5772 29.4449 39.4666 29.7897 39.515L32.985 39.967C34.7646 40.2188 36.4008 39.0294 36.7113 37.2596L37.2689 34.0811C37.2979 33.9129 37.3651 33.7536 37.4654 33.6155C37.5657 33.4775 37.6964 33.3643 37.8474 33.2847L40.6981 31.7722C42.2854 30.9301 42.9106 29.0058 42.1215 27.3915L40.7042 24.4922ZM19.8477 14.1375C22.0633 14.1375 23.8658 15.9401 23.8658 18.1556C23.8658 20.3712 22.0633 22.1737 19.8477 22.1737C17.6322 22.1737 15.8296 20.3712 15.8296 18.1556C15.8296 15.9401 17.6322 14.1375 19.8477 14.1375ZM17.7738 32.007C17.5598 32.221 17.2793 32.328 16.9989 32.328C16.7185 32.328 16.438 32.221 16.2241 32.007C15.7962 31.579 15.7962 30.8852 16.2241 30.4572L30.6884 15.993C31.1162 15.5651 31.8102 15.5651 32.2381 15.993C32.666 16.4209 32.666 17.1148 32.2381 17.5427L17.7738 32.007ZM28.6143 33.8626C26.3988 33.8626 24.5963 32.0601 24.5963 29.8445C24.5963 27.629 26.3988 25.8264 28.6143 25.8264C30.8299 25.8264 32.6324 27.629 32.6324 29.8445C32.6324 32.0601 30.8299 33.8626 28.6143 33.8626Z" fill="#1A1A1A"/>
<path d="M28.6145 28.018C27.6074 28.018 26.788 28.8373 26.788 29.8444C26.788 30.8515 27.6073 31.6708 28.6145 31.6708C29.6215 31.6708 30.4408 30.8515 30.4408 29.8444C30.4408 28.8373 29.6215 28.018 28.6145 28.018ZM19.8478 16.3291C18.8408 16.3291 18.0215 17.1484 18.0215 18.1555C18.0215 19.1625 18.8408 19.9819 19.8478 19.9819C20.8549 19.9819 21.6743 19.1626 21.6743 18.1555C21.6742 17.1485 20.8549 16.3291 19.8478 16.3291Z" fill="#1A1A1A"/>
</svg>
