<svg width="48" height="48" viewBox="0 0 48 48" fill="none" xmlns="http://www.w3.org/2000/svg">
<path d="M24.55 5H18.7C17.623 5 16.75 5.87304 16.75 6.95V8.9C16.75 9.97695 17.623 10.85 18.7 10.85H24.55C25.627 10.85 26.5 9.97695 26.5 8.9V6.95C26.5 5.87304 25.627 5 24.55 5Z" fill="#1A1A1A"/>
<path d="M33.325 6.94995H28.45V8.89995C28.45 9.9343 28.0391 10.9263 27.3077 11.6577C26.5763 12.3891 25.5843 12.8 24.55 12.8H18.7C17.6657 12.8 16.6737 12.3891 15.9423 11.6577C15.2109 10.9263 14.8 9.9343 14.8 8.89995V6.94995H9.925C9.14924 6.94995 8.40526 7.25812 7.85671 7.80666C7.30817 8.35521 7 9.09919 7 9.87495V39.125C7 39.9007 7.30817 40.6447 7.85671 41.1932C8.40526 41.7418 9.14924 42.0499 9.925 42.0499H24.55C23.2607 40.3275 22.5774 38.227 22.6065 36.0757C22.6356 33.9243 23.3754 31.8431 24.7107 30.1561C26.0461 28.4691 27.9019 27.2712 29.9891 26.749C32.0763 26.2268 34.2776 26.4096 36.25 27.269V9.87495C36.25 9.09919 35.9418 8.35521 35.3933 7.80666C34.8447 7.25812 34.1008 6.94995 33.325 6.94995ZM20.65 34.25H12.85C12.5914 34.25 12.3434 34.1472 12.1606 33.9644C11.9777 33.7815 11.875 33.5335 11.875 33.275C11.875 33.0164 11.9777 32.7684 12.1606 32.5855C12.3434 32.4027 12.5914 32.2999 12.85 32.2999H20.65C20.9086 32.2999 21.1566 32.4027 21.3394 32.5855C21.5223 32.7684 21.625 33.0164 21.625 33.275C21.625 33.5335 21.5223 33.7815 21.3394 33.9644C21.1566 34.1472 20.9086 34.25 20.65 34.25ZM30.4 26.45H12.85C12.5914 26.45 12.3434 26.3472 12.1606 26.1644C11.9777 25.9815 11.875 25.7335 11.875 25.475C11.875 25.2164 11.9777 24.9684 12.1606 24.7855C12.3434 24.6027 12.5914 24.5 12.85 24.5H30.4C30.6586 24.5 30.9066 24.6027 31.0894 24.7855C31.2723 24.9684 31.375 25.2164 31.375 25.475C31.375 25.7335 31.2723 25.9815 31.0894 26.1644C30.9066 26.3472 30.6586 26.45 30.4 26.45ZM30.4 18.65H12.85C12.5914 18.65 12.3434 18.5472 12.1606 18.3644C11.9777 18.1815 11.875 17.9335 11.875 17.675C11.875 17.4164 11.9777 17.1684 12.1606 16.9855C12.3434 16.8027 12.5914 16.7 12.85 16.7H30.4C30.6586 16.7 30.9066 16.8027 31.0894 16.9855C31.2723 17.1684 31.375 17.4164 31.375 17.675C31.375 17.9335 31.2723 18.1815 31.0894 18.3644C30.9066 18.5472 30.6586 18.65 30.4 18.65Z" fill="#1A1A1A"/>
<path d="M26.8348 30.6845C25.7439 31.7754 25.001 33.1652 24.7001 34.6782C24.3991 36.1913 24.5536 37.7596 25.1439 39.1849C25.7343 40.6101 26.7341 41.8283 28.0168 42.6854C29.2995 43.5425 30.8075 43.9999 32.3502 43.9999C33.8929 43.9999 35.4009 43.5425 36.6837 42.6854C37.9664 41.8283 38.9661 40.6101 39.5565 39.1849C40.1468 37.7596 40.3013 36.1913 40.0003 34.6782C39.6994 33.1652 38.9565 31.7754 37.8656 30.6845C36.4029 29.2217 34.4189 28.3999 32.3502 28.3999C30.2815 28.3999 28.2976 29.2217 26.8348 30.6845ZM35.2734 35.221C35.4021 35.2204 35.5296 35.2454 35.6487 35.2944C35.7677 35.3434 35.8758 35.4155 35.9668 35.5065C36.0578 35.5975 36.1299 35.7057 36.1789 35.8247C36.2279 35.9437 36.2529 36.0712 36.2524 36.1999C36.2519 36.3283 36.226 36.4552 36.1763 36.5735C36.1266 36.6918 36.0541 36.7992 35.9628 36.8894C35.8726 36.9806 35.7653 37.0532 35.647 37.1029C35.5287 37.1526 35.4017 37.1784 35.2734 37.1789L33.3223 37.172L33.3292 39.1231C33.3287 39.2514 33.3028 39.3784 33.2531 39.4967C33.2034 39.615 33.1309 39.7223 33.0396 39.8126C32.9494 39.9038 32.8421 39.9764 32.7238 40.0261C32.6055 40.0757 32.4785 40.1016 32.3502 40.1021C32.2215 40.1026 32.094 40.0777 31.9749 40.0287C31.8559 39.9797 31.7478 39.9076 31.6568 39.8166C31.5658 39.7255 31.4937 39.6174 31.4447 39.4984C31.3956 39.3794 31.3707 39.2518 31.3712 39.1231L31.3781 37.172L29.427 37.1789C29.1674 37.1789 28.9184 37.0758 28.7348 36.8922C28.5512 36.7086 28.448 36.4596 28.448 36.1999C28.448 35.9403 28.5512 35.6913 28.7348 35.5077C28.9184 35.3241 29.1674 35.221 29.427 35.221L31.3781 35.2279L31.3712 33.2768C31.3712 33.0171 31.4744 32.7681 31.658 32.5845C31.8415 32.4009 32.0906 32.2978 32.3502 32.2978C32.6098 32.2978 32.8589 32.4009 33.0425 32.5845C33.2261 32.7681 33.3292 33.0171 33.3292 33.2768L33.3223 35.2279L35.2734 35.221Z" fill="#1A1A1A"/>
</svg>
