<svg width="25" height="24" viewBox="0 0 25 24" fill="none" xmlns="http://www.w3.org/2000/svg">
<path d="M22.7266 3.79167V7.75C22.7266 7.95996 22.6432 8.16133 22.4947 8.30979C22.3462 8.45826 22.1449 8.54167 21.9349 8.54167C21.7249 8.54167 21.5236 8.45826 21.3751 8.30979C21.2266 8.16133 21.1432 7.95996 21.1432 7.75V4.58333H17.9766C17.7666 4.58333 17.5652 4.49993 17.4168 4.35146C17.2683 4.20299 17.1849 4.00163 17.1849 3.79167C17.1849 3.5817 17.2683 3.38034 17.4168 3.23187C17.5652 3.08341 17.7666 3 17.9766 3H21.9349C22.1449 3 22.3462 3.08341 22.4947 3.23187C22.6432 3.38034 22.7266 3.5817 22.7266 3.79167ZM8.47656 20.4167H5.3099V17.25C5.3099 17.04 5.22649 16.8387 5.07802 16.6902C4.92956 16.5417 4.72819 16.4583 4.51823 16.4583C4.30827 16.4583 4.1069 16.5417 3.95844 16.6902C3.80997 16.8387 3.72656 17.04 3.72656 17.25V21.2083C3.72656 21.4183 3.80997 21.6197 3.95844 21.7681C4.1069 21.9166 4.30827 22 4.51823 22H8.47656C8.68653 22 8.88789 21.9166 9.03636 21.7681C9.18482 21.6197 9.26823 21.4183 9.26823 21.2083C9.26823 20.9984 9.18482 20.797 9.03636 20.6485C8.88789 20.5001 8.68653 20.4167 8.47656 20.4167ZM21.9349 16.4583C21.7249 16.4583 21.5236 16.5417 21.3751 16.6902C21.2266 16.8387 21.1432 17.04 21.1432 17.25V20.4167H17.9766C17.7666 20.4167 17.5652 20.5001 17.4168 20.6485C17.2683 20.797 17.1849 20.9984 17.1849 21.2083C17.1849 21.4183 17.2683 21.6197 17.4168 21.7681C17.5652 21.9166 17.7666 22 17.9766 22H21.9349C22.1449 22 22.3462 21.9166 22.4947 21.7681C22.6432 21.6197 22.7266 21.4183 22.7266 21.2083V17.25C22.7266 17.04 22.6432 16.8387 22.4947 16.6902C22.3462 16.5417 22.1449 16.4583 21.9349 16.4583ZM4.51823 8.54167C4.72819 8.54167 4.92956 8.45826 5.07802 8.30979C5.22649 8.16133 5.3099 7.95996 5.3099 7.75V4.58333H8.47656C8.68653 4.58333 8.88789 4.49993 9.03636 4.35146C9.18482 4.20299 9.26823 4.00163 9.26823 3.79167C9.26823 3.5817 9.18482 3.38034 9.03636 3.23187C8.88789 3.08341 8.68653 3 8.47656 3H4.51823C4.30827 3 4.1069 3.08341 3.95844 3.23187C3.80997 3.38034 3.72656 3.5817 3.72656 3.79167V7.75C3.72656 7.95996 3.80997 8.16133 3.95844 8.30979C4.1069 8.45826 4.30827 8.54167 4.51823 8.54167ZM8.47656 6.95833H17.9766C18.1865 6.95833 18.3879 7.04174 18.5364 7.19021C18.6848 7.33867 18.7682 7.54004 18.7682 7.75V17.25C18.7682 17.46 18.6848 17.6613 18.5364 17.8098C18.3879 17.9583 18.1865 18.0417 17.9766 18.0417H8.47656C8.2666 18.0417 8.06524 17.9583 7.91677 17.8098C7.7683 17.6613 7.6849 17.46 7.6849 17.25V7.75C7.6849 7.54004 7.7683 7.33867 7.91677 7.19021C8.06524 7.04174 8.2666 6.95833 8.47656 6.95833ZM9.26823 16.4583H17.1849V8.54167H9.26823V16.4583Z" fill="#1A1A1A"/>
</svg>
