<svg width="24" height="24" viewBox="0 0 24 24" fill="none" xmlns="http://www.w3.org/2000/svg">
<path d="M20.7207 19.3781L17.5106 16.1775C18.5464 14.858 19.1083 13.2286 19.1062 11.5512C19.1062 10.0573 18.6633 8.59699 17.8333 7.35488C17.0034 6.11278 15.8237 5.14468 14.4436 4.573C13.0634 4.00132 11.5447 3.85174 10.0796 4.14318C8.61442 4.43462 7.26858 5.15399 6.21226 6.21031C5.15594 7.26663 4.43657 8.61247 4.14513 10.0776C3.8537 11.5428 4.00327 13.0615 4.57495 14.4416C5.14663 15.8218 6.11473 17.0014 7.35684 17.8314C8.59894 18.6613 10.0593 19.1043 11.5531 19.1043C13.2305 19.1064 14.8599 18.5444 16.1794 17.5087L19.38 20.7188C19.4678 20.8073 19.5722 20.8775 19.6873 20.9254C19.8023 20.9734 19.9257 20.998 20.0504 20.998C20.175 20.998 20.2984 20.9734 20.4135 20.9254C20.5285 20.8775 20.633 20.8073 20.7207 20.7188C20.8092 20.631 20.8795 20.5266 20.9274 20.4115C20.9753 20.2965 21 20.1731 21 20.0484C21 19.9238 20.9753 19.8004 20.9274 19.6853C20.8795 19.5703 20.8092 19.4659 20.7207 19.3781ZM5.88828 11.5512C5.88828 10.4308 6.22052 9.33553 6.84298 8.40395C7.46544 7.47238 8.35017 6.7463 9.38528 6.31754C10.4204 5.88878 11.5594 5.7766 12.6583 5.99518C13.7572 6.21376 14.7665 6.75328 15.5588 7.54552C16.351 8.33777 16.8905 9.34714 17.1091 10.446C17.3277 11.5449 17.2155 12.6839 16.7868 13.719C16.358 14.7541 15.6319 15.6389 14.7003 16.2613C13.7688 16.8838 12.6735 17.216 11.5531 17.216C10.0507 17.216 8.60984 16.6192 7.54748 15.5568C6.48511 14.4945 5.88828 13.0536 5.88828 11.5512Z" fill="#373844"/>
</svg>
