<svg width="24" height="24" viewBox="0 0 24 24" fill="none" xmlns="http://www.w3.org/2000/svg">
<path d="M16.8914 14.6194C16.8312 14.5595 16.7497 14.5259 16.6648 14.5259C16.5799 14.5259 16.4985 14.5595 16.4383 14.6194L16.2101 14.8475L15.757 14.3912C15.8168 14.331 15.8504 14.2495 15.8504 14.1646C15.8504 14.0797 15.8168 13.9983 15.757 13.9381L14.8475 13.0286C14.8176 12.9985 14.7821 12.9746 14.7429 12.9583C14.7038 12.942 14.6618 12.9336 14.6194 12.9336C14.5769 12.9336 14.5349 12.942 14.4958 12.9583C14.4566 12.9746 14.4211 12.9985 14.3912 13.0286L13.4271 12.0645L15.8245 9.66396C16.4007 9.96623 17.0493 10.1036 17.6986 10.0608C18.3479 10.0181 18.9729 9.79698 19.5046 9.4218C20.0362 9.04662 20.4541 8.53196 20.712 7.93452C20.9699 7.33708 21.0579 6.68003 20.9663 6.03578C20.9581 5.97668 20.9336 5.92103 20.8956 5.87506C20.8575 5.82908 20.8075 5.7946 20.7509 5.77548C20.6954 5.75802 20.6362 5.75598 20.5796 5.76956C20.523 5.78315 20.4711 5.81185 20.4296 5.8526L18.8549 7.42728L17.0456 6.95487L16.57 5.15846L18.1447 3.58379C18.1854 3.54223 18.2141 3.49038 18.2277 3.43378C18.2413 3.37718 18.2393 3.31796 18.2218 3.26243C18.2027 3.20591 18.1682 3.15584 18.1222 3.11781C18.0763 3.07978 18.0206 3.0553 17.9615 3.04712C17.3602 2.9627 16.7472 3.03462 16.1817 3.25594C15.6162 3.47727 15.1173 3.84053 14.733 4.31072C14.3487 4.78091 14.092 5.34217 13.9877 5.94039C13.8834 6.53861 13.9349 7.15362 14.1373 7.72614L11.6114 10.2488L7.02879 5.66621L6.8199 4.625C6.81092 4.58107 6.79284 4.5395 6.76683 4.50297C6.74081 4.46644 6.70744 4.43576 6.66886 4.4129L4.39684 3.04712C4.33545 3.01036 4.26354 2.99514 4.19252 3.00387C4.1215 3.0126 4.05543 3.04478 4.00477 3.09532L3.09532 4.00477C3.04478 4.05543 3.0126 4.1215 3.00387 4.19252C2.99514 4.26354 3.01036 4.33545 3.04712 4.39684L4.4129 6.66886C4.43576 6.70744 4.46644 6.74081 4.50297 6.76683C4.5395 6.79284 4.58107 6.81092 4.625 6.8199L5.66621 7.02879L10.2488 11.6114L7.72614 14.1341C7.01903 13.8815 6.24986 13.8607 5.53011 14.0746C4.81035 14.2885 4.17741 14.726 3.72299 15.3238C3.26857 15.9215 3.01629 16.6484 3.0027 17.3992C2.98912 18.1499 3.21494 18.8855 3.64744 19.4993C4.07994 20.1131 4.69665 20.5732 5.40819 20.813C6.11974 21.0528 6.88916 21.0598 7.60494 20.8329C8.32073 20.6061 8.9457 20.1573 9.38928 19.5514C9.83287 18.9456 10.072 18.2143 10.0721 17.4634C10.0718 16.8934 9.93287 16.332 9.66717 15.8277L12.0677 13.4303L13.0318 14.3944C13.0017 14.4243 12.9778 14.4598 12.9615 14.499C12.9452 14.5381 12.9368 14.5801 12.9368 14.6226C12.9368 14.665 12.9452 14.707 12.9615 14.7462C12.9778 14.7853 13.0017 14.8209 13.0318 14.8507L13.9284 15.757C13.9886 15.8168 14.0701 15.8504 14.155 15.8504C14.2399 15.8504 14.3213 15.8168 14.3815 15.757L14.8379 16.2101L14.6097 16.4383C14.5499 16.4985 14.5163 16.5799 14.5163 16.6648C14.5163 16.7497 14.5499 16.8312 14.6097 16.8914L18.254 20.5292C18.5557 20.8309 18.9649 21.0004 19.3916 21.0004C19.8183 21.0004 20.2275 20.8309 20.5292 20.5292C20.8309 20.2275 21.0004 19.8183 21.0004 19.3916C21.0004 18.9649 20.8309 18.5557 20.5292 18.254L16.8914 14.6194ZM7.97038 17.849L6.92274 18.8967L5.48625 18.5143L5.10383 17.0778L6.15147 16.0301L7.58796 16.4126L7.97038 17.849ZM13.7099 14.6194L14.6194 13.7099L15.0725 14.1662L14.1662 15.0725L13.7099 14.6194Z" fill="#1A1A1A"/>
</svg>
