<svg width="25" height="24" viewBox="0 0 25 24" fill="none" xmlns="http://www.w3.org/2000/svg">
<path d="M9.90069 21L9.56238 18.28C9.37913 18.2092 9.20645 18.1242 9.04435 18.025C8.88224 17.9258 8.72366 17.8196 8.5686 17.7063L6.05243 18.7688L3.72656 14.7313L5.90442 13.0738C5.89033 12.9746 5.88328 12.879 5.88328 12.7869V12.2131C5.88328 12.121 5.89033 12.0254 5.90442 11.9262L3.72656 10.2688L6.05243 6.23125L8.5686 7.29375C8.72366 7.18042 8.88577 7.07417 9.05492 6.975C9.22407 6.87583 9.39323 6.79083 9.56238 6.72L9.90069 4H14.5524L14.8907 6.72C15.074 6.79083 15.2467 6.87583 15.4088 6.975C15.5709 7.07417 15.7295 7.18042 15.8845 7.29375L18.4007 6.23125L20.7266 10.2688L18.5487 11.9262C18.5628 12.0254 18.5698 12.121 18.5698 12.2131V12.7869C18.5698 12.879 18.5557 12.9746 18.5276 13.0738L20.7054 14.7313L18.3795 18.7688L15.8845 17.7063C15.7295 17.8196 15.5674 17.9258 15.3982 18.025C15.229 18.1242 15.0599 18.2092 14.8907 18.28L14.5524 21H9.90069ZM12.2689 15.475C13.0864 15.475 13.7842 15.1846 14.3621 14.6038C14.9401 14.0229 15.2291 13.3217 15.2291 12.5C15.2291 11.6783 14.9401 10.9771 14.3621 10.3963C13.7842 9.81542 13.0864 9.525 12.2689 9.525C11.4372 9.525 10.7359 9.81542 10.165 10.3963C9.5941 10.9771 9.30865 11.6783 9.30865 12.5C9.30865 13.3217 9.5941 14.0229 10.165 14.6038C10.7359 15.1846 11.4372 15.475 12.2689 15.475Z" fill="#373844"/>
</svg>
