<svg width="24" height="24" viewBox="0 0 24 24" fill="none" xmlns="http://www.w3.org/2000/svg">
<path d="M6.85419 8.44336L8.11127 7.18654L5.18404 4.26038C5.1015 4.17783 5.00352 4.11235 4.89567 4.06767C4.78782 4.02299 4.67223 4 4.5555 4C4.43877 4 4.32318 4.02299 4.21533 4.06767C4.10749 4.11235 4.0095 4.17783 3.92696 4.26038L1 7.18654L2.25708 8.44442L3.66669 7.03454V20H5.44458V7.03454L6.85419 8.44336ZM9.88888 5.77773H22.3335V7.55561H9.88888V5.77773ZM9.88888 9.33323H19.6668V11.1111H9.88888V9.33323ZM9.88888 12.8887H17.0002V14.6666H9.88888V12.8887ZM9.88888 16.4445H14.3335V18.2221H9.88888V16.4445Z" fill="#373844"/>
</svg>
