<svg width="48" height="48" viewBox="0 0 48 48" fill="none" xmlns="http://www.w3.org/2000/svg">
<path d="M42.6997 4.50365C35.0865 4.36715 26.4041 8.34681 20.9083 14.5202C15.5988 14.6316 10.5369 16.7871 6.77713 20.5377C6.66935 20.6439 6.59339 20.7782 6.55781 20.9253C6.52222 21.0724 6.52843 21.2265 6.57573 21.3702C6.62303 21.514 6.70955 21.6417 6.82552 21.7389C6.9415 21.8362 7.08232 21.8991 7.23213 21.9206L13.4949 22.8176L12.7214 23.6837C12.5831 23.8387 12.5094 24.0407 12.5155 24.2484C12.5215 24.456 12.6068 24.6534 12.7539 24.8001L23.1979 35.2441C23.3446 35.3913 23.5422 35.4766 23.7499 35.4823C23.9577 35.4881 24.1597 35.4138 24.3143 35.2749L25.1804 34.5014L26.0774 40.7643C26.1213 41.0698 26.3618 41.294 26.6527 41.3915C26.7278 41.4156 26.8062 41.4277 26.8851 41.4273C27.1205 41.4239 27.3456 41.3302 27.514 41.1656C31.2271 37.4525 33.3803 32.3385 33.4794 27.0865C39.6593 21.5793 43.6715 12.9001 43.4944 5.29666C43.4886 5.08788 43.403 4.88926 43.2551 4.74172C43.1073 4.59419 42.9085 4.50898 42.6997 4.50365ZM35.2117 18.5308C34.4203 19.3222 33.3803 19.7187 32.3386 19.7187C31.297 19.7187 30.257 19.3222 29.4656 18.5308C28.7055 17.7678 28.2787 16.7347 28.2787 15.6578C28.2787 14.5808 28.7055 13.5477 29.4656 12.7847C31.05 11.2003 33.6273 11.2003 35.2117 12.7847C36.796 14.3691 36.796 16.948 35.2117 18.5308ZM8.9254 31.9697C7.18663 33.7084 4.79948 41.5638 4.53298 42.4526C4.49176 42.5932 4.48913 42.7422 4.52537 42.8841C4.56161 43.026 4.63537 43.1555 4.73893 43.2591C4.84249 43.3626 4.97201 43.4364 5.11391 43.4726C5.2558 43.5089 5.40484 43.5062 5.54536 43.465C6.43425 43.1985 14.2896 40.8114 16.0283 39.0726C16.969 38.13 17.4972 36.8528 17.4972 35.5211C17.4972 34.1895 16.969 32.9123 16.0283 31.9697C15.0855 31.0294 13.8084 30.5014 12.4769 30.5014C11.1454 30.5014 9.8682 31.0294 8.9254 31.9697Z" fill="#1A1A1A"/>
</svg>
