<svg width="19" height="19" viewBox="0 0 19 19" fill="none" xmlns="http://www.w3.org/2000/svg">
<path d="M13.5327 8.48486C16.3996 8.48496 18.7241 10.8389 18.7241 13.7427C18.7239 16.6462 16.3995 19.0004 13.5327 19.0005C10.666 19.0004 8.34157 16.6462 8.34131 13.7427C8.34133 10.8389 10.6658 8.485 13.5327 8.48486ZM7.19092 0.127441C8.86477 0.127441 10.4053 0.467514 11.5454 1.04053C12.6563 1.59888 13.5317 2.46246 13.5317 3.56299C13.5317 3.63095 13.5285 3.69802 13.522 3.76416H13.5317V7.52881C13.1203 7.52888 12.7183 7.56965 12.3296 7.64795C12.4646 7.40006 12.5317 7.14823 12.5317 6.90088V5.44482C12.2423 5.68848 11.9066 5.90293 11.5454 6.08447C10.4053 6.65749 8.86477 6.99756 7.19092 6.99756C5.51723 6.99752 3.97746 6.65741 2.8374 6.08447C2.47881 5.90425 2.14492 5.69212 1.85693 5.45068L1.85596 7.01318C1.90703 7.63425 2.38115 8.28176 3.30908 8.80908C4.27806 9.35966 5.64983 9.71724 7.19092 9.71729C7.83248 9.71729 8.44428 9.65384 9.01025 9.54248C8.70049 9.8845 8.42926 10.2626 8.20068 10.6685C7.8711 10.6994 7.53387 10.7173 7.19092 10.7173C5.50848 10.7172 3.95997 10.3298 2.81494 9.6792C2.46024 9.47765 2.1347 9.24439 1.85498 8.98291L1.85303 10.7642C1.88138 11.2935 2.32447 11.8901 3.29053 12.3872C4.2634 12.8877 5.64229 13.2124 7.19092 13.2124C7.2682 13.2124 7.34498 13.2072 7.42139 13.2056C7.40646 13.3823 7.39796 13.5611 7.39795 13.7417C7.39795 13.8989 7.40517 14.0552 7.4165 14.2095C7.34159 14.2109 7.2664 14.2124 7.19092 14.2124C5.51628 14.2124 3.97459 13.8638 2.8335 13.2769C2.47348 13.0916 2.13964 12.8733 1.85205 12.6265L1.85107 14.2056L1.85693 14.3228C1.91324 14.9094 2.39273 15.4936 3.36084 15.9644C4.37352 16.4567 5.79519 16.7524 7.35205 16.7524C7.62461 16.7524 7.89007 16.7396 8.14795 16.7222C8.3299 17.0587 8.54173 17.3763 8.77979 17.6714C8.32189 17.7246 7.844 17.7524 7.35205 17.7524C5.68536 17.7524 4.10615 17.4383 2.92432 16.8638C1.76282 16.2991 0.85126 15.4061 0.851074 14.2056V14.2046L0.853027 10.7642C0.852572 10.7463 0.851078 10.7284 0.851074 10.7104H0.854004L0.855957 7.02002C0.854038 6.98052 0.851074 6.94087 0.851074 6.90088H0.856934L0.858887 3.76416H0.86084C0.854301 3.69802 0.851087 3.63095 0.851074 3.56299C0.851074 2.46241 1.72644 1.59888 2.8374 1.04053C3.97746 0.467606 5.51727 0.12748 7.19092 0.127441ZM12.2446 11.353C12.2076 11.3531 12.1767 11.3649 12.1528 11.3892C12.1291 11.4135 12.1167 11.4452 12.1167 11.4829V12.0249C12.1168 12.06 12.1296 12.091 12.1548 12.1167C12.18 12.1423 12.2102 12.1557 12.2446 12.1558H12.8247C13.3875 12.1558 13.745 12.3088 13.897 12.6157H12.2446C12.2076 12.6158 12.1767 12.6277 12.1528 12.6519C12.1292 12.6762 12.1168 12.708 12.1167 12.7456V13.1616C12.1168 13.1994 12.129 13.2311 12.1528 13.2554C12.1767 13.2796 12.2076 13.2914 12.2446 13.2915H13.9526C13.8939 13.5139 13.757 13.6846 13.5425 13.8013C13.3279 13.9178 13.0445 13.9761 12.6929 13.9761H12.2446C12.2101 13.9762 12.18 13.9894 12.1548 14.0151C12.1297 14.0408 12.1167 14.0718 12.1167 14.1069V14.6235C12.1168 14.6586 12.129 14.6891 12.1528 14.7134C12.6649 15.2674 13.329 16.043 14.145 17.0396C14.1689 17.0718 14.2024 17.0882 14.2446 17.0884H15.0249C15.0807 17.0884 15.1197 17.0637 15.1411 17.0151C15.1677 16.9664 15.1627 16.9198 15.1255 16.8765C14.3468 15.9043 13.734 15.1763 13.2886 14.6929C13.7416 14.6386 14.1104 14.4897 14.3931 14.2456C14.6756 14.0013 14.8473 13.6823 14.9087 13.2915H15.5815C15.6185 13.2914 15.6495 13.2795 15.6733 13.2554C15.6972 13.2311 15.7094 13.1994 15.7095 13.1616V12.7456C15.7094 12.7078 15.6972 12.6762 15.6733 12.6519C15.6494 12.6276 15.6186 12.6158 15.5815 12.6157H14.897C14.8517 12.3904 14.7664 12.1944 14.6411 12.0288H15.5728C15.6099 12.0288 15.6416 12.0169 15.6655 11.9927C15.6894 11.9684 15.7015 11.9366 15.7017 11.8989V11.4829C15.7016 11.4451 15.6894 11.4135 15.6655 11.3892C15.6415 11.3647 15.6101 11.353 15.5728 11.353H12.2446ZM7.19092 1.12744C5.63964 1.12748 4.26012 1.4449 3.28662 1.93408C2.28387 2.43805 1.85107 3.04253 1.85107 3.56299C1.8513 4.08335 2.28413 4.68709 3.28662 5.19092C4.26012 5.68012 5.6396 5.99752 7.19092 5.99756C8.74247 5.99756 10.1226 5.68022 11.0962 5.19092C12.0986 4.68709 12.5315 4.08334 12.5317 3.56299C12.5317 3.04254 12.0989 2.43804 11.0962 1.93408C10.1226 1.44478 8.74247 1.12744 7.19092 1.12744Z" fill="#373844"/>
</svg>
