<svg width="24" height="24" viewBox="0 0 24 24" fill="none" xmlns="http://www.w3.org/2000/svg">
<path d="M18.3 5.61904C17.4747 4.78574 16.4919 4.12502 15.4087 3.67537C14.3256 3.22573 13.1637 2.99616 11.991 3.00005C7.07699 3.00005 3.072 7.00504 3.072 11.919C3.072 13.494 3.486 15.024 4.26 16.374L3 21L7.72499 19.758C9.02998 20.469 10.497 20.847 11.991 20.847C16.905 20.847 20.91 16.842 20.91 11.928C20.91 9.54303 19.983 7.30204 18.3 5.61904ZM11.991 19.335C10.659 19.335 9.35398 18.975 8.21099 18.3L7.94099 18.138L5.13299 18.876L5.87999 16.14L5.69999 15.861C4.95979 14.6794 4.56683 13.3134 4.566 11.919C4.566 7.83304 7.89599 4.50304 11.982 4.50304C13.962 4.50304 15.825 5.27704 17.22 6.68104C17.9108 7.36851 18.4583 8.18632 18.8306 9.08703C19.203 9.98773 19.3927 10.9534 19.389 11.928C19.407 16.014 16.077 19.335 11.991 19.335ZM16.059 13.791C15.834 13.683 14.736 13.143 14.538 13.062C14.331 12.99 14.187 12.954 14.034 13.17C13.881 13.395 13.458 13.899 13.332 14.043C13.206 14.196 13.071 14.214 12.846 14.097C12.621 13.989 11.901 13.746 11.055 12.99C10.389 12.396 9.94798 11.667 9.81298 11.442C9.68698 11.217 9.79498 11.1 9.91198 10.983C10.011 10.884 10.137 10.722 10.245 10.596C10.353 10.47 10.398 10.371 10.47 10.227C10.542 10.074 10.506 9.94803 10.452 9.84003C10.398 9.73203 9.94798 8.63403 9.76798 8.18403C9.58798 7.75204 9.39898 7.80604 9.26398 7.79704H8.83198C8.67898 7.79704 8.44499 7.85104 8.23799 8.07604C8.03999 8.30103 7.46399 8.84103 7.46399 9.93903C7.46399 11.037 8.26499 12.099 8.37299 12.243C8.48099 12.396 9.94798 14.646 12.18 15.609C12.711 15.843 13.125 15.978 13.449 16.077C13.98 16.248 14.466 16.221 14.853 16.167C15.285 16.104 16.176 15.627 16.356 15.105C16.545 14.583 16.545 14.142 16.482 14.043C16.419 13.944 16.284 13.899 16.059 13.791Z" fill="#1A1A1A"/>
</svg>
